<?xml version="1.0" encoding="UTF-8" standalone="no"?><svg xmlns="http://www.w3.org/2000/svg" xmlns:xlink="http://www.w3.org/1999/xlink" contentScriptType="application/ecmascript" contentStyleType="text/css" height="1270px" preserveAspectRatio="none" style="width:2614px;height:1270px;background:#FFFFFF;" version="1.1" viewBox="0 0 2614 1270" width="2614px" zoomAndPan="magnify"><defs><filter height="300%" id="f11mo96pcza11u" width="300%" x="-1" y="-1"><feGaussianBlur result="blurOut" stdDeviation="2.0"/><feColorMatrix in="blurOut" result="blurOut2" type="matrix" values="0 0 0 0 0 0 0 0 0 0 0 0 0 0 0 0 0 0 .4 0"/><feOffset dx="4.0" dy="4.0" in="blurOut2" result="blurOut3"/><feBlend in="SourceGraphic" in2="blurOut3" mode="normal"/></filter></defs><g><text fill="#000000" font-family="sans-serif" font-size="18" lengthAdjust="spacing" textLength="361" x="1125.7813" y="26.708">Continuous Integration Process Sketch</text><rect fill="#DEE4E8" height="1224.5337" style="stroke:#DEE4E8;stroke-width:1.0;" width="511.1875" x="15" y="33.6982"/><ellipse cx="259.1875" cy="69.6514" fill="#000000" filter="url(#f11mo96pcza11u)" rx="10" ry="10" style="stroke:none;stroke-width:1.0;"/><rect fill="#FFFF00" filter="url(#f11mo96pcza11u)" height="36.2969" rx="12.5" ry="12.5" style="stroke:#A80036;stroke-width:1.5;" width="160" x="179.1875" y="99.6514"/><text fill="#000000" font-family="sans-serif" font-size="14" lengthAdjust="spacing" textLength="140" x="189.1875" y="122.6465">Check out Artifacts</text><rect fill="#FFFF00" filter="url(#f11mo96pcza11u)" height="36.2969" rx="12.5" ry="12.5" style="stroke:#A80036;stroke-width:1.5;" width="194" x="162.1875" y="246.7637"/><text fill="#000000" font-family="sans-serif" font-size="14" lengthAdjust="spacing" textLength="174" x="172.1875" y="269.7588">Create/Modify Artefacts</text><rect fill="#FFFF00" filter="url(#f11mo96pcza11u)" height="36.2969" rx="12.5" ry="12.5" style="stroke:#A80036;stroke-width:1.5;" width="144" x="21" y="809.4883"/><text fill="#000000" font-family="sans-serif" font-size="14" lengthAdjust="spacing" textLength="124" x="31" y="832.4834">Correct&amp;Commit</text><ellipse cx="93" cy="890.7852" fill="#FFFFFF" filter="url(#f11mo96pcza11u)" rx="10" ry="10" style="stroke:#000000;stroke-width:1.5;"/><line style="stroke:#000000;stroke-width:2.5;" x1="86.8128" x2="99.1872" y1="884.598" y2="896.9723"/><line style="stroke:#000000;stroke-width:2.5;" x1="99.1872" x2="86.8128" y1="884.598" y2="896.9723"/><rect fill="#FFFF00" filter="url(#f11mo96pcza11u)" height="36.2969" rx="12.5" ry="12.5" style="stroke:#A80036;stroke-width:1.5;" width="144" x="212" y="840.6836"/><text fill="#000000" font-family="sans-serif" font-size="14" lengthAdjust="spacing" textLength="124" x="222" y="863.6787">Correct&amp;Commit</text><ellipse cx="284" cy="921.9805" fill="#FFFFFF" filter="url(#f11mo96pcza11u)" rx="10" ry="10" style="stroke:#000000;stroke-width:1.5;"/><line style="stroke:#000000;stroke-width:2.5;" x1="277.8128" x2="290.1872" y1="915.7933" y2="928.1677"/><line style="stroke:#000000;stroke-width:2.5;" x1="290.1872" x2="277.8128" y1="915.7933" y2="928.1677"/><rect fill="#FFFF00" filter="url(#f11mo96pcza11u)" height="36.2969" rx="12.5" ry="12.5" style="stroke:#A80036;stroke-width:1.5;" width="144" x="372.1875" y="1169.9351"/><text fill="#000000" font-family="sans-serif" font-size="14" lengthAdjust="spacing" textLength="124" x="382.1875" y="1192.9302">Correct&amp;Commit</text><ellipse cx="444.1875" cy="1236.2319" fill="#FFFFFF" filter="url(#f11mo96pcza11u)" rx="10" ry="10" style="stroke:#000000;stroke-width:1.5;"/><line style="stroke:#000000;stroke-width:2.5;" x1="438.0003" x2="450.3747" y1="1230.0447" y2="1242.4191"/><line style="stroke:#000000;stroke-width:2.5;" x1="450.3747" x2="438.0003" y1="1230.0447" y2="1242.4191"/><line style="stroke:#000000;stroke-width:2.0;" x1="15" x2="15" y1="33.6982" y2="1258.2319"/><rect fill="#DAF0FE" height="1224.5337" style="stroke:#DAF0FE;stroke-width:1.0;" width="180" x="526.1875" y="33.6982"/><rect fill="#E6E6FA" filter="url(#f11mo96pcza11u)" height="36.2969" rx="12.5" ry="12.5" style="stroke:#A80036;stroke-width:1.5;" width="164" x="532.1875" y="173.2075"/><text fill="#000000" font-family="sans-serif" font-size="14" lengthAdjust="spacing" textLength="144" x="542.1875" y="196.2026">Versioned Artefacts</text><rect fill="#E6E6FA" filter="url(#f11mo96pcza11u)" height="36.2969" rx="12.5" ry="12.5" style="stroke:#A80036;stroke-width:1.5;" width="159" x="534.6875" y="320.3198"/><text fill="#000000" font-family="sans-serif" font-size="14" lengthAdjust="spacing" textLength="139" x="544.6875" y="343.3149">Versioned Artifacts</text><line style="stroke:#000000;stroke-width:2.0;" x1="526.1875" x2="526.1875" y1="33.6982" y2="1258.2319"/><rect fill="#DEE4E8" height="1224.5337" style="stroke:#DEE4E8;stroke-width:1.0;" width="745" x="706.1875" y="33.6982"/><rect fill="#FEFECE" filter="url(#f11mo96pcza11u)" height="36.2969" rx="12.5" ry="12.5" style="stroke:#A80036;stroke-width:1.5;" width="137" x="890.375" y="393.876"/><text fill="#000000" font-family="sans-serif" font-size="14" lengthAdjust="spacing" textLength="117" x="900.375" y="416.8711">Process Commit</text><polygon fill="#FEFECE" filter="url(#f11mo96pcza11u)" points="922.875,597.2852,994.875,597.2852,1006.875,609.2852,994.875,621.2852,922.875,621.2852,910.875,609.2852,922.875,597.2852" style="stroke:#A80036;stroke-width:1.5;"/><text fill="#000000" font-family="sans-serif" font-size="11" lengthAdjust="spacing" textLength="72" x="922.875" y="613.0933">Build Failed?</text><text fill="#000000" font-family="sans-serif" font-size="11" lengthAdjust="spacing" textLength="36" x="874.875" y="606.6909">failure</text><text fill="#000000" font-family="sans-serif" font-size="11" lengthAdjust="spacing" textLength="111" x="1006.875" y="606.6909">Trigger Static Tests</text><rect fill="#FFC0CB" filter="url(#f11mo96pcza11u)" height="36.2969" rx="12.5" ry="12.5" style="stroke:#A80036;stroke-width:1.5;" width="161" x="712.1875" y="641.2852"/><text fill="#000000" font-family="sans-serif" font-size="14" lengthAdjust="spacing" textLength="141" x="722.1875" y="664.2803">Build Failure Report</text><polygon fill="#FEFECE" filter="url(#f11mo96pcza11u)" points="1087.5625,712.582,1162.5625,712.582,1174.5625,724.582,1162.5625,736.582,1087.5625,736.582,1075.5625,724.582,1087.5625,712.582" style="stroke:#A80036;stroke-width:1.5;"/><text fill="#000000" font-family="sans-serif" font-size="11" lengthAdjust="spacing" textLength="75" x="1087.5625" y="728.3901">Tests Failed?</text><text fill="#000000" font-family="sans-serif" font-size="11" lengthAdjust="spacing" textLength="36" x="1039.5625" y="721.9878">failure</text><text fill="#000000" font-family="sans-serif" font-size="11" lengthAdjust="spacing" textLength="45" x="1174.5625" y="721.9878">success</text><rect fill="#FFC0CB" filter="url(#f11mo96pcza11u)" height="36.2969" rx="12.5" ry="12.5" style="stroke:#A80036;stroke-width:1.5;" width="161" x="903.1875" y="756.582"/><text fill="#000000" font-family="sans-serif" font-size="14" lengthAdjust="spacing" textLength="141" x="913.1875" y="779.5771">Build Failure Report</text><rect fill="#00FF00" filter="url(#f11mo96pcza11u)" height="36.2969" rx="12.5" ry="12.5" style="stroke:#A80036;stroke-width:1.5;" width="161" x="1185.9375" y="911.9805"/><text fill="#000000" font-family="sans-serif" font-size="14" lengthAdjust="spacing" textLength="141" x="1195.9375" y="934.9756">Deploy to TEST Env</text><polygon fill="#FEFECE" filter="url(#f11mo96pcza11u)" points="1228.9375,1041.8335,1303.9375,1041.8335,1315.9375,1053.8335,1303.9375,1065.8335,1228.9375,1065.8335,1216.9375,1053.8335,1228.9375,1041.8335" style="stroke:#A80036;stroke-width:1.5;"/><text fill="#000000" font-family="sans-serif" font-size="11" lengthAdjust="spacing" textLength="75" x="1228.9375" y="1057.6416">Tests Failed?</text><text fill="#000000" font-family="sans-serif" font-size="11" lengthAdjust="spacing" textLength="36" x="1180.9375" y="1051.2393">failure</text><text fill="#000000" font-family="sans-serif" font-size="11" lengthAdjust="spacing" textLength="45" x="1315.9375" y="1051.2393">success</text><rect fill="#FFC0CB" filter="url(#f11mo96pcza11u)" height="36.2969" rx="12.5" ry="12.5" style="stroke:#A80036;stroke-width:1.5;" width="161" x="1094.1875" y="1085.8335"/><text fill="#000000" font-family="sans-serif" font-size="14" lengthAdjust="spacing" textLength="141" x="1104.1875" y="1108.8286">Build Failure Report</text><rect fill="#00FF00" filter="url(#f11mo96pcza11u)" height="36.2969" rx="12.5" ry="12.5" style="stroke:#A80036;stroke-width:1.5;" width="166" x="1275.1875" y="1085.8335"/><text fill="#000000" font-family="sans-serif" font-size="14" lengthAdjust="spacing" textLength="146" x="1285.1875" y="1108.8286">Deploy to PROD Env</text><ellipse cx="1358.1875" cy="1168.1304" fill="#FFFFFF" filter="url(#f11mo96pcza11u)" rx="11" ry="11" style="stroke:#000000;stroke-width:1.0;"/><ellipse cx="1358.1875" cy="1168.1304" fill="#000000" rx="6" ry="6" style="stroke:#7F7F7F;stroke-width:1.0;"/><line style="stroke:#000000;stroke-width:2.0;" x1="706.1875" x2="706.1875" y1="33.6982" y2="1258.2319"/><rect fill="#FAF0E6" height="1224.5337" style="stroke:#FAF0E6;stroke-width:1.0;" width="508" x="1451.1875" y="33.6982"/><rect fill="#E6E6FA" filter="url(#f11mo96pcza11u)" height="36.2969" rx="12.5" ry="12.5" style="stroke:#A80036;stroke-width:1.5;" width="174" x="1591.1875" y="540.9883"/><text fill="#000000" font-family="sans-serif" font-size="14" lengthAdjust="spacing" textLength="154" x="1601.1875" y="563.9834">Deployable Artefacts</text><rect fill="#E6E6FA" filter="url(#f11mo96pcza11u)" height="36.2969" rx="12.5" ry="12.5" style="stroke:#A80036;stroke-width:1.5;" width="124" x="1457.1875" y="725.3867"/><text fill="#000000" font-family="sans-serif" font-size="14" lengthAdjust="spacing" textLength="104" x="1467.1875" y="748.3818">Stored Report</text><rect fill="#E6E6FA" filter="url(#f11mo96pcza11u)" height="36.2969" rx="12.5" ry="12.5" style="stroke:#A80036;stroke-width:1.5;" width="174" x="1775.1875" y="840.6836"/><text fill="#000000" font-family="sans-serif" font-size="14" lengthAdjust="spacing" textLength="154" x="1785.1875" y="863.6787">Deployable Artefacts</text><line style="stroke:#000000;stroke-width:2.0;" x1="1451.1875" x2="1451.1875" y1="33.6982" y2="1258.2319"/><rect fill="#C5C5CD" height="1224.5337" style="stroke:#C5C5CD;stroke-width:1.0;" width="444.375" x="1959.1875" y="33.6982"/><rect fill="#FF69B4" filter="url(#f11mo96pcza11u)" height="36.2969" rx="12.5" ry="12.5" style="stroke:#A80036;stroke-width:1.5;" width="117" x="1965.1875" y="467.4321"/><text fill="#000000" font-family="sans-serif" font-size="14" lengthAdjust="spacing" textLength="97" x="1975.1875" y="490.4272">Execute Build</text><rect fill="#FF69B4" filter="url(#f11mo96pcza11u)" height="36.2969" rx="12.5" ry="12.5" style="stroke:#A80036;stroke-width:1.5;" width="137" x="2092.1875" y="641.2852"/><text fill="#000000" font-family="sans-serif" font-size="14" lengthAdjust="spacing" textLength="117" x="2102.1875" y="664.2803">Run Static Tests</text><rect fill="#FEFECE" filter="url(#f11mo96pcza11u)" height="36.2969" rx="12.5" ry="12.5" style="stroke:#A80036;stroke-width:1.5;" width="183" x="2210.5625" y="756.582"/><text fill="#000000" font-family="sans-serif" font-size="14" lengthAdjust="spacing" textLength="163" x="2220.5625" y="779.5771">Assemble Deployables</text><line style="stroke:#000000;stroke-width:2.0;" x1="1959.1875" x2="1959.1875" y1="33.6982" y2="1258.2319"/><rect fill="#FFFFF0" height="1224.5337" style="stroke:#FFFFF0;stroke-width:1.0;" width="191" x="2403.5625" y="33.6982"/><rect fill="#FF69B4" filter="url(#f11mo96pcza11u)" height="36.2969" rx="12.5" ry="12.5" style="stroke:#A80036;stroke-width:1.5;" width="175" x="2409.5625" y="985.5366"/><text fill="#000000" font-family="sans-serif" font-size="14" lengthAdjust="spacing" textLength="155" x="2419.5625" y="1008.5317">Run Automated Tests</text><line style="stroke:#000000;stroke-width:2.0;" x1="2403.5625" x2="2403.5625" y1="33.6982" y2="1258.2319"/><line style="stroke:#000000;stroke-width:2.0;" x1="2594.5625" x2="2594.5625" y1="33.6982" y2="1258.2319"/><line style="stroke:#A80036;stroke-width:1.5;" x1="259.1875" x2="259.1875" y1="79.6514" y2="99.6514"/><polygon fill="#A80036" points="255.1875,89.6514,259.1875,99.6514,263.1875,89.6514,259.1875,93.6514" style="stroke:#A80036;stroke-width:1.0;"/><line style="stroke:#A80036;stroke-width:1.5;" x1="93" x2="93" y1="845.7852" y2="880.7852"/><polygon fill="#A80036" points="89,870.7852,93,880.7852,97,870.7852,93,874.7852" style="stroke:#A80036;stroke-width:1.0;"/><line style="stroke:#A80036;stroke-width:1.5;" x1="284" x2="284" y1="876.9805" y2="911.9805"/><polygon fill="#A80036" points="280,901.9805,284,911.9805,288,901.9805,284,905.9805" style="stroke:#A80036;stroke-width:1.0;"/><line style="stroke:#A80036;stroke-width:1.5;" x1="444.1875" x2="444.1875" y1="1206.2319" y2="1226.2319"/><polygon fill="#A80036" points="440.1875,1216.2319,444.1875,1226.2319,448.1875,1216.2319,444.1875,1220.2319" style="stroke:#A80036;stroke-width:1.0;"/><line style="stroke:#A80036;stroke-width:1.5;" x1="1358.1875" x2="1358.1875" y1="1122.1304" y2="1157.1304"/><polygon fill="#A80036" points="1354.1875,1147.1304,1358.1875,1157.1304,1362.1875,1147.1304,1358.1875,1151.1304" style="stroke:#A80036;stroke-width:1.0;"/><line style="stroke:#A80036;stroke-width:1.5;" x1="1216.9375" x2="1174.6875" y1="1053.8335" y2="1053.8335"/><line style="stroke:#A80036;stroke-width:1.5;" x1="1174.6875" x2="1174.6875" y1="1053.8335" y2="1085.8335"/><polygon fill="#A80036" points="1170.6875,1075.8335,1174.6875,1085.8335,1178.6875,1075.8335,1174.6875,1079.8335" style="stroke:#A80036;stroke-width:1.0;"/><line style="stroke:#A80036;stroke-width:1.5;" x1="1315.9375" x2="1358.1875" y1="1053.8335" y2="1053.8335"/><line style="stroke:#A80036;stroke-width:1.5;" x1="1358.1875" x2="1358.1875" y1="1053.8335" y2="1085.8335"/><polygon fill="#A80036" points="1354.1875,1075.8335,1358.1875,1085.8335,1362.1875,1075.8335,1358.1875,1079.8335" style="stroke:#A80036;stroke-width:1.0;"/><line style="stroke:#A80036;stroke-width:1.5;" x1="1075.5625" x2="983.6875" y1="724.582" y2="724.582"/><line style="stroke:#A80036;stroke-width:1.5;" x1="983.6875" x2="983.6875" y1="724.582" y2="756.582"/><polygon fill="#A80036" points="979.6875,746.582,983.6875,756.582,987.6875,746.582,983.6875,750.582" style="stroke:#A80036;stroke-width:1.0;"/><line style="stroke:#A80036;stroke-width:1.5;" x1="910.875" x2="792.6875" y1="609.2852" y2="609.2852"/><line style="stroke:#A80036;stroke-width:1.5;" x1="792.6875" x2="792.6875" y1="609.2852" y2="641.2852"/><polygon fill="#A80036" points="788.6875,631.2852,792.6875,641.2852,796.6875,631.2852,792.6875,635.2852" style="stroke:#A80036;stroke-width:1.0;"/><line style="stroke:#A80036;stroke-width:1.5;" x1="259.1875" x2="259.1875" y1="135.9482" y2="158.2075"/><line style="stroke:#A80036;stroke-width:1.5;" x1="259.1875" x2="614.1875" y1="158.2075" y2="158.2075"/><line style="stroke:#A80036;stroke-width:1.5;" x1="614.1875" x2="614.1875" y1="158.2075" y2="173.2075"/><polygon fill="#A80036" points="610.1875,163.2075,614.1875,173.2075,618.1875,163.2075,614.1875,167.2075" style="stroke:#A80036;stroke-width:1.0;"/><text fill="#000000" font-family="sans-serif" font-size="11" lengthAdjust="spacing" textLength="22" x="263.1875" y="151.7075">Use</text><line style="stroke:#A80036;stroke-width:1.5;" x1="614.1875" x2="614.1875" y1="209.5044" y2="231.7637"/><line style="stroke:#A80036;stroke-width:1.5;" x1="614.1875" x2="259.1875" y1="231.7637" y2="231.7637"/><line style="stroke:#A80036;stroke-width:1.5;" x1="259.1875" x2="259.1875" y1="231.7637" y2="246.7637"/><polygon fill="#A80036" points="255.1875,236.7637,259.1875,246.7637,263.1875,236.7637,259.1875,240.7637" style="stroke:#A80036;stroke-width:1.0;"/><text fill="#000000" font-family="sans-serif" font-size="11" lengthAdjust="spacing" textLength="120" x="618.1875" y="225.2637">Checked out into IDE</text><line style="stroke:#A80036;stroke-width:1.5;" x1="259.1875" x2="259.1875" y1="283.0605" y2="305.3198"/><line style="stroke:#A80036;stroke-width:1.5;" x1="259.1875" x2="614.1875" y1="305.3198" y2="305.3198"/><line style="stroke:#A80036;stroke-width:1.5;" x1="614.1875" x2="614.1875" y1="305.3198" y2="320.3198"/><polygon fill="#A80036" points="610.1875,310.3198,614.1875,320.3198,618.1875,310.3198,614.1875,314.3198" style="stroke:#A80036;stroke-width:1.0;"/><text fill="#000000" font-family="sans-serif" font-size="11" lengthAdjust="spacing" textLength="99" x="263.1875" y="298.8198">Commit Artefacts</text><line style="stroke:#A80036;stroke-width:1.5;" x1="614.1875" x2="614.1875" y1="356.6167" y2="378.876"/><line style="stroke:#A80036;stroke-width:1.5;" x1="614.1875" x2="958.875" y1="378.876" y2="378.876"/><line style="stroke:#A80036;stroke-width:1.5;" x1="958.875" x2="958.875" y1="378.876" y2="393.876"/><polygon fill="#A80036" points="954.875,383.876,958.875,393.876,962.875,383.876,958.875,387.876" style="stroke:#A80036;stroke-width:1.0;"/><text fill="#000000" font-family="sans-serif" font-size="11" lengthAdjust="spacing" textLength="83" x="618.1875" y="372.376">Signal Commit</text><line style="stroke:#A80036;stroke-width:1.5;" x1="958.875" x2="958.875" y1="430.1729" y2="452.4321"/><line style="stroke:#A80036;stroke-width:1.5;" x1="958.875" x2="2023.6875" y1="452.4321" y2="452.4321"/><line style="stroke:#A80036;stroke-width:1.5;" x1="2023.6875" x2="2023.6875" y1="452.4321" y2="467.4321"/><polygon fill="#A80036" points="2019.6875,457.4321,2023.6875,467.4321,2027.6875,457.4321,2023.6875,461.4321" style="stroke:#A80036;stroke-width:1.0;"/><text fill="#000000" font-family="sans-serif" font-size="11" lengthAdjust="spacing" textLength="40" x="962.875" y="445.9321">Trigger</text><line style="stroke:#A80036;stroke-width:1.5;" x1="2023.6875" x2="2023.6875" y1="503.729" y2="525.9883"/><line style="stroke:#A80036;stroke-width:1.5;" x1="2023.6875" x2="1678.1875" y1="525.9883" y2="525.9883"/><line style="stroke:#A80036;stroke-width:1.5;" x1="1678.1875" x2="1678.1875" y1="525.9883" y2="540.9883"/><polygon fill="#A80036" points="1674.1875,530.9883,1678.1875,540.9883,1682.1875,530.9883,1678.1875,534.9883" style="stroke:#A80036;stroke-width:1.0;"/><text fill="#000000" font-family="sans-serif" font-size="11" lengthAdjust="spacing" textLength="22" x="2027.6875" y="519.4883">Use</text><line style="stroke:#A80036;stroke-width:1.5;" x1="792.6875" x2="792.6875" y1="677.582" y2="701.4844"/><line style="stroke:#A80036;stroke-width:1.5;" x1="792.6875" x2="1519.1875" y1="701.4844" y2="701.4844"/><line style="stroke:#A80036;stroke-width:1.5;" x1="1519.1875" x2="1519.1875" y1="701.4844" y2="725.3867"/><polygon fill="#A80036" points="1515.1875,715.3867,1519.1875,725.3867,1523.1875,715.3867,1519.1875,719.3867" style="stroke:#A80036;stroke-width:1.0;"/><text fill="#000000" font-family="sans-serif" font-size="11" lengthAdjust="spacing" textLength="31" x="796.6875" y="693.3413">Store</text><line style="stroke:#A80036;stroke-width:1.5;" x1="1519.1875" x2="1519.1875" y1="761.6836" y2="785.5859"/><line style="stroke:#A80036;stroke-width:1.5;" x1="1519.1875" x2="93" y1="785.5859" y2="785.5859"/><line style="stroke:#A80036;stroke-width:1.5;" x1="93" x2="93" y1="785.5859" y2="809.4883"/><polygon fill="#A80036" points="89,799.4883,93,809.4883,97,799.4883,93,803.4883" style="stroke:#A80036;stroke-width:1.0;"/><text fill="#000000" font-family="sans-serif" font-size="11" lengthAdjust="spacing" textLength="33" x="1523.1875" y="777.4429">Notify</text><line style="stroke:#A80036;stroke-width:1.5;" x1="983.6875" x2="983.6875" y1="792.8789" y2="816.7813"/><line style="stroke:#A80036;stroke-width:1.5;" x1="983.6875" x2="284" y1="816.7813" y2="816.7813"/><line style="stroke:#A80036;stroke-width:1.5;" x1="284" x2="284" y1="816.7813" y2="840.6836"/><polygon fill="#A80036" points="280,830.6836,284,840.6836,288,830.6836,284,834.6836" style="stroke:#A80036;stroke-width:1.0;"/><text fill="#000000" font-family="sans-serif" font-size="11" lengthAdjust="spacing" textLength="33" x="987.6875" y="808.6382">Notify</text><line style="stroke:#A80036;stroke-width:1.5;" x1="2302.0625" x2="2302.0625" y1="792.8789" y2="816.7813"/><line style="stroke:#A80036;stroke-width:1.5;" x1="2302.0625" x2="1862.1875" y1="816.7813" y2="816.7813"/><line style="stroke:#A80036;stroke-width:1.5;" x1="1862.1875" x2="1862.1875" y1="816.7813" y2="840.6836"/><polygon fill="#A80036" points="1858.1875,830.6836,1862.1875,840.6836,1866.1875,830.6836,1862.1875,834.6836" style="stroke:#A80036;stroke-width:1.0;"/><text fill="#000000" font-family="sans-serif" font-size="11" lengthAdjust="spacing" textLength="107" x="2306.0625" y="808.6382">Store Deployables</text><line style="stroke:#A80036;stroke-width:1.5;" x1="1862.1875" x2="1862.1875" y1="876.9805" y2="894.4805"/><line style="stroke:#A80036;stroke-width:1.5;" x1="1862.1875" x2="1266.4375" y1="894.4805" y2="894.4805"/><line style="stroke:#A80036;stroke-width:1.5;" x1="1266.4375" x2="1266.4375" y1="894.4805" y2="911.9805"/><polygon fill="#A80036" points="1262.4375,901.9805,1266.4375,911.9805,1270.4375,901.9805,1266.4375,905.9805" style="stroke:#A80036;stroke-width:1.0;"/><line style="stroke:#A80036;stroke-width:1.5;" x1="1266.4375" x2="1266.4375" y1="948.2773" y2="970.5366"/><line style="stroke:#A80036;stroke-width:1.5;" x1="1266.4375" x2="2497.0625" y1="970.5366" y2="970.5366"/><line style="stroke:#A80036;stroke-width:1.5;" x1="2497.0625" x2="2497.0625" y1="970.5366" y2="985.5366"/><polygon fill="#A80036" points="2493.0625,975.5366,2497.0625,985.5366,2501.0625,975.5366,2497.0625,979.5366" style="stroke:#A80036;stroke-width:1.0;"/><text fill="#000000" font-family="sans-serif" font-size="11" lengthAdjust="spacing" textLength="94" x="1270.4375" y="964.0366">Trigger Test Run</text><line style="stroke:#A80036;stroke-width:1.5;" x1="1174.6875" x2="1174.6875" y1="1122.1304" y2="1146.0327"/><line style="stroke:#A80036;stroke-width:1.5;" x1="1174.6875" x2="444.1875" y1="1146.0327" y2="1146.0327"/><line style="stroke:#A80036;stroke-width:1.5;" x1="444.1875" x2="444.1875" y1="1146.0327" y2="1169.9351"/><polygon fill="#A80036" points="440.1875,1159.9351,444.1875,1169.9351,448.1875,1159.9351,444.1875,1163.9351" style="stroke:#A80036;stroke-width:1.0;"/><text fill="#000000" font-family="sans-serif" font-size="11" lengthAdjust="spacing" textLength="33" x="1178.6875" y="1137.8896">Notify</text><line style="stroke:#A80036;stroke-width:1.5;" x1="2497.0625" x2="2497.0625" y1="1021.8335" y2="1026.8335"/><line style="stroke:#A80036;stroke-width:1.5;" x1="2497.0625" x2="1266.4375" y1="1026.8335" y2="1026.8335"/><line style="stroke:#A80036;stroke-width:1.5;" x1="1266.4375" x2="1266.4375" y1="1026.8335" y2="1041.8335"/><polygon fill="#A80036" points="1262.4375,1031.8335,1266.4375,1041.8335,1270.4375,1031.8335,1266.4375,1035.8335" style="stroke:#A80036;stroke-width:1.0;"/><line style="stroke:#A80036;stroke-width:1.5;" x1="1174.5625" x2="2302.0625" y1="724.582" y2="724.582"/><line style="stroke:#A80036;stroke-width:1.5;" x1="2302.0625" x2="2302.0625" y1="724.582" y2="756.582"/><polygon fill="#A80036" points="2298.0625,746.582,2302.0625,756.582,2306.0625,746.582,2302.0625,750.582" style="stroke:#A80036;stroke-width:1.0;"/><line style="stroke:#A80036;stroke-width:1.5;" x1="2160.6875" x2="2160.6875" y1="677.582" y2="695.082"/><line style="stroke:#A80036;stroke-width:1.5;" x1="2160.6875" x2="1125.0625" y1="695.082" y2="695.082"/><line style="stroke:#A80036;stroke-width:1.5;" x1="1125.0625" x2="1125.0625" y1="695.082" y2="712.582"/><polygon fill="#A80036" points="1121.0625,702.582,1125.0625,712.582,1129.0625,702.582,1125.0625,706.582" style="stroke:#A80036;stroke-width:1.0;"/><line style="stroke:#A80036;stroke-width:1.5;" x1="1006.875" x2="2160.6875" y1="609.2852" y2="609.2852"/><line style="stroke:#A80036;stroke-width:1.5;" x1="2160.6875" x2="2160.6875" y1="609.2852" y2="641.2852"/><polygon fill="#A80036" points="2156.6875,631.2852,2160.6875,641.2852,2164.6875,631.2852,2160.6875,635.2852" style="stroke:#A80036;stroke-width:1.0;"/><line style="stroke:#A80036;stroke-width:1.5;" x1="1678.1875" x2="1678.1875" y1="577.2852" y2="582.2852"/><line style="stroke:#A80036;stroke-width:1.5;" x1="1678.1875" x2="958.875" y1="582.2852" y2="582.2852"/><line style="stroke:#A80036;stroke-width:1.5;" x1="958.875" x2="958.875" y1="582.2852" y2="597.2852"/><polygon fill="#A80036" points="954.875,587.2852,958.875,597.2852,962.875,587.2852,958.875,591.2852" style="stroke:#A80036;stroke-width:1.0;"/><text fill="#000000" font-family="sans-serif" font-size="18" lengthAdjust="spacing" textLength="95" x="223.0938" y="50.4063">Developer</text><text fill="#000000" font-family="sans-serif" font-size="18" lengthAdjust="spacing" textLength="144" x="544.1875" y="50.4063">Version Control</text><text fill="#000000" font-family="sans-serif" font-size="18" lengthAdjust="spacing" textLength="17" x="1070.1875" y="50.4063">CI</text><text fill="#000000" font-family="sans-serif" font-size="18" lengthAdjust="spacing" textLength="129" x="1640.6875" y="50.4063">Artefact Repo</text><text fill="#000000" font-family="sans-serif" font-size="18" lengthAdjust="spacing" textLength="79" x="2141.875" y="50.4063">DEV Env</text><text fill="#000000" font-family="sans-serif" font-size="18" lengthAdjust="spacing" textLength="86" x="2456.0625" y="50.4063">TEST Env</text><!--MD5=[ca80aba5f47a544a663df8891af67248]
@startuml
skinparam ActivityFontSize 14
skinparam ArrowFontSize 14
skinparam ArrowFontSize italic

title Continuous Integration Process Sketch

|#dee4e8|Developer|
|#daf0fe|Version Control|
|#dee4e8|CI|
|#Linen|Artefact Repo|
|#c5c5cd|DEV Env|
|#Ivory|TEST Env|
|#Ivory|TEST Env|

|Developer|
start
    #Yellow:Check out Artifacts;
    ->Use;
    |Version Control|
    #Lavender:Versioned Artefacts;
    |Developer|
    ->Checked out into IDE;
    #Yellow:Create/Modify Artefacts;
    ->Commit Artefacts;
    |Version Control|
    #Lavender:Versioned Artifacts;
    ->Signal Commit;
    |CI| 
    :Process Commit;
    |DEV Env|
    ->Trigger;
    #HotPink:Execute Build;
    ->Use;
    |Artefact Repo|
    #Lavender:Deployable Artefacts;
    |DEV Env|
    |CI|
    if (Build Failed?) then (failure)
        |CI|
        #Pink:Build Failure Report;
        ->Store;
        |Artefact Repo|
        #Lavender:Stored Report;
        |CI|
        ->Notify;
        |Developer|
        #Yellow:Correct&Commit;
        end
    else (success)
        |CI|
        ->Trigger Static Tests;
        |DEV Env|
        #HotPink:Run Static Tests;
        |CI|
        if (Tests Failed?) then (failure)
            |CI|
            #Pink:Build Failure Report;
            ->Notify;
            |Developer|
            #Yellow:Correct&Commit;
            end
        else (success)
            |DEV Env|
            :Assemble Deployables;
            |Artefact Repo|
            ->Store Deployables;
            #Lavender:Deployable Artefacts;
            |CI|
            #Lime:Deploy to TEST Env;
            ->Trigger Test Run;
            |TEST Env|
            #HotPink:Run Automated Tests;
            |CI|
            if (Tests Failed?) then (failure)
                |CI|
                #Pink:Build Failure Report;
                ->Notify;
                |Developer|
                #Yellow:Correct&Commit;
                end
            else (success)
            |CI|
            #Lime:Deploy to PROD Env;
            stop
            endif    
        endif    
    endif
@enduml

PlantUML version 1.2021.15(Tue Nov 30 16:45:34 UTC 2021)
(GPL source distribution)
Java Runtime: Java(TM) SE Runtime Environment
JVM: Java HotSpot(TM) 64-Bit Server VM
Default Encoding: UTF-8
Language: en
Country: US
--></g></svg>