<?xml version="1.0" encoding="UTF-8" standalone="no"?><svg xmlns="http://www.w3.org/2000/svg" xmlns:xlink="http://www.w3.org/1999/xlink" contentScriptType="application/ecmascript" contentStyleType="text/css" height="865px" preserveAspectRatio="none" style="width:1443px;height:865px;background:#FFFFFF;" version="1.1" viewBox="0 0 1443 865" width="1443px" zoomAndPan="magnify"><defs><filter height="300%" id="f17i0no6trac3p" width="300%" x="-1" y="-1"><feGaussianBlur result="blurOut" stdDeviation="2.0"/><feColorMatrix in="blurOut" result="blurOut2" type="matrix" values="0 0 0 0 0 0 0 0 0 0 0 0 0 0 0 0 0 0 .4 0"/><feOffset dx="4.0" dy="4.0" in="blurOut2" result="blurOut3"/><feBlend in="SourceGraphic" in2="blurOut3" mode="normal"/></filter><filter height="1" id="b17i0no6trac3p0" width="1" x="0" y="0"><feFlood flood-color="#F0F8FF" result="flood"/><feComposite in="SourceGraphic" in2="flood" operator="over"/></filter><filter height="1" id="b17i0no6trac3p1" width="1" x="0" y="0"><feFlood flood-color="#90EE90" result="flood"/><feComposite in="SourceGraphic" in2="flood" operator="over"/></filter><filter height="1" id="b17i0no6trac3p2" width="1" x="0" y="0"><feFlood flood-color="#FFF5EE" result="flood"/><feComposite in="SourceGraphic" in2="flood" operator="over"/></filter></defs><g><!--MD5=[d3013eb309a248c62385093ffd2add38]
cluster pumpkin8--><polygon fill="#F0F8FF" filter="url(#f17i0no6trac3p)" points="16,16,26,6,1426,6,1426,763,1416,773,16,773,16,16" style="stroke:#000000;stroke-width:1.5;"/><line style="stroke:#000000;stroke-width:1.5;" x1="1416" x2="1426" y1="16" y2="6"/><line style="stroke:#000000;stroke-width:1.5;" x1="16" x2="1416" y1="16" y2="16"/><line style="stroke:#000000;stroke-width:1.5;" x1="1416" x2="1416" y1="16" y2="773"/><text fill="#000000" font-family="sans-serif" font-size="14" font-weight="bold" lengthAdjust="spacing" textLength="69" x="682.5" y="31.9951">pumpkin</text><text fill="#000000" font-family="sans-serif" font-size="14" font-weight="bold" lengthAdjust="spacing" textLength="130" x="652" y="48.292">Oracle Linux 8.5</text><!--MD5=[f9dac4aa30d2eb83e45fa36a0174af78]
cluster netb--><path d="M67.5841,442.5525 C77.4969,424.035 95.7747,422.7829 107.1814,440.9395 C117.0937,421.0746 135.558,416.5257 148.2273,438.2162 C161.3306,412.6806 178.5308,414.644 194.8769,434.9137 C206.0081,417.1687 223.2931,417.0219 231.4016,437.7809 C241.2616,417.1525 259.8878,413.0662 275.5845,431.113 C288.7256,409.3977 307.3347,412.287 317.2785,434.1706 C324.5713,411.2835 344.9497,412.4574 357.1787,429.2008 C369.5871,408.9324 388.1077,413.4633 398.7952,431.0906 C413.4933,409.7648 427.7115,408.5753 442.4442,431.0561 C453.0734,416.3429 467.9336,412.9481 478.2464,431.3976 C494.6426,412.7151 516.0102,412.419 524.9159,439.1033 C534.2114,417.2726 549.7853,421.376 562.6239,435.3746 C576.9934,415.9358 596.2194,417.4357 608.3294,437.9587 C623.2697,417.8486 641.9853,422.2577 651,444 C654.9476,442.9034 656.273,445.4365 655.7613,448.7809 C681.1276,464.881 677.3481,482.4489 654.3217,497.1074 C672.4091,511.0274 672.2482,524.3549 654.2281,538.1927 C678.3308,553.455 686.5306,571.2088 660.1168,591.9997 C678.4523,607.41 678.5116,627.6349 655.0086,638.4435 C678.2192,650.769 674.5934,671.8079 655.1534,684.2683 C671.4027,705.503 673.8089,722.3068 644,733 C645.8469,731.4649 647.5733,732.3414 648.1035,734.4734 C638.0955,754.0657 618.0642,753.46 606.7765,735.8967 C595.003,754.785 579.599,756.0241 567.2755,736.4618 C552.497,758.0835 534.6558,757.3797 520.704,735.5754 C509.36,752.0738 496.4814,753.4401 483.0511,738.0378 C469.8932,756.1613 452.6252,758.0365 438.8064,738.8209 C427.4186,754.9813 414.6559,756.2598 401.3378,741.1327 C389.2236,758.7692 369.5472,761.1054 359.8419,738.64 C347.0374,759.194 334.1088,764.1981 317.3066,742.6819 C304.5953,764.9089 286.8425,765.2047 274.1684,742.6461 C263.8461,764.9794 243.145,763.1198 232.2687,743.1954 C214.44,764.3657 199.836,760.2463 187.8053,737.3458 C174.965,755.8996 161.2479,754.8918 150.1091,735.6489 C136.7246,754.1913 123.4311,755.6737 109.37,736.3774 C88.7836,755.2657 67.8089,752.2538 56,726 C59.0518,724.1304 61.5888,725.1698 62.3912,728.6749 C35.9265,717.8444 33.5728,698.6863 54.2467,679.9727 C34.9401,664.4619 32.8395,647.3687 56.6414,634.1086 C34.0063,623.4225 33.121,609.6383 49.9014,592.5585 C31.3352,575.2722 31.6055,559.9431 52.0729,544.4175 C34.4629,526.0291 36.9727,506.693 60.2093,495.0345 C34.6143,476.2409 31.5429,453.0501 63,437 C66.6623,436.6919 69.1724,438.5258 67.5841,442.5525 " fill="#FFF5EE" filter="url(#f17i0no6trac3p)" style="stroke:#000000;stroke-width:1.5;"/><text fill="#000000" font-family="sans-serif" font-size="14" font-weight="bold" lengthAdjust="spacing" textLength="51" x="328" y="454.9951">bridge</text><text fill="#000000" font-family="sans-serif" font-size="14" font-weight="bold" lengthAdjust="spacing" textLength="127" x="290" y="471.292">Docker Network</text><!--MD5=[ce2e673e778e1bee223c38349a7935a8]
cluster netf--><path d="M498.0128,89.8952 C504.0953,78.8149 511.9508,76.4752 520.0194,87.9582 C526.5741,76.221 537.6212,77.3861 543.1563,88.9697 C549.4959,77.6211 558.2977,77.7309 564.5297,89.0709 C571.1715,78.394 580.3584,76.9508 589.0643,86.5766 C596.7553,74.928 605.1318,76.5564 612.5889,86.8276 C618.4493,74.4054 628.0758,74.6217 635.4427,85.3398 C642.7562,73.7267 653.8744,74.5487 661.1519,85.3809 C668.0087,75.9954 677.7218,77.5308 681.8715,88.1804 C691.3014,77.0603 700.3893,77.6748 709.2535,88.8745 C714.736,78.3831 722.701,77.2349 730.9282,85.7434 C739.0218,76.8258 747.6772,76.3651 752.8973,88.7122 C760.306,77.3477 768.5205,78.3361 776.2188,88.397 C783.8174,74.8313 792.0918,74.3988 800.791,87.3783 C813.1437,75.5423 821.6635,79.6654 829,93 C830.0149,93.1706 830.1267,93.8631 829.6169,94.6158 C841.9409,101.4429 844.3263,109.6236 833.6091,120.0652 C844.3295,129.3595 845.4531,137.0119 832.4161,145.1775 C845.3225,151.0202 847.551,163.4241 837.664,173.4915 C847.8507,182.2908 845.9005,189.2475 835.6815,196.2709 C848.5994,202.8699 850.9262,215.8148 837.6518,224.2578 C848.6583,233.0365 849.5547,240.9524 836.9127,249.0255 C849.6081,256.3806 849.5942,263.9568 837.7898,272.2377 C850.8494,282.7279 849.2988,294.9041 834.0526,301.8183 C846.3479,308.5036 844.6658,319.0944 833.8546,325.5871 C846.03,341.9732 840.8953,351.7249 822,356 C823.6788,356.4201 823.781,357.7187 822.6015,358.7614 C817.636,370.714 809.1105,370.9455 801.155,361.8009 C791.4457,375.0028 783.5404,373.7042 775.4848,360.2107 C770.4025,369.7555 761.0666,371.6781 754.7121,361.5543 C749.2108,372.5957 739.1929,374.7078 730.452,365.4204 C723.9356,376.1302 714.2196,378.6576 706.7992,366.3494 C700.1031,378.5116 690.747,380.0024 682.9673,367.3918 C677.3039,378.6304 668.0441,375.8891 662.3981,367.3737 C655.8424,380.3941 644.576,377.9735 637.6765,367.7392 C630.06,378.1954 618.8322,377.9657 614.5718,364.498 C609.6219,375.7594 598.5266,377.8346 591.8392,366.225 C582.5775,377.6494 573.4546,374.5361 568.1283,362.2839 C559.588,374.2881 549.9143,371.9153 544.0557,359.6264 C534.339,371.6659 526.1875,371.2611 518.3614,357.7268 C504.7475,369.8946 492.4724,366.0904 487,349 C487.7381,349.4662 487.6744,349.9636 487.037,350.4646 C474.9264,340.3749 475.2688,332.7524 489.6771,325.4632 C476.7714,321.6665 474.7052,310.7526 483.861,301.5829 C473.8672,294.1743 473.8097,281.3601 485.7692,275.5614 C470.7438,266.939 473.8282,257.9418 484.4621,248.0982 C472.0311,243.765 470.0129,232.3281 478.9043,223.2295 C468.4867,212.5783 472.013,204.9683 484.0027,199.0398 C472.0562,189.7397 471.5814,180.4752 486.2732,173.5477 C472.815,164.8369 471.439,154.2182 486.6509,145.899 C473.6144,139.5179 473.8054,126.5463 486.1685,119.6976 C473.5006,104.4821 475.5283,93.9785 494,86 C497.0398,85.2941 498.4675,87.0011 498.0128,89.8952 " fill="#FFF5EE" filter="url(#f17i0no6trac3p)" style="stroke:#000000;stroke-width:1.5;"/><text fill="#000000" font-family="sans-serif" font-size="14" font-weight="bold" lengthAdjust="spacing" textLength="64" x="626" y="103.9951">nofadfa</text><text fill="#000000" font-family="sans-serif" font-size="14" font-weight="bold" lengthAdjust="spacing" textLength="127" x="594.5" y="120.292">Docker Network</text><!--MD5=[281e58e1a5ef3e1bb883ca5f6942504a]
cluster netd--><path d="M716.815,447.5124 C725.1292,434.6505 734.5608,433.7693 744.2501,446.0096 C752.5812,434.5097 765.0439,434.1046 772.3138,447.2196 C778.8948,435.795 789.3823,434.713 797.2038,445.8512 C804.7213,433.6428 816.179,432.4252 825.0864,444.2379 C832.4008,431.5073 839.7535,430.5936 849.0072,442.3428 C858.3489,429.5388 871.8812,430.2869 879.681,444.1185 C885.5025,432.0869 895.0781,432.693 902.5863,442.336 C910.1173,428.8059 921.6653,429.8255 930.2736,441.1351 C939.8795,430.2226 951.6554,429.2665 958.2576,444.3664 C967.9532,434.216 975.9605,433.411 984.2924,445.9323 C992.216,430.164 1004.2633,430.6403 1012.932,445.2294 C1021.3266,436.0316 1029.5134,436.591 1036.5894,446.8341 C1047.9454,433.7273 1057.4046,432.9866 1066.4372,449.1994 C1077.5713,437.4527 1088.8304,436.7965 1097,452.5 C1098.964,452.5627 1099.991,453.7594 1099.1101,455.6988 C1114.6237,461.418 1115.2304,470.6459 1103.9515,481.4101 C1121.7762,486.593 1122.8231,500.3706 1111.0857,512.3665 C1125.0338,521.9946 1123.6461,532.8605 1108.3505,539.5454 C1120.4118,559.9792 1114.2616,573.1351 1090,574.5 C1091.9103,576.0172 1091.9434,577.5161 1090.0847,579.1026 C1082.7392,588.567 1072.0084,585.5241 1067.7492,575.5553 C1058.5683,589.0074 1048.8611,589.8136 1037.3374,578.4234 C1029.7435,589.7033 1022.1853,589.3756 1013.4829,579.6844 C1005.8783,592.5447 993.724,594.1336 984.4429,581.6018 C976.0729,593.3749 963.2745,592.2968 956.9045,579.372 C950.9545,592.3673 938.1914,592.0072 930.1777,581.7433 C922.0988,591.8716 912.225,592.7285 905.7298,580.046 C897.5923,592.238 883.8807,592.6649 876.3802,579.3141 C870.4466,593.4864 860.0862,595.1224 850.5665,582.8092 C838.8494,593.1984 831.0327,590.3794 824.3169,577.2316 C817.8506,590.6472 810.041,592.2085 799.6289,581.2239 C789.0983,596.0437 779.2599,592.8354 770.8534,579.0845 C760.8607,593.278 752.9332,589.2027 744.1408,577.8303 C725.9817,594.6727 714.3079,589.671 707,567.5 C708.7356,568.3113 709.4675,569.9411 707.5399,571.2762 C693.1676,561.1398 691.6758,551.0872 706.4146,539.9065 C693.4946,531.8773 694.2558,518.2998 706.3487,510.2151 C694.5599,500.3861 693.9054,491.3621 707.8361,482.9355 C693.3122,468.4075 696.4595,454.7485 714,445.5 C715.7964,444.9438 716.9551,445.3598 716.815,447.5124 " fill="#FFF5EE" filter="url(#f17i0no6trac3p)" style="stroke:#000000;stroke-width:1.5;"/><text fill="#000000" font-family="sans-serif" font-size="14" font-weight="bold" lengthAdjust="spacing" textLength="165" x="819.5" y="463.4951">hcddeloitte-network</text><text fill="#000000" font-family="sans-serif" font-size="14" font-weight="bold" lengthAdjust="spacing" textLength="127" x="838.5" y="479.792">Docker Network</text><!--MD5=[dc254bcd2caade112bff73f4a58b86a3]
cluster neth--><path d="M1161.3727,446.0337 C1166.0124,437.8704 1170.8843,438.0985 1176.8398,444.6508 C1179.9029,436.1071 1187.8924,436.364 1192.712,442.7883 C1196.7942,436.4547 1200.9588,436.0468 1205.9136,441.8384 C1210.2926,435.4668 1216.0472,434.4369 1221.1622,440.9687 C1224.7894,432.0591 1232.1637,431.6838 1237.4044,439.3918 C1240.2327,431.9205 1246.5029,432.0181 1250.475,438.3053 C1254.0666,431.2155 1260.7735,429.5824 1265.2739,437.4034 C1270.751,430.3197 1275.7878,431.301 1279.8963,438.7779 C1285.2466,431.882 1292.187,430.2277 1297.1216,439.2284 C1302.1416,434.2793 1306.0913,433.9902 1309.3728,441.0082 C1315.6384,435.2691 1321.3845,433.7931 1325.4202,443.348 C1329.9123,435.7924 1335.8947,437.0852 1340.1586,443.5872 C1344.9531,437.3759 1352.1441,438.9829 1354.7191,446.0256 C1363.3369,438.7259 1372.9783,439.366 1376,452 C1377.3476,451.2346 1378.1653,451.645 1378.2636,453.2123 C1387.4856,459.6321 1388.6707,466.2674 1378.825,473.2222 C1390.0733,478.0809 1390.2323,484.9753 1381.553,492.6345 C1390.4051,497.0208 1390.89,503.5993 1384.254,510.3473 C1391.0771,518.9724 1390.6759,525.2453 1380.3876,530.6046 C1388.387,536.5258 1387.6641,543.6525 1379.4181,548.7035 C1386.5927,561.387 1385.6292,571.7471 1369,575 C1369.8481,573.7914 1370.8202,574.0736 1371.4247,575.2477 C1368.7437,582.7659 1361.7563,585.6257 1356.2955,578.0305 C1352.8381,585.4248 1347.44,586.67 1341.8487,580.2644 C1337.9899,588.5452 1330.6872,588.4992 1326.1082,580.982 C1322.2474,589.4077 1316.1052,590.4789 1310.6866,582.4413 C1306.6415,590.4935 1301.3076,591.4234 1295.3724,584.3557 C1292.6736,592.7948 1286.5804,593.4771 1281.1863,586.9024 C1278.2861,594.6552 1271.2681,595.0335 1266.3688,589.0605 C1261.5452,594.861 1255.2291,594.6724 1252.5054,586.9135 C1246.6121,593.7154 1239.4654,594.1784 1235.0775,585.246 C1228.8416,592.1039 1223.0701,590.8566 1220.104,582.1088 C1215.6925,588.9019 1209.3232,589.1893 1204.8184,582.2123 C1200.356,587.9429 1193.9071,587.749 1190.7697,580.75 C1184.7883,585.5917 1180.2671,584.6147 1177.5274,577.2369 C1165.9339,585.4373 1156.0442,582.5011 1153,568 C1153.7559,567.3426 1154.3617,567.4624 1154.8339,568.3392 C1146.1731,564.5102 1144.4,558.4349 1151.4572,551.4613 C1140.8569,548.1289 1137.0114,539.5893 1146.2313,531.1558 C1137.53,526.5637 1135.868,518.6486 1143.3138,511.6424 C1135.4302,504.6617 1134.7842,494.8395 1146.4798,490.8384 C1137.8593,481.5772 1140.5377,475.1611 1152.0789,471.8428 C1142.2359,461.0886 1143.7631,448.0583 1160,445 C1160.7937,444.6985 1161.462,445.1626 1161.3727,446.0337 " fill="#FFF5EE" filter="url(#f17i0no6trac3p)" style="stroke:#000000;stroke-width:1.5;"/><text fill="#000000" font-family="sans-serif" font-size="14" font-weight="bold" lengthAdjust="spacing" textLength="164" x="1182.5" y="462.9951">hcdwebsite-network</text><text fill="#000000" font-family="sans-serif" font-size="14" font-weight="bold" lengthAdjust="spacing" textLength="127" x="1201" y="479.292">Docker Network</text><!--MD5=[7c0f197cad09c4d86c8b8989e1030b9e]
entity docker--><rect fill="#FEFECE" filter="url(#f17i0no6trac3p)" height="46.2969" style="stroke:#A80036;stroke-width:1.5;" width="92" x="861" y="285.5"/><rect fill="#FEFECE" height="10" style="stroke:#A80036;stroke-width:1.5;" width="15" x="933" y="290.5"/><rect fill="#FEFECE" height="2" style="stroke:#A80036;stroke-width:1.5;" width="4" x="931" y="292.5"/><rect fill="#FEFECE" height="2" style="stroke:#A80036;stroke-width:1.5;" width="4" x="931" y="296.5"/><text fill="#000000" font-family="sans-serif" font-size="14" lengthAdjust="spacing" textLength="52" x="876" y="318.4951">Docker</text><!--MD5=[76c86c177bdc0272557bae0b15a5f015]
entity fpumpkin--><polygon fill="#FEFECE" filter="url(#f17i0no6trac3p)" points="1022.5,658.5,1068.5,658.5,1075.5,679.5,1185.5,679.5,1185.5,712.7969,1022.5,712.7969,1022.5,658.5" style="stroke:#000000;stroke-width:1.5;"/><line style="stroke:#000000;stroke-width:1.5;" x1="1022.5" x2="1075.5" y1="679.5" y2="679.5"/><text fill="#000000" font-family="sans-serif" font-size="14" lengthAdjust="spacing" textLength="133" x="1032.5" y="699.4951">pumkin filesystem</text><!--MD5=[e05edd5f4aa6768e6bd6277bea4a2f49]
entity UAT\nw3uatapache\nApache--><rect fill="#90EE90" filter="url(#f17i0no6trac3p)" height="78.8906" style="stroke:#A80036;stroke-width:1.5;" width="135" x="72.5" y="488"/><rect fill="#90EE90" height="10" style="stroke:#A80036;stroke-width:1.5;" width="15" x="187.5" y="493"/><rect fill="#90EE90" height="2" style="stroke:#A80036;stroke-width:1.5;" width="4" x="185.5" y="495"/><rect fill="#90EE90" height="2" style="stroke:#A80036;stroke-width:1.5;" width="4" x="185.5" y="499"/><text fill="#000000" font-family="sans-serif" font-size="14" lengthAdjust="spacing" textLength="28" x="87.5" y="520.9951">UAT</text><text fill="#000000" font-family="sans-serif" font-size="14" lengthAdjust="spacing" textLength="95" x="87.5" y="537.292">w3uatapache</text><text fill="#000000" font-family="sans-serif" font-size="14" lengthAdjust="spacing" textLength="54" x="87.5" y="553.5889">Apache</text><!--MD5=[54c94e0b3c62fc366320b787f8825a5e]
entity DEV\nacceleratordevapache\nApache--><rect fill="#90EE90" filter="url(#f17i0no6trac3p)" height="78.8906" style="stroke:#A80036;stroke-width:1.5;" width="200" x="243" y="488"/><rect fill="#90EE90" height="10" style="stroke:#A80036;stroke-width:1.5;" width="15" x="423" y="493"/><rect fill="#90EE90" height="2" style="stroke:#A80036;stroke-width:1.5;" width="4" x="421" y="495"/><rect fill="#90EE90" height="2" style="stroke:#A80036;stroke-width:1.5;" width="4" x="421" y="499"/><text fill="#000000" font-family="sans-serif" font-size="14" lengthAdjust="spacing" textLength="30" x="258" y="520.9951">DEV</text><text fill="#000000" font-family="sans-serif" font-size="14" lengthAdjust="spacing" textLength="160" x="258" y="537.292">acceleratordevapache</text><text fill="#000000" font-family="sans-serif" font-size="14" lengthAdjust="spacing" textLength="54" x="258" y="553.5889">Apache</text><!--MD5=[f03eba40738cc0a62a84eb1112b2cb1a]
entity DEV\nw3devapache\nApache--><rect fill="#90EE90" filter="url(#f17i0no6trac3p)" height="78.8906" style="stroke:#A80036;stroke-width:1.5;" width="138" x="478" y="488"/><rect fill="#90EE90" height="10" style="stroke:#A80036;stroke-width:1.5;" width="15" x="596" y="493"/><rect fill="#90EE90" height="2" style="stroke:#A80036;stroke-width:1.5;" width="4" x="594" y="495"/><rect fill="#90EE90" height="2" style="stroke:#A80036;stroke-width:1.5;" width="4" x="594" y="499"/><text fill="#000000" font-family="sans-serif" font-size="14" lengthAdjust="spacing" textLength="30" x="493" y="520.9951">DEV</text><text fill="#000000" font-family="sans-serif" font-size="14" lengthAdjust="spacing" textLength="98" x="493" y="537.292">w3devapache</text><text fill="#000000" font-family="sans-serif" font-size="14" lengthAdjust="spacing" textLength="54" x="493" y="553.5889">Apache</text><!--MD5=[1be274a186b8f59f5ce960b0dfd08aa3]
entity homekeyapache\nApache--><rect fill="#90EE90" filter="url(#f17i0no6trac3p)" height="62.5938" style="stroke:#A80036;stroke-width:1.5;" width="159" x="72.5" y="654"/><rect fill="#90EE90" height="10" style="stroke:#A80036;stroke-width:1.5;" width="15" x="211.5" y="659"/><rect fill="#90EE90" height="2" style="stroke:#A80036;stroke-width:1.5;" width="4" x="209.5" y="661"/><rect fill="#90EE90" height="2" style="stroke:#A80036;stroke-width:1.5;" width="4" x="209.5" y="665"/><text fill="#000000" font-family="sans-serif" font-size="14" lengthAdjust="spacing" textLength="119" x="87.5" y="686.9951">homekeyapache</text><text fill="#000000" font-family="sans-serif" font-size="14" lengthAdjust="spacing" textLength="54" x="87.5" y="703.292">Apache</text><!--MD5=[ab65927b89a78ead7c4abdd01bbfc3c4]
entity nofaappdb\nMySql Server--><path d="M266.5,664.5 C266.5,654.5 323,654.5 323,654.5 C323,654.5 379.5,654.5 379.5,664.5 L379.5,706.0938 C379.5,716.0938 323,716.0938 323,716.0938 C323,716.0938 266.5,716.0938 266.5,706.0938 L266.5,664.5 " fill="#90EE90" filter="url(#f17i0no6trac3p)" style="stroke:#000000;stroke-width:1.5;"/><path d="M266.5,664.5 C266.5,674.5 323,674.5 323,674.5 C323,674.5 379.5,674.5 379.5,664.5 " fill="none" style="stroke:#000000;stroke-width:1.5;"/><text fill="#000000" font-family="sans-serif" font-size="14" lengthAdjust="spacing" textLength="79" x="276.5" y="691.4951">nofaappdb</text><text fill="#000000" font-family="sans-serif" font-size="14" lengthAdjust="spacing" textLength="93" x="276.5" y="707.792">MySql Server</text><!--MD5=[f1029a836c3e0e96955f50597346b879]
entity nofaapache\nApache--><rect fill="#90EE90" filter="url(#f17i0no6trac3p)" height="62.5938" style="stroke:#A80036;stroke-width:1.5;" width="124" x="503" y="137"/><rect fill="#90EE90" height="10" style="stroke:#A80036;stroke-width:1.5;" width="15" x="607" y="142"/><rect fill="#90EE90" height="2" style="stroke:#A80036;stroke-width:1.5;" width="4" x="605" y="144"/><rect fill="#90EE90" height="2" style="stroke:#A80036;stroke-width:1.5;" width="4" x="605" y="148"/><text fill="#000000" font-family="sans-serif" font-size="14" lengthAdjust="spacing" textLength="84" x="518" y="169.9951">nofaapache</text><text fill="#000000" font-family="sans-serif" font-size="14" lengthAdjust="spacing" textLength="54" x="518" y="186.292">Apache</text><!--MD5=[18c62cdb2a03236102bf1669650da9bf]
entity nofadfa\nJBoss WildFly--><rect fill="#90EE90" filter="url(#f17i0no6trac3p)" height="62.5938" style="stroke:#A80036;stroke-width:1.5;" width="132" x="662" y="137"/><rect fill="#90EE90" height="10" style="stroke:#A80036;stroke-width:1.5;" width="15" x="774" y="142"/><rect fill="#90EE90" height="2" style="stroke:#A80036;stroke-width:1.5;" width="4" x="772" y="144"/><rect fill="#90EE90" height="2" style="stroke:#A80036;stroke-width:1.5;" width="4" x="772" y="148"/><text fill="#000000" font-family="sans-serif" font-size="14" lengthAdjust="spacing" textLength="55" x="677" y="169.9951">nofadfa</text><text fill="#000000" font-family="sans-serif" font-size="14" lengthAdjust="spacing" textLength="92" x="677" y="186.292">JBoss WildFly</text><!--MD5=[0c58f8c8cea1f86e841efec633281e27]
entity keycloakd\nJBoss WildFly--><rect fill="#90EE90" filter="url(#f17i0no6trac3p)" height="62.5938" style="stroke:#A80036;stroke-width:1.5;" width="132" x="503" y="277"/><rect fill="#90EE90" height="10" style="stroke:#A80036;stroke-width:1.5;" width="15" x="615" y="282"/><rect fill="#90EE90" height="2" style="stroke:#A80036;stroke-width:1.5;" width="4" x="613" y="284"/><rect fill="#90EE90" height="2" style="stroke:#A80036;stroke-width:1.5;" width="4" x="613" y="288"/><text fill="#000000" font-family="sans-serif" font-size="14" lengthAdjust="spacing" textLength="73" x="518" y="309.9951">keycloakd</text><text fill="#000000" font-family="sans-serif" font-size="14" lengthAdjust="spacing" textLength="92" x="518" y="326.292">JBoss WildFly</text><!--MD5=[d6767e18d8ac9eb1f33eedf09a03a35b]
entity dbdel--><path d="M929.5,506.5 C929.5,496.5 1005,496.5 1005,496.5 C1005,496.5 1080.5,496.5 1080.5,506.5 L1080.5,548.0938 C1080.5,558.0938 1005,558.0938 1005,558.0938 C1005,558.0938 929.5,558.0938 929.5,548.0938 L929.5,506.5 " fill="#90EE90" filter="url(#f17i0no6trac3p)" style="stroke:#000000;stroke-width:1.5;"/><path d="M929.5,506.5 C929.5,516.5 1005,516.5 1005,516.5 C1005,516.5 1080.5,516.5 1080.5,506.5 " fill="none" style="stroke:#000000;stroke-width:1.5;"/><text fill="#000000" font-family="sans-serif" font-size="14" lengthAdjust="spacing" textLength="131" x="939.5" y="533.4951">mysql-hcdwebsite</text><text fill="#000000" font-family="sans-serif" font-size="14" lengthAdjust="spacing" textLength="93" x="939.5" y="549.792">MySql Server</text><!--MD5=[509856053371b1c80611ecf582e71b89]
entity mysql-hcddeloitte\nMySql Server--><path d="M742,506.5 C742,496.5 818,496.5 818,496.5 C818,496.5 894,496.5 894,506.5 L894,548.0938 C894,558.0938 818,558.0938 818,558.0938 C818,558.0938 742,558.0938 742,548.0938 L742,506.5 " fill="#90EE90" filter="url(#f17i0no6trac3p)" style="stroke:#000000;stroke-width:1.5;"/><path d="M742,506.5 C742,516.5 818,516.5 818,516.5 C818,516.5 894,516.5 894,506.5 " fill="none" style="stroke:#000000;stroke-width:1.5;"/><text fill="#000000" font-family="sans-serif" font-size="14" lengthAdjust="spacing" textLength="132" x="752" y="533.4951">mysql-hcddeloitte</text><text fill="#000000" font-family="sans-serif" font-size="14" lengthAdjust="spacing" textLength="93" x="752" y="549.792">MySql Server</text><!--MD5=[4b4822bdeaab43e665222ecdeb4fd7d2]
entity dbhcd--><rect fill="#90EE90" filter="url(#f17i0no6trac3p)" height="62.5938" style="stroke:#A80036;stroke-width:1.5;" width="171" x="1188.5" y="496"/><rect fill="#90EE90" height="10" style="stroke:#A80036;stroke-width:1.5;" width="15" x="1339.5" y="501"/><rect fill="#90EE90" height="2" style="stroke:#A80036;stroke-width:1.5;" width="4" x="1337.5" y="503"/><rect fill="#90EE90" height="2" style="stroke:#A80036;stroke-width:1.5;" width="4" x="1337.5" y="507"/><text fill="#000000" font-family="sans-serif" font-size="14" lengthAdjust="spacing" textLength="131" x="1203.5" y="528.9951">mysql-hcdwebsite</text><text fill="#000000" font-family="sans-serif" font-size="14" lengthAdjust="spacing" textLength="93" x="1203.5" y="545.292">MySql Server</text><!--MD5=[eacff2bcda271cacec8e19a7023dc42d]
link docker to netb--><path d="M884.49,331.625 C866.106,348.167 838.575,369.64 810,380 C785.083,389.034 711.636,371.368 691,388 C678.7235,397.8948 670.0669,411.3073 663.992,425.907 C662.4732,429.5569 661.1158,433.2811 659.9036,437.043 C659.6005,437.9834 659.3066,438.9263 659.0214,439.8709 " fill="none" id="docker-to-netb" style="stroke:#A80036;stroke-width:1.0;stroke-dasharray:7.0,7.0;"/><polygon fill="#A80036" points="659.0214,439.8709,665.4517,432.411,660.4664,435.0843,657.7931,430.0989,659.0214,439.8709" style="stroke:#A80036;stroke-width:1.0;"/><text fill="#000000" font-family="sans-serif" font-size="13" lengthAdjust="spacing" textLength="48" x="692" y="401.0669">creates</text><!--MD5=[29c3e3c4f73cb16d06607d4175a05640]
link docker to netd--><path d="M880.165,331.709 C861.318,346.614 835.091,366.007 810,380 C784.411,394.271 776.402,394.628 749,405 C738.878,408.831 732.98,404.729 726,413 C721.941,417.8095 718.5932,423.1539 715.8431,428.8286 C715.1556,430.2473 714.5054,431.6867 713.8908,433.1435 C713.5835,433.8719 713.2851,434.6046 712.9953,435.3414 C712.8505,435.7097 712.7078,436.0791 712.5672,436.4494 C712.4969,436.6345 712.4272,436.8199 712.358,437.0055 " fill="none" id="docker-to-netd" style="stroke:#A80036;stroke-width:1.0;stroke-dasharray:7.0,7.0;"/><polygon fill="#A80036" points="712.358,437.0055,719.2504,429.9703,714.1049,432.3206,711.7545,427.1752,712.358,437.0055" style="stroke:#A80036;stroke-width:1.0;"/><text fill="#000000" font-family="sans-serif" font-size="13" lengthAdjust="spacing" textLength="48" x="796" y="401.0669">creates</text><!--MD5=[7b5782f1a2de0f813559a54ae50537c6]
reverse link netf to docker--><path d="M837.1969,184.0013 C837.2685,184.1279 837.3404,184.2551 837.4127,184.383 C837.5572,184.6388 837.7033,184.8972 837.8509,185.1583 C838.146,185.6804 838.447,186.213 838.7537,186.7556 C839.3671,187.8408 840.0031,188.9661 840.66,190.1282 C841.9737,192.4526 843.3707,194.9242 844.8362,197.517 C847.7671,202.7025 850.9718,208.3723 854.3314,214.3163 C867.7697,238.092 883.687,266.2535 894.479,285.347 " fill="none" id="netf-backto-docker" style="stroke:#A80036;stroke-width:1.0;stroke-dasharray:7.0,7.0;"/><polygon fill="#A80036" points="837.1969,184.0013,838.1432,193.8046,839.6572,188.3541,845.1077,189.8682,837.1969,184.0013" style="stroke:#A80036;stroke-width:1.0;"/><text fill="#000000" font-family="sans-serif" font-size="13" lengthAdjust="spacing" textLength="48" x="874" y="243.0669">creates</text><!--MD5=[9039504b9cf1cbbc3b6e30d78d16c2cd]
link docker to neth--><path d="M953.15,325.351 C995.131,341.735 1056.54,370.871 1097,413 C1116.175,432.9685 1130.04,460.7758 1139.1775,483.8681 C1140.3197,486.7547 1141.388,489.5675 1142.3836,492.2822 C1142.8814,493.6396 1143.361,494.9724 1143.8226,496.2776 C1144.0534,496.9302 1144.2796,497.5758 1144.5014,498.2142 C1144.6123,498.5334 1144.7221,498.8508 1144.8307,499.1663 C1144.8851,499.3241 1144.9391,499.4814 1144.9929,499.6382 " fill="none" id="docker-to-neth" style="stroke:#A80036;stroke-width:1.0;stroke-dasharray:7.0,7.0;"/><polygon fill="#A80036" points="1144.9929,499.6382,1145.8578,489.8274,1143.3713,494.9085,1138.2902,492.4219,1144.9929,499.6382" style="stroke:#A80036;stroke-width:1.0;"/><text fill="#000000" font-family="sans-serif" font-size="13" lengthAdjust="spacing" textLength="48" x="1089" y="401.0669">creates</text><!--MD5=[6ed711b9d59a5a1e16c0cf46172e6f65]
link netb to fpumpkin--><path d="M659.0742,552.0197 C659.1646,552.2367 659.2557,552.4544 659.3477,552.6729 C659.5315,553.1099 659.7186,553.55 659.9089,553.9929 C660.2894,554.8787 660.6827,555.7759 661.089,556.6824 C667.5893,571.1858 677.399,588.068 691,599 C740.368,638.681 911.628,663.777 1017.49,675.879 " fill="none" id="netb-to-fpumpkin" style="stroke:#A80036;stroke-width:1.0;"/><polygon fill="#A80036" points="1022.48,676.446,1013.9961,671.4436,1017.5128,675.8746,1013.0818,679.3912,1022.48,676.446" style="stroke:#A80036;stroke-width:1.0;"/><text fill="#000000" font-family="sans-serif" font-size="13" lengthAdjust="spacing" textLength="49" x="737" y="620.0669">mounts</text><!--MD5=[6f53a3b0d2952d92c6def73ae56cb15d]
link netd to fpumpkin--><path d="M713.9343,582.6702 C714.3436,583.563 714.7742,584.4444 715.2269,585.3123 C716.1324,587.0481 717.1269,588.7298 718.2185,590.3398 C720.4018,593.5598 722.9738,596.4933 726,599 C735.011,606.464 819.481,604.948 831,607 C896.682,618.703 969.262,639.709 1023.07,656.902 " fill="none" id="netd-to-fpumpkin" style="stroke:#A80036;stroke-width:1.0;"/><polygon fill="#A80036" points="1027.88,658.448,1020.5334,651.8884,1023.1193,656.9197,1018.0881,659.5056,1027.88,658.448" style="stroke:#A80036;stroke-width:1.0;"/><text fill="#000000" font-family="sans-serif" font-size="13" lengthAdjust="spacing" textLength="49" x="909" y="620.0669">mounts</text><!--MD5=[9fbed3233bfbcc650cfbdc12ff46d95b]
link netf to fpumpkin--><path d="M837.372,170.0575 C838.3613,170.1319 839.4337,170.2149 840.5867,170.3072 C842.8929,170.4918 845.5216,170.7137 848.4534,170.9782 C860.1803,172.0363 876.755,173.7772 896.9197,176.549 C937.2493,182.0928 991.9394,191.7604 1050.9301,208.3376 C1168.9115,241.492 1304.095,302.2845 1376,413 C1421.03,482.329 1424.91,532.355 1376,599 C1353.69,629.397 1261.61,653.895 1190.7,668.75 " fill="none" id="netf-to-fpumpkin" style="stroke:#A80036;stroke-width:1.0;"/><polygon fill="#A80036" points="1185.63,669.802,1195.2543,671.893,1190.526,668.7876,1193.6314,664.0593,1185.63,669.802" style="stroke:#A80036;stroke-width:1.0;"/><text fill="#000000" font-family="sans-serif" font-size="13" lengthAdjust="spacing" textLength="49" x="1370" y="401.0669">mounts</text><!--MD5=[9f6116eacc69f62e041c5f4ca86fe243]
link neth to fpumpkin--><path d="M1144.8814,554.3407 C1144.8302,554.5036 1144.7788,554.6671 1144.7273,554.8312 C1144.6243,555.1593 1144.5205,555.4897 1144.4161,555.8222 C1144.2073,556.4871 1143.9957,557.1608 1143.7816,557.8427 C1142.0684,563.2981 1140.1891,569.2822 1138.2088,575.5879 C1130.2875,600.8105 1120.75,631.178 1113.76,653.432 " fill="none" id="neth-to-fpumpkin" style="stroke:#A80036;stroke-width:1.0;"/><polygon fill="#A80036" points="1112.19,658.428,1118.703,651.0401,1113.6882,653.6577,1111.0706,648.643,1112.19,658.428" style="stroke:#A80036;stroke-width:1.0;"/><text fill="#000000" font-family="sans-serif" font-size="13" lengthAdjust="spacing" textLength="49" x="1128" y="620.0669">mounts</text><!--MD5=[9b3dc1a9a6bb0359100a615e852491a6]
link UAT\nw3uatapache\nApache to DEV\nacceleratordevapache\nApache--><!--MD5=[63890027b848c701c6eaeada8a2a56d0]
link DEV\nacceleratordevapache\nApache to DEV\nw3devapache\nApache--><!--MD5=[27ddca72f7ad617bad79c9c891645551]
link UAT\nw3uatapache\nApache to homekeyapache\nApache--><!--MD5=[b850e1eeeebab7e8511a80884a138331]
link homekeyapache\nApache to nofaappdb\nMySql Server--><!--MD5=[281c24dcb088d030ece243abb0146c87]
link nofaapache\nApache to nofadfa\nJBoss WildFly--><!--MD5=[992429ded5a9b6a6177cf01bd879c91e]
link nofaapache\nApache to keycloakd\nJBoss WildFly--><rect fill="#DDDDDD" height="62.8906" rx="5" ry="5" style="stroke:#000000;stroke-width:1.0;" width="159" x="635" y="787"/><text fill="#000000" filter="url(#b17i0no6trac3p0)" font-family="sans-serif" font-size="14" font-weight="bold" lengthAdjust="spacing" textLength="99" x="641" y="806.9951">Linux Server</text><text fill="#000000" filter="url(#b17i0no6trac3p1)" font-family="sans-serif" font-size="14" font-weight="bold" lengthAdjust="spacing" textLength="139" x="641" y="823.292">Docker Container</text><text fill="#000000" filter="url(#b17i0no6trac3p2)" font-family="sans-serif" font-size="14" font-weight="bold" lengthAdjust="spacing" textLength="127" x="641" y="839.5889">Docker Network</text><line style="stroke:#000000;stroke-width:1.0;" x1="641" x2="788" y1="794" y2="794"/><line style="stroke:#000000;stroke-width:1.0;" x1="641" x2="788" y1="810.2969" y2="810.2969"/><line style="stroke:#000000;stroke-width:1.0;" x1="641" x2="788" y1="826.5938" y2="826.5938"/><line style="stroke:#000000;stroke-width:1.0;" x1="641" x2="788" y1="842.8906" y2="842.8906"/><line style="stroke:#000000;stroke-width:1.0;" x1="641" x2="641" y1="794" y2="842.8906"/><line style="stroke:#000000;stroke-width:1.0;" x1="788" x2="788" y1="794" y2="842.8906"/><!--MD5=[093086b6674814184982014acf115dbf]
@startuml
'!theme sketchy-outline
hide stereotype

'skinparam linetype ortho
 
legend
|<back:AliceBlue><b>Linux Server   </b></back>|
|<back:LightGreen><b>Docker Container</b></back>|
|<back:SeaShell><b>Docker Network    </b></back>|
endlegend

'title "HCD DEV/TEST Web/Drupal Deployment" 
   
node "pumpkin\nOracle Linux 8.5" <<i>> as pumpkin8 #AliceBlue {

component "Docker" as docker  

folder "pumkin filesystem" as fpumpkin

cloud "bridge\nDocker Network" as netb #SeaShell {
    component "UAT\nw3uatapache\nApache" #LightGreen
    component "DEV\nacceleratordevapache\nApache" #LightGreen
    component "DEV\nw3devapache\nApache" #LightGreen
    component "homekeyapache\nApache" #LightGreen
    database "nofaappdb\nMySql Server" #LightGreen
}

cloud "nofadfa\nDocker Network"   as netf #SeaShell {
    component "nofaapache\nApache" #LightGreen
    component "nofadfa\nJBoss WildFly" #LightGreen
    component "keycloakd\nJBoss WildFly" #LightGreen

}
  
cloud "hcddeloitte-network\nDocker Network"  as netd #SeaShell {
    database "mysql-hcdwebsite\nMySql Server" as dbdel #LightGreen
    database "mysql-hcddeloitte\nMySql Server" #LightGreen
}

cloud "hcdwebsite-network\nDocker Network"  as neth #SeaShell {
    component "mysql-hcdwebsite\nMySql Server" as dbhcd #LightGreen
}

docker .down.> netb :creates
docker ..> netd :creates
docker .up.> netf :creates
docker ..> neth :creates

netb - -> fpumpkin :mounts
netd - -> fpumpkin :mounts
netf - -> fpumpkin :mounts
neth - -> fpumpkin :mounts
@enduml

@startuml
hide stereotype

 
legend
|<back:AliceBlue><b>Linux Server   </b></back>|
|<back:LightGreen><b>Docker Container</b></back>|
|<back:SeaShell><b>Docker Network    </b></back>|
endlegend

   
node "pumpkin\nOracle Linux 8.5" <<i>> as pumpkin8 #AliceBlue {

component "Docker" as docker  

folder "pumkin filesystem" as fpumpkin

cloud "bridge\nDocker Network" as netb #SeaShell {
    component "UAT\nw3uatapache\nApache" #LightGreen
    component "DEV\nacceleratordevapache\nApache" #LightGreen
    component "DEV\nw3devapache\nApache" #LightGreen
    component "homekeyapache\nApache" #LightGreen
    database "nofaappdb\nMySql Server" #LightGreen
}

cloud "nofadfa\nDocker Network"   as netf #SeaShell {
    component "nofaapache\nApache" #LightGreen
    component "nofadfa\nJBoss WildFly" #LightGreen
    component "keycloakd\nJBoss WildFly" #LightGreen

}
  
cloud "hcddeloitte-network\nDocker Network"  as netd #SeaShell {
    database "mysql-hcdwebsite\nMySql Server" as dbdel #LightGreen
    database "mysql-hcddeloitte\nMySql Server" #LightGreen
}

cloud "hcdwebsite-network\nDocker Network"  as neth #SeaShell {
    component "mysql-hcdwebsite\nMySql Server" as dbhcd #LightGreen
}

docker .down.> netb :creates
docker ..> netd :creates
docker .up.> netf :creates
docker ..> neth :creates

netb - -> fpumpkin :mounts
netd - -> fpumpkin :mounts
netf - -> fpumpkin :mounts
neth - -> fpumpkin :mounts
@enduml

PlantUML version 1.2021.16beta3(Unknown compile time)
(GPL source distribution)
Java Runtime: Java(TM) SE Runtime Environment
JVM: Java HotSpot(TM) 64-Bit Server VM
Default Encoding: UTF-8
Language: en
Country: US
--></g></svg>