<?xml version="1.0" encoding="UTF-8" standalone="no"?><svg xmlns="http://www.w3.org/2000/svg" xmlns:xlink="http://www.w3.org/1999/xlink" contentScriptType="application/ecmascript" contentStyleType="text/css" height="539px" preserveAspectRatio="none" style="width:637px;height:539px;background:#FFFFFF;" version="1.1" viewBox="0 0 637 539" width="637px" zoomAndPan="magnify"><defs><filter height="300%" id="fnzc94dl85y31" width="300%" x="-1" y="-1"><feGaussianBlur result="blurOut" stdDeviation="2.0"/><feColorMatrix in="blurOut" result="blurOut2" type="matrix" values="0 0 0 0 0 0 0 0 0 0 0 0 0 0 0 0 0 0 .4 0"/><feOffset dx="4.0" dy="4.0" in="blurOut2" result="blurOut3"/><feBlend in="SourceGraphic" in2="blurOut3" mode="normal"/></filter><filter height="1" id="bnzc94dl85y310" width="1" x="0" y="0"><feFlood flood-color="#F0F8FF" result="flood"/><feComposite in="SourceGraphic" in2="flood" operator="over"/></filter><filter height="1" id="bnzc94dl85y311" width="1" x="0" y="0"><feFlood flood-color="#90EE90" result="flood"/><feComposite in="SourceGraphic" in2="flood" operator="over"/></filter><filter height="1" id="bnzc94dl85y312" width="1" x="0" y="0"><feFlood flood-color="#FFF5EE" result="flood"/><feComposite in="SourceGraphic" in2="flood" operator="over"/></filter></defs><g><!--MD5=[d3013eb309a248c62385093ffd2add38]
cluster pumpkin8--><polygon fill="#F0F8FF" filter="url(#fnzc94dl85y31)" points="16,16,26,6,620,6,620,437,610,447,16,447,16,16" style="stroke:#000000;stroke-width:1.5;"/><line style="stroke:#000000;stroke-width:1.5;" x1="610" x2="620" y1="16" y2="6"/><line style="stroke:#000000;stroke-width:1.5;" x1="16" x2="610" y1="16" y2="16"/><line style="stroke:#000000;stroke-width:1.5;" x1="610" x2="610" y1="16" y2="447"/><text fill="#000000" font-family="sans-serif" font-size="14" font-weight="bold" lengthAdjust="spacing" textLength="69" x="279.5" y="31.9951">pumpkin</text><text fill="#000000" font-family="sans-serif" font-size="14" font-weight="bold" lengthAdjust="spacing" textLength="130" x="249" y="48.292">Oracle Linux 8.5</text><!--MD5=[9a94f770f109c26fb3b3ff4801d32707]
cluster hcddeloitte-network--><path d="M57.8036,81.3148 C69.0493,60.3796 82.422,63.0955 96.1364,78.7268 C109.7387,58.7524 123.8375,60.4118 134.3113,81.6264 C145.2647,67.4872 155.9552,65.3938 167.8861,80.5044 C178.6717,62.0796 198.6291,61.4819 209.1473,80.7967 C216.1324,62.1462 232.6464,62.4386 244.3298,75.6005 C254.8382,59.4888 272.1883,56.7542 281.2882,77.0309 C292.7901,57.1204 310.4364,58.2499 322.9926,75.8589 C332.018,60.4004 348.1879,61.7168 357.2029,75.8709 C369.5886,60.4884 382.3681,57.8973 393.5577,77.1273 C408.0229,60.5317 423.8919,59.1362 435.5098,80.2914 C444.649,63.786 457.4978,64.4568 469.3038,77.2114 C481.0218,56.48 496.6086,59.6435 508.9433,76.5622 C522.2116,60.6344 537.1349,62.0411 548.1929,79.1854 C563.0002,61.8109 579.1515,61.5803 588,85 C590.8006,84.441 592.072,85.7266 591.6749,88.5128 C610.5385,96.2709 610.9613,111.8856 595.6582,123.5303 C613.6907,134.5392 613.8386,147.1061 598.2643,160.485 C613.8165,171.9464 618.9264,186.4869 598.9886,198.6223 C614.6493,209.6656 613.8432,222.3719 599.8839,234.1613 C612.2354,246.5054 614.9069,257.7567 596.7691,267.2288 C609.6377,286.7824 604.5806,301.271 581,306 C583.5546,303.5326 586.2853,303.5139 587.5413,307.348 C574.5195,327.3955 561.1995,331.0109 543.9377,312.0927 C535.0412,330.2548 523.2131,330.4363 511.5466,314.743 C497.6494,330.8251 483.8714,335.8048 470.9303,313.7255 C461.0242,332.2009 447.413,329.9107 436.286,314.9921 C424.3029,334.0607 404.6117,329.885 395.2651,312.0605 C385.5964,327.3056 371.3707,328.7519 361.2886,312.5064 C347.1182,333.3707 333.304,334.5885 318.6604,312.9813 C313.3548,331.7213 298.6159,333.4236 287.2809,318.6222 C271.4222,336.5066 258.8008,335.0615 245.6471,315.6061 C234.1259,333.1678 221.2425,331.5513 210.3059,315.0005 C194.5131,334.3035 181.6158,332.3327 169.3617,311.3996 C157.3993,327.3974 144.2618,325.9527 133.4901,310.0603 C119.8385,327.0399 104.266,328.8883 92.7398,307.786 C73.0308,325.6919 59.8797,320.9625 48,299 C50.9325,297.9444 53.3648,299.19 53.092,302.6303 C30.5536,290.9127 32.9259,278.5981 49.7853,263.5473 C34.2933,251.6735 36.8027,238.86 51.4841,228.4465 C35.0015,218.9639 31.4078,205.2983 49.1436,193.5225 C32.4746,186.7371 30.3588,171.7831 44.7446,160.8203 C29.9775,147.3124 33.4688,131.2058 51.9277,124.2183 C32.0308,109.2503 30.2934,90.003 55,78 C57.29,77.7384 58.4633,79.0815 57.8036,81.3148 " fill="#FFF5EE" filter="url(#fnzc94dl85y31)" style="stroke:#000000;stroke-width:1.5;"/><text fill="#000000" font-family="sans-serif" font-size="14" font-weight="bold" lengthAdjust="spacing" textLength="165" x="235.5" y="95.9951">hcddeloitte-network</text><!--MD5=[2d14c428eeb5bd833e4ad19faf03800f]
cluster dockdel--><rect fill="#90EE90" filter="url(#fnzc94dl85y31)" height="161" style="stroke:#000000;stroke-width:1.5;" width="229" x="72" y="121"/><rect fill="#90EE90" height="10" style="stroke:#000000;stroke-width:1.5;" width="15" x="281" y="126"/><rect fill="#90EE90" height="2" style="stroke:#000000;stroke-width:1.5;" width="4" x="279" y="128"/><rect fill="#90EE90" height="2" style="stroke:#000000;stroke-width:1.5;" width="4" x="279" y="132"/><text fill="#000000" font-family="sans-serif" font-size="14" font-weight="bold" lengthAdjust="spacing" textLength="83" x="145" y="146.9951">cddeloitte</text><!--MD5=[78eabb6f004e17abe306d1734813ed15]
cluster dockdelweb--><rect fill="#90EE90" filter="url(#fnzc94dl85y31)" height="145" style="stroke:#000000;stroke-width:1.5;" width="223" x="341" y="129"/><rect fill="#90EE90" height="10" style="stroke:#000000;stroke-width:1.5;" width="15" x="544" y="134"/><rect fill="#90EE90" height="2" style="stroke:#000000;stroke-width:1.5;" width="4" x="542" y="136"/><rect fill="#90EE90" height="2" style="stroke:#000000;stroke-width:1.5;" width="4" x="542" y="140"/><text fill="#000000" font-family="sans-serif" font-size="14" font-weight="bold" lengthAdjust="spacing" textLength="146" x="379.5" y="154.9951">mysql-hcdwebsite</text><!--MD5=[6b0daa26e76a1c1dd38dc04f8acac630]
entity fdel--><polygon fill="#F0F8FF" filter="url(#fnzc94dl85y31)" points="32.5,377,78.5,377,85.5,398,151.5,398,151.5,431.2969,32.5,431.2969,32.5,377" style="stroke:#000000;stroke-width:1.5;"/><line style="stroke:#000000;stroke-width:1.5;" x1="32.5" x2="85.5" y1="398" y2="398"/><text fill="#000000" font-family="sans-serif" font-size="14" lengthAdjust="spacing" textLength="89" x="42.5" y="417.9951">/hcddeloitte</text><!--MD5=[69d22d8d5f2a3a76e9239a1742163302]
entity fdelweb--><polygon fill="#F0F8FF" filter="url(#fnzc94dl85y31)" points="290,377,336,377,343,398,408,398,408,431.2969,290,431.2969,290,377" style="stroke:#000000;stroke-width:1.5;"/><line style="stroke:#000000;stroke-width:1.5;" x1="290" x2="343" y1="398" y2="398"/><text fill="#000000" font-family="sans-serif" font-size="14" lengthAdjust="spacing" textLength="88" x="300" y="417.9951">/hcdwebsite</text><!--MD5=[d6767e18d8ac9eb1f33eedf09a03a35b]
entity dbdel--><path d="M115,174 C115,164 196,164 196,164 C196,164 277,164 277,174 L277,248.1875 C277,258.1875 196,258.1875 196,258.1875 C196,258.1875 115,258.1875 115,248.1875 L115,174 " fill="#FEFECE" filter="url(#fnzc94dl85y31)" style="stroke:#000000;stroke-width:1.5;"/><path d="M115,174 C115,184 196,184 196,184 C196,184 277,184 277,174 " fill="none" style="stroke:#000000;stroke-width:1.5;"/><text fill="#000000" font-family="sans-serif" font-size="14" lengthAdjust="spacing" textLength="93" x="125" y="200.9951">MySql Server</text><text fill="#000000" font-family="sans-serif" font-size="14" lengthAdjust="spacing" textLength="142" x="125" y="217.292">165.235.4.124:3306</text><text fill="#000000" font-family="sans-serif" font-size="14" lengthAdjust="spacing" textLength="97" x="125" y="233.5889">/var/lib/mysql</text><text fill="#000000" font-family="sans-serif" font-size="14" lengthAdjust="spacing" textLength="84" x="125" y="249.8857">user 'mysql'</text><!--MD5=[01e49cf60d0f4c265f2b6054eeec0604]
entity dbdelweb--><path d="M384.5,182 C384.5,172 462,172 462,172 C462,172 539.5,172 539.5,182 L539.5,239.8906 C539.5,249.8906 462,249.8906 462,249.8906 C462,249.8906 384.5,249.8906 384.5,239.8906 L384.5,182 " fill="#FEFECE" filter="url(#fnzc94dl85y31)" style="stroke:#000000;stroke-width:1.5;"/><path d="M384.5,182 C384.5,192 462,192 462,192 C462,192 539.5,192 539.5,182 " fill="none" style="stroke:#000000;stroke-width:1.5;"/><text fill="#000000" font-family="sans-serif" font-size="14" lengthAdjust="spacing" textLength="42" x="394.5" y="208.9951">MySql</text><text fill="#000000" font-family="sans-serif" font-size="14" lengthAdjust="spacing" textLength="135" x="394.5" y="225.292">165.235.4.56:3306</text><text fill="#000000" font-family="sans-serif" font-size="14" lengthAdjust="spacing" textLength="135" x="394.5" y="241.5889">/hcdwebsite/mysql</text><!--MD5=[90b761b067c88c337f7c3aff13b503f3]
link dockdel to fdel--><path d="M84.4017,282.0611 C84.4182,282.3235 84.4347,282.5862 84.4513,282.8491 C84.5173,283.9008 84.5837,284.9568 84.6503,286.0166 C84.9166,290.2555 85.1866,294.5539 85.4582,298.8761 C86.0013,307.5205 86.5504,316.2599 87.0874,324.8079 C88.1615,341.9039 89.1875,358.2343 90.0214,371.5078 " fill="none" id="dockdel-to-fdel" style="stroke:#A80036;stroke-width:1.0;stroke-dasharray:7.0,7.0;"/><polygon fill="#A80036" points="90.3539,376.7991,93.7813,367.5659,90.0402,371.809,85.7971,368.0678,90.3539,376.7991" style="stroke:#A80036;stroke-width:1.0;"/><text fill="#000000" font-family="sans-serif" font-size="13" lengthAdjust="spacing" textLength="49" x="90" y="343.0669">mounts</text><!--MD5=[573f3ba027ba1a9f3537dcd765ce0a77]
link dockdelweb to fdelweb--><path d="M349,274.2812 C349,274.5372 349,274.7935 349,275.0502 C349,275.5637 349,276.0785 349,276.5947 C349,277.627 349,278.6648 349,279.7074 C349,281.7926 349,283.8971 349,286.0166 C349,290.2555 349,294.5539 349,298.8761 C349,307.5205 349,316.2599 349,324.8079 C349,341.9039 349,358.2343 349,371.5078 " fill="none" id="dockdelweb-to-fdelweb" style="stroke:#A80036;stroke-width:1.0;stroke-dasharray:7.0,7.0;"/><polygon fill="#A80036" points="349,376.7991,353,367.7991,349,371.7991,345,367.7991,349,376.7991" style="stroke:#A80036;stroke-width:1.0;"/><text fill="#000000" font-family="sans-serif" font-size="13" lengthAdjust="spacing" textLength="49" x="350" y="343.0669">mounts</text><rect fill="#DDDDDD" height="62.8906" rx="5" ry="5" style="stroke:#000000;stroke-width:1.0;" width="159" x="232" y="461"/><text fill="#000000" filter="url(#bnzc94dl85y310)" font-family="sans-serif" font-size="14" font-weight="bold" lengthAdjust="spacing" textLength="99" x="238" y="480.9951">Linux Server</text><text fill="#000000" filter="url(#bnzc94dl85y311)" font-family="sans-serif" font-size="14" font-weight="bold" lengthAdjust="spacing" textLength="139" x="238" y="497.292">Docker Container</text><text fill="#000000" filter="url(#bnzc94dl85y312)" font-family="sans-serif" font-size="14" font-weight="bold" lengthAdjust="spacing" textLength="127" x="238" y="513.5889">Docker Network</text><line style="stroke:#000000;stroke-width:1.0;" x1="238" x2="385" y1="468" y2="468"/><line style="stroke:#000000;stroke-width:1.0;" x1="238" x2="385" y1="484.2969" y2="484.2969"/><line style="stroke:#000000;stroke-width:1.0;" x1="238" x2="385" y1="500.5938" y2="500.5938"/><line style="stroke:#000000;stroke-width:1.0;" x1="238" x2="385" y1="516.8906" y2="516.8906"/><line style="stroke:#000000;stroke-width:1.0;" x1="238" x2="238" y1="468" y2="516.8906"/><line style="stroke:#000000;stroke-width:1.0;" x1="385" x2="385" y1="468" y2="516.8906"/><!--MD5=[674fb9fbc01c08270ca9fa0c522b6f55]
@startuml
'!theme sketchy-outline
hide stereotype


legend
|<back:AliceBlue><b>Linux Server   </b></back>|
|<back:LightGreen><b>Docker Container</b></back>|
|<back:SeaShell><b>Docker Network    </b></back>|
endlegend

'title "HCD DEV/TEST Web/Drupal Deployment" 
   
   node "pumpkin\nOracle Linux 8.5" <<i>> as pumpkin8 #AliceBlue {

    ''''folders'''''

    folder "/hcddeloitte"  as fdel #AliceBlue{ 
    }

    folder "/hcdwebsite"  as fdelweb #AliceBlue{ 
    }

    
    '''''cloud'''''

'[
'  {
'    "Names": "mysql-hcdwebsite",
'    "Image": "mysql/mysql-server",
'    "Ports": "33060-33061/tcp, 165.235.4.124:6306->3306/tcp",
'    "Mounts": "/hcdwebsite/my…,/hcdwebsite/my…,/hcdwebsite/my…",
'    "Networks": "hcdwebsite-network",
'    "Command": "\"/entrypoint.sh mysq…\""
'  }
' 
'  {
'    "Names": "mysql-hcddeloitte",
'    "Image": "mysql/mysql-server",
'    "Ports": "33060-33061/tcp, 165.235.4.56:7306->3306/tcp",
'    "Mounts": "/hcddeloitte/m…,/hcddeloitte/m…,/hcddeloitte/m…",
'    "Networks": "hcddeloitte-network",
'    "Command": "\"/entrypoint.sh mysq…\""
'  }
']

    cloud "hcddeloitte-network" #SeaShell {

        component "cddeloitte" as dockdel #LightGreen {
            database "MySql Server\n165.235.4.124:3306\n/var/lib/mysql\nuser 'mysql'" as dbdel  
        }
        dockdel ..> fdel :mounts

        component "mysql-hcdwebsite" as dockdelweb #LightGreen {
            database "MySql\n165.235.4.56:3306\n/hcdwebsite/mysql" as dbdelweb  
        }
        dockdelweb ..> fdelweb :mounts

  }
@enduml

@startuml
hide stereotype


legend
|<back:AliceBlue><b>Linux Server   </b></back>|
|<back:LightGreen><b>Docker Container</b></back>|
|<back:SeaShell><b>Docker Network    </b></back>|
endlegend

   
   node "pumpkin\nOracle Linux 8.5" <<i>> as pumpkin8 #AliceBlue {


    folder "/hcddeloitte"  as fdel #AliceBlue{ 
    }

    folder "/hcdwebsite"  as fdelweb #AliceBlue{ 
    }

    


    cloud "hcddeloitte-network" #SeaShell {

        component "cddeloitte" as dockdel #LightGreen {
            database "MySql Server\n165.235.4.124:3306\n/var/lib/mysql\nuser 'mysql'" as dbdel  
        }
        dockdel ..> fdel :mounts

        component "mysql-hcdwebsite" as dockdelweb #LightGreen {
            database "MySql\n165.235.4.56:3306\n/hcdwebsite/mysql" as dbdelweb  
        }
        dockdelweb ..> fdelweb :mounts

  }
@enduml

PlantUML version 1.2021.16beta3(Unknown compile time)
(GPL source distribution)
Java Runtime: Java(TM) SE Runtime Environment
JVM: Java HotSpot(TM) 64-Bit Server VM
Default Encoding: UTF-8
Language: en
Country: US
--></g></svg>