<?xml version="1.0" encoding="UTF-8" standalone="no"?><svg xmlns="http://www.w3.org/2000/svg" xmlns:xlink="http://www.w3.org/1999/xlink" contentScriptType="application/ecmascript" contentStyleType="text/css" height="584px" preserveAspectRatio="none" style="width:1152px;height:584px;background:#FFFFFF;" version="1.1" viewBox="0 0 1152 584" width="1152px" zoomAndPan="magnify"><defs><filter height="300%" id="f14jk0x2nih63o" width="300%" x="-1" y="-1"><feGaussianBlur result="blurOut" stdDeviation="2.0"/><feColorMatrix in="blurOut" result="blurOut2" type="matrix" values="0 0 0 0 0 0 0 0 0 0 0 0 0 0 0 0 0 0 .4 0"/><feOffset dx="4.0" dy="4.0" in="blurOut2" result="blurOut3"/><feBlend in="SourceGraphic" in2="blurOut3" mode="normal"/></filter><filter height="1" id="b14jk0x2nih63o0" width="1" x="0" y="0"><feFlood flood-color="#F0F8FF" result="flood"/><feComposite in="SourceGraphic" in2="flood" operator="over"/></filter><filter height="1" id="b14jk0x2nih63o1" width="1" x="0" y="0"><feFlood flood-color="#90EE90" result="flood"/><feComposite in="SourceGraphic" in2="flood" operator="over"/></filter><filter height="1" id="b14jk0x2nih63o2" width="1" x="0" y="0"><feFlood flood-color="#FFF5EE" result="flood"/><feComposite in="SourceGraphic" in2="flood" operator="over"/></filter></defs><g><!--MD5=[d3013eb309a248c62385093ffd2add38]
cluster pumpkin8--><polygon fill="#F0F8FF" filter="url(#f14jk0x2nih63o)" points="34.8415,16,44.8415,6,1110.8415,6,1110.8415,482,1100.8415,492,34.8415,492,34.8415,16" style="stroke:#000000;stroke-width:1.5;"/><line style="stroke:#000000;stroke-width:1.5;" x1="1100.8415" x2="1110.8415" y1="16" y2="6"/><line style="stroke:#000000;stroke-width:1.5;" x1="34.8415" x2="1100.8415" y1="16" y2="16"/><line style="stroke:#000000;stroke-width:1.5;" x1="1100.8415" x2="1100.8415" y1="16" y2="492"/><text fill="#000000" font-family="sans-serif" font-size="14" font-weight="bold" lengthAdjust="spacing" textLength="69" x="534.3415" y="31.9951">pumpkin</text><text fill="#000000" font-family="sans-serif" font-size="14" font-weight="bold" lengthAdjust="spacing" textLength="130" x="503.8415" y="48.292">Oracle Linux 8.5</text><!--MD5=[a37af7295432f24b1d645413d9ad9b12]
cluster /opt--><polygon fill="#F0F8FF" filter="url(#f14jk0x2nih63o)" points="205.8415,363,244.8415,363,251.8415,385.2969,702.8415,385.2969,702.8415,468,205.8415,468,205.8415,363" style="stroke:#000000;stroke-width:1.5;"/><line style="stroke:#000000;stroke-width:1.5;" x1="205.8415" x2="251.8415" y1="385.2969" y2="385.2969"/><text fill="#000000" font-family="sans-serif" font-size="14" font-weight="bold" lengthAdjust="spacing" textLength="33" x="209.8415" y="377.9951">/opt</text><!--MD5=[6793cac2da90ceffa9bed0306d63f7f7]
cluster bridge\nDocker Network\n165.235.4.0--><path d="M79.3458,86.4466 C103.6421,56.9359 133.1517,54.1459 154.7535,89.5755 C173.7233,60.6641 197.5201,52.7584 219.0857,86.9282 C241.7876,51.6691 274.4977,49.5683 297.927,86.1297 C317.5756,54.9696 343.21,50.6473 366.5502,82.0825 C386.6456,53.4617 417.8336,52.4938 435.4224,84.9108 C450.2537,49.9221 481.666,47.899 504.3258,76.417 C526.8112,40.6922 557.58,40.9783 575.071,81.0769 C597.528,52.7177 628.4021,50.1224 646.057,86.3545 C672.1254,47.4458 695.9384,48.5686 723.2292,85.104 C747.8578,53.7938 773.8263,54.0314 796.7681,87.0328 C813.1315,58.2395 838.971,57.2641 858.2221,83.827 C883.8774,51.346 912.812,53.0195 935.9844,86.7432 C955.7496,50.4674 980.1894,53.149 1003.5017,83.1285 C1024.1022,52.5356 1059.8647,50.228 1078.8415,85 C1087.4305,82.6604 1091.0046,85.4418 1090.0133,94.4401 C1145.4845,125.0028 1144.984,178.1132 1084.3481,202.5942 C1132.9834,241.7636 1124.4778,279.0791 1071.8415,306 C1075.8191,303.9772 1079.1443,306.3184 1078.8779,310.6785 C1059.0182,345.9029 1024.3071,342.3482 1004.9227,310.1572 C984.6263,351.2242 949.8118,345.1322 929.6092,310.0642 C910.1354,335.5454 892.546,343.3953 870.5513,312.7152 C845.0327,350.1627 816.4465,343.338 793.7554,309.6623 C780.1709,339.9714 750.0084,349.9131 728.2276,318.3418 C700.2562,351.4631 670.5522,354.0635 644.4526,316.1348 C627.4621,348.4225 601.4884,350.0378 580.1936,320.617 C562.2073,348.6877 532.3073,350.7521 512.904,322.304 C487.3776,353.5612 453.1165,351.2267 440.3199,309.6226 C423.3834,350.021 387.4213,354.8029 363.5116,316.4212 C342.6242,349.0553 316.6374,351.459 294.1226,318.1332 C272.2157,346.2321 238.7611,346.3031 223.78,310.5084 C204.5581,345.5206 179.6816,345.5314 157.3865,313.5544 C128.844,346.2246 83.2987,341.5143 66.8415,299 C71.2141,299.8662 72.8346,303.1946 70.163,306.9894 C22.0598,270.1239 28.3497,235.6297 74.0414,202.2369 C6,161.0003 7.9998,119.4521 73.8415,78 C79.722,78.3468 81.8006,80.6681 79.3458,86.4466 " fill="#FFF5EE" filter="url(#f14jk0x2nih63o)" style="stroke:#000000;stroke-width:1.5;"/><text fill="#000000" font-family="sans-serif" font-size="14" font-weight="bold" lengthAdjust="spacing" textLength="51" x="547.3415" y="95.9951">bridge</text><text fill="#000000" font-family="sans-serif" font-size="14" font-weight="bold" lengthAdjust="spacing" textLength="127" x="509.3415" y="112.292">Docker Network</text><text fill="#000000" font-family="sans-serif" font-size="14" font-weight="bold" lengthAdjust="spacing" textLength="95" x="525.3415" y="128.5889">165.235.4.0</text><!--MD5=[eb24e892ac88a232218916b9c7362ea7]
cluster docknfoaappdb--><rect fill="#90EE90" filter="url(#f14jk0x2nih63o)" height="145" style="stroke:#000000;stroke-width:1.5;" width="194" x="868.8415" y="145"/><rect fill="#90EE90" height="10" style="stroke:#000000;stroke-width:1.5;" width="15" x="1042.8415" y="150"/><rect fill="#90EE90" height="2" style="stroke:#000000;stroke-width:1.5;" width="4" x="1040.8415" y="152"/><rect fill="#90EE90" height="2" style="stroke:#000000;stroke-width:1.5;" width="4" x="1040.8415" y="156"/><text fill="#000000" font-family="sans-serif" font-size="14" font-weight="bold" lengthAdjust="spacing" textLength="49" x="941.3415" y="170.9951">TEST?</text><text fill="#000000" font-family="sans-serif" font-size="14" font-weight="bold" lengthAdjust="spacing" textLength="87" x="922.3415" y="187.292">nofaappdb</text><text fill="#000000" font-family="sans-serif" font-size="14" font-weight="bold" lengthAdjust="spacing" textLength="115" x="908.3415" y="203.5889">165.235.4.124</text><!--MD5=[a1b6267597dbd5a0826ca2724cecc0e3]
entity fnofa--><polygon fill="#F0F8FF" filter="url(#f14jk0x2nih63o)" points="918.3415,398,964.3415,398,971.3415,419,1013.3415,419,1013.3415,452.2969,918.3415,452.2969,918.3415,398" style="stroke:#000000;stroke-width:1.5;"/><line style="stroke:#000000;stroke-width:1.5;" x1="918.3415" x2="971.3415" y1="419" y2="419"/><text fill="#000000" font-family="sans-serif" font-size="14" lengthAdjust="spacing" textLength="65" x="928.3415" y="438.9951">/nofaapp</text><!--MD5=[e803aa23512d68f52242d76575b3228f]
entity fw3uat--><polygon fill="#F0F8FF" filter="url(#f14jk0x2nih63o)" points="222.3415,398,268.3415,398,275.3415,419,295.3415,419,295.3415,452.2969,222.3415,452.2969,222.3415,398" style="stroke:#000000;stroke-width:1.5;"/><line style="stroke:#000000;stroke-width:1.5;" x1="222.3415" x2="275.3415" y1="419" y2="419"/><text fill="#000000" font-family="sans-serif" font-size="14" lengthAdjust="spacing" textLength="43" x="232.3415" y="438.9951">w3uat</text><!--MD5=[d0446026869f119824de582b66ebf43f]
entity foptaccb--><polygon fill="#F0F8FF" filter="url(#f14jk0x2nih63o)" points="330.8415,398,376.8415,398,383.8415,419,442.8415,419,442.8415,452.2969,330.8415,452.2969,330.8415,398" style="stroke:#000000;stroke-width:1.5;"/><line style="stroke:#000000;stroke-width:1.5;" x1="330.8415" x2="383.8415" y1="419" y2="419"/><text fill="#000000" font-family="sans-serif" font-size="14" lengthAdjust="spacing" textLength="82" x="340.8415" y="438.9951">accelerator</text><!--MD5=[2864f3b66368541b7cab4397362f9ee4]
entity foptw3dev--><polygon fill="#F0F8FF" filter="url(#f14jk0x2nih63o)" points="477.8415,398,523.8415,398,530.8415,419,553.8415,419,553.8415,452.2969,477.8415,452.2969,477.8415,398" style="stroke:#000000;stroke-width:1.5;"/><line style="stroke:#000000;stroke-width:1.5;" x1="477.8415" x2="530.8415" y1="419" y2="419"/><text fill="#000000" font-family="sans-serif" font-size="14" lengthAdjust="spacing" textLength="46" x="487.8415" y="438.9951">w3dev</text><!--MD5=[537234eedc727e319deb2b8a27e49c66]
entity fopthk--><polygon fill="#F0F8FF" filter="url(#f14jk0x2nih63o)" points="589.3415,398,635.3415,398,642.3415,419,686.3415,419,686.3415,452.2969,589.3415,452.2969,589.3415,398" style="stroke:#000000;stroke-width:1.5;"/><line style="stroke:#000000;stroke-width:1.5;" x1="589.3415" x2="642.3415" y1="419" y2="419"/><text fill="#000000" font-family="sans-serif" font-size="14" lengthAdjust="spacing" textLength="67" x="599.3415" y="438.9951">homekey</text><!--MD5=[a2d71b11029dd4ffef7dc25d77f62908]
entity dockw3uatap--><rect fill="#90EE90" filter="url(#f14jk0x2nih63o)" height="95.1875" style="stroke:#A80036;stroke-width:1.5;" width="156" x="74.8415" y="195.5"/><rect fill="#90EE90" height="10" style="stroke:#A80036;stroke-width:1.5;" width="15" x="210.8415" y="200.5"/><rect fill="#90EE90" height="2" style="stroke:#A80036;stroke-width:1.5;" width="4" x="208.8415" y="202.5"/><rect fill="#90EE90" height="2" style="stroke:#A80036;stroke-width:1.5;" width="4" x="208.8415" y="206.5"/><text fill="#000000" font-family="sans-serif" font-size="14" lengthAdjust="spacing" textLength="28" x="89.8415" y="228.4951">UAT</text><text fill="#000000" font-family="sans-serif" font-size="14" lengthAdjust="spacing" textLength="95" x="89.8415" y="244.792">w3uatapache</text><text fill="#000000" font-family="sans-serif" font-size="14" lengthAdjust="spacing" textLength="116" x="89.8415" y="261.0889">165.235.4.30:80</text><text fill="#000000" font-family="sans-serif" font-size="14" lengthAdjust="spacing" textLength="54" x="89.8415" y="277.3857">Apache</text><!--MD5=[86b72ffd0faf698eea88e7fec063a024]
entity dockaccdevap--><rect fill="#90EE90" filter="url(#f14jk0x2nih63o)" height="95.1875" style="stroke:#A80036;stroke-width:1.5;" width="200" x="265.8415" y="195.5"/><rect fill="#90EE90" height="10" style="stroke:#A80036;stroke-width:1.5;" width="15" x="445.8415" y="200.5"/><rect fill="#90EE90" height="2" style="stroke:#A80036;stroke-width:1.5;" width="4" x="443.8415" y="202.5"/><rect fill="#90EE90" height="2" style="stroke:#A80036;stroke-width:1.5;" width="4" x="443.8415" y="206.5"/><text fill="#000000" font-family="sans-serif" font-size="14" lengthAdjust="spacing" textLength="30" x="280.8415" y="228.4951">DEV</text><text fill="#000000" font-family="sans-serif" font-size="14" lengthAdjust="spacing" textLength="160" x="280.8415" y="244.792">acceleratordevapache</text><text fill="#000000" font-family="sans-serif" font-size="14" lengthAdjust="spacing" textLength="116" x="280.8415" y="261.0889">165.235.4.56:80</text><text fill="#000000" font-family="sans-serif" font-size="14" lengthAdjust="spacing" textLength="54" x="280.8415" y="277.3857">Apache</text><!--MD5=[15afc2290fe6ed397efb8da47f345cf0]
entity dockw3devap--><rect fill="#90EE90" filter="url(#f14jk0x2nih63o)" height="95.1875" style="stroke:#A80036;stroke-width:1.5;" width="155" x="501.3415" y="195.5"/><rect fill="#90EE90" height="10" style="stroke:#A80036;stroke-width:1.5;" width="15" x="636.3415" y="200.5"/><rect fill="#90EE90" height="2" style="stroke:#A80036;stroke-width:1.5;" width="4" x="634.3415" y="202.5"/><rect fill="#90EE90" height="2" style="stroke:#A80036;stroke-width:1.5;" width="4" x="634.3415" y="206.5"/><text fill="#000000" font-family="sans-serif" font-size="14" lengthAdjust="spacing" textLength="30" x="516.3415" y="228.4951">DEV</text><text fill="#000000" font-family="sans-serif" font-size="14" lengthAdjust="spacing" textLength="98" x="516.3415" y="244.792">w3devapache</text><text fill="#000000" font-family="sans-serif" font-size="14" lengthAdjust="spacing" textLength="115" x="516.3415" y="261.0889">165.235.4.58:80</text><text fill="#000000" font-family="sans-serif" font-size="14" lengthAdjust="spacing" textLength="54" x="516.3415" y="277.3857">Apache</text><!--MD5=[8a4c42e2a72f1e7c427ffe9d9a3588b7]
entity dbnfoaapp--><path d="M885.3415,222 C885.3415,212 965.8415,212 965.8415,212 C965.8415,212 1046.3415,212 1046.3415,222 L1046.3415,263.5938 C1046.3415,273.5938 965.8415,273.5938 965.8415,273.5938 C965.8415,273.5938 885.3415,273.5938 885.3415,263.5938 L885.3415,222 " fill="#00FF00" filter="url(#f14jk0x2nih63o)" style="stroke:#000000;stroke-width:1.5;"/><path d="M885.3415,222 C885.3415,232 965.8415,232 965.8415,232 C965.8415,232 1046.3415,232 1046.3415,222 " fill="none" style="stroke:#000000;stroke-width:1.5;"/><text fill="#000000" font-family="sans-serif" font-size="14" lengthAdjust="spacing" textLength="93" x="895.3415" y="248.9951">MySql Server</text><text fill="#000000" font-family="sans-serif" font-size="14" lengthAdjust="spacing" textLength="141" x="895.3415" y="265.292">165.235.4.124:8306</text><!--MD5=[71c7e71a615009eff97ca3e9cf820df2]
entity dockhka--><rect fill="#90EE90" filter="url(#f14jk0x2nih63o)" height="95.1875" style="stroke:#A80036;stroke-width:1.5;" width="159" x="691.3415" y="195.5"/><rect fill="#90EE90" height="10" style="stroke:#A80036;stroke-width:1.5;" width="15" x="830.3415" y="200.5"/><rect fill="#90EE90" height="2" style="stroke:#A80036;stroke-width:1.5;" width="4" x="828.3415" y="202.5"/><rect fill="#90EE90" height="2" style="stroke:#A80036;stroke-width:1.5;" width="4" x="828.3415" y="206.5"/><text fill="#000000" font-family="sans-serif" font-size="14" lengthAdjust="spacing" textLength="43" x="706.3415" y="228.4951">TEST?</text><text fill="#000000" font-family="sans-serif" font-size="14" lengthAdjust="spacing" textLength="119" x="706.3415" y="244.792">homekeyapache</text><text fill="#000000" font-family="sans-serif" font-size="14" lengthAdjust="spacing" textLength="116" x="706.3415" y="261.0889">165.235.4.59:80</text><text fill="#000000" font-family="sans-serif" font-size="14" lengthAdjust="spacing" textLength="54" x="706.3415" y="277.3857">Apache</text><!--MD5=[1c31855e102571efb0bd6809106f19ca]
link dockw3uatap to fw3uat--><path d="M180.4155,290.823 C199.4555,323.156 224.2335,365.232 240.7945,393.354 " fill="none" id="dockw3uatap-to-fw3uat" style="stroke:#A80036;stroke-width:1.0;stroke-dasharray:7.0,7.0;"/><polygon fill="#A80036" points="243.3795,397.744,242.2595,387.959,240.8424,393.4355,235.3659,392.0184,243.3795,397.744" style="stroke:#A80036;stroke-width:1.0;"/><text fill="#000000" font-family="sans-serif" font-size="13" lengthAdjust="spacing" textLength="49" x="213.8415" y="343.0669">mounts</text><!--MD5=[abc83e528d1ed62775322b9d74d6e7b2]
link dockaccdevap to foptaccb--><path d="M371.3045,290.823 C375.0455,322.89 379.9045,364.54 383.1845,392.657 " fill="none" id="dockaccdevap-to-foptaccb" style="stroke:#A80036;stroke-width:1.0;stroke-dasharray:7.0,7.0;"/><polygon fill="#A80036" points="383.7785,397.744,386.7077,388.3408,383.1986,392.7777,378.7616,389.2687,383.7785,397.744" style="stroke:#A80036;stroke-width:1.0;"/><text fill="#000000" font-family="sans-serif" font-size="13" lengthAdjust="spacing" textLength="49" x="378.8415" y="343.0669">mounts</text><!--MD5=[c815ef25d5d90325f98b5ad06ccbf57b]
link dockw3devap to foptw3dev--><path d="M562.4535,290.823 C551.1835,323.023 536.5315,364.886 526.6895,393.006 " fill="none" id="dockw3devap-to-foptw3dev" style="stroke:#A80036;stroke-width:1.0;stroke-dasharray:7.0,7.0;"/><polygon fill="#A80036" points="525.0305,397.744,531.779,390.5706,526.6822,393.0247,524.2281,387.9279,525.0305,397.744" style="stroke:#A80036;stroke-width:1.0;"/><text fill="#000000" font-family="sans-serif" font-size="13" lengthAdjust="spacing" textLength="49" x="547.8415" y="343.0669">mounts</text><!--MD5=[5f69fbb811bbc009027c1e660ef23f50]
link dbnfoaapp to fnofa--><path d="M965.8415,274.128 C965.8415,306.998 965.8415,359.367 965.8415,392.694 " fill="none" id="dbnfoaapp-to-fnofa" style="stroke:#A80036;stroke-width:1.0;stroke-dasharray:7.0,7.0;"/><polygon fill="#A80036" points="965.8415,397.873,969.8415,388.873,965.8415,392.873,961.8415,388.873,965.8415,397.873" style="stroke:#A80036;stroke-width:1.0;"/><text fill="#000000" font-family="sans-serif" font-size="13" lengthAdjust="spacing" textLength="49" x="966.8415" y="343.0669">mounts</text><!--MD5=[f41eba46e4a99b5002590b5938a0a082]
link dockhka to fopthk--><path d="M718.8815,290.699 C704.8795,301.879 689.3075,313.132 673.8415,322 C665.1775,326.968 659.1415,322.25 652.8415,330 C638.7755,347.305 635.3705,372.484 635.2955,392.428 " fill="none" id="dockhka-to-fopthk" style="stroke:#A80036;stroke-width:1.0;stroke-dasharray:7.0,7.0;"/><polygon fill="#A80036" points="635.3505,397.64,639.2551,388.5982,635.2976,392.6403,631.2556,388.6828,635.3505,397.64" style="stroke:#A80036;stroke-width:1.0;"/><text fill="#000000" font-family="sans-serif" font-size="13" lengthAdjust="spacing" textLength="49" x="653.8415" y="343.0669">mounts</text><rect fill="#DDDDDD" height="62.8906" rx="5" ry="5" style="stroke:#000000;stroke-width:1.0;" width="159" x="489.7423" y="506"/><text fill="#000000" filter="url(#b14jk0x2nih63o0)" font-family="sans-serif" font-size="14" font-weight="bold" lengthAdjust="spacing" textLength="99" x="495.7423" y="525.9951">Linux Server</text><text fill="#000000" filter="url(#b14jk0x2nih63o1)" font-family="sans-serif" font-size="14" font-weight="bold" lengthAdjust="spacing" textLength="139" x="495.7423" y="542.292">Docker Container</text><text fill="#000000" filter="url(#b14jk0x2nih63o2)" font-family="sans-serif" font-size="14" font-weight="bold" lengthAdjust="spacing" textLength="127" x="495.7423" y="558.5889">Docker Network</text><line style="stroke:#000000;stroke-width:1.0;" x1="495.7423" x2="642.7423" y1="513" y2="513"/><line style="stroke:#000000;stroke-width:1.0;" x1="495.7423" x2="642.7423" y1="529.2969" y2="529.2969"/><line style="stroke:#000000;stroke-width:1.0;" x1="495.7423" x2="642.7423" y1="545.5938" y2="545.5938"/><line style="stroke:#000000;stroke-width:1.0;" x1="495.7423" x2="642.7423" y1="561.8906" y2="561.8906"/><line style="stroke:#000000;stroke-width:1.0;" x1="495.7423" x2="495.7423" y1="513" y2="561.8906"/><line style="stroke:#000000;stroke-width:1.0;" x1="642.7423" x2="642.7423" y1="513" y2="561.8906"/><!--MD5=[b7e8801249037d6ec661bae3d54df7ae]
@startuml
'!theme sketchy-outline
hide stereotype

'skinparam linetype ortho
 
legend
|<back:AliceBlue><b>Linux Server   </b></back>|
|<back:LightGreen><b>Docker Container</b></back>|
|<back:SeaShell><b>Docker Network    </b></back>|
endlegend

'title "HCD DEV/TEST Web/Drupal Deployment" 
   
node "pumpkin\nOracle Linux 8.5" <<i>> as pumpkin8 #AliceBlue{

''''folders'''''

folder "/opt" {
    folder "w3uat" as fw3uat #AliceBlue  
    folder "accelerator" as foptaccb #AliceBlue 
    folder "w3dev" as foptw3dev #AliceBlue  
    folder "homekey" as fopthk #AliceBlue 
}

folder "/nofaapp" as fnofa  #AliceBlue  

''''network''''

cloud "bridge\nDocker Network\n165.235.4.0" #SeaShell {

'  {
'    "Names": "w3uatapache",
'    "Image": "w3uat/drupal:10112021",
'    "Ports": "165.235.4.30:80->80/tcp, 165.235.4.30:443->443/tcp",
'    "Mounts": "/opt/w3uat/sync,/opt/w3uat/dru…,/opt/w3uat/web…",
'    "Networks": "bridge",
'    "Command": "\"/bin/bash /docker-s…\""
'  }
    component "UAT\nw3uatapache\n165.235.4.30:80\nApache" as dockw3uatap #LightGreen { 
    }
   dockw3uatap ..> fw3uat :mounts

'    "Names": "acceleratordevapache",
'    "Image": "acceleratordev/drupal:09222021",
'    "Ports": "165.235.4.56:80->80/tcp, 165.235.4.56:443->443/tcp",
'    "Mounts": "/opt/accelerat…,/opt/accelerat…,/opt/accelerat…",
'    "Networks": "bridge",
'    "Command": "\"/bin/bash /docker-s…\""
 
    component "DEV\nacceleratordevapache\n165.235.4.56:80\nApache" as dockaccdevap #LightGreen { 
        }
    dockaccdevap ..> foptaccb :mounts
    

'    "Names": "w3devapache",
'    "Image": "w3dev/drupal:09222021",
'    "Ports": "165.235.4.58:80->80/tcp, 165.235.4.58:443->443/tcp",
'    "Mounts": "/opt/w3dev/sync,/opt/w3dev/dru…,/opt/w3dev/web…",
'    "Networks": "bridge",
'    "Command": "\"/bin/bash /docker-s…\""

    component "DEV\nw3devapache\n165.235.4.58:80\nApache" as dockw3devap #LightGreen {

    }  

    dockw3devap ..> foptw3dev :mounts
 
'    "Names": "nofaappdb",
'    "Image": "mysql/mysql-server",
'    "Ports": "33060-33061/tcp, 165.235.4.124:8306->3306/tcp",
'    "Mounts": "/nofaapp/mysql…,/nofaapp/mysql…,/nofaapp/mysql…",
'    "Networks": "bridge",
'    "Command": "\"/entrypoint.sh mysq…\""

    component "TEST?\nnofaappdb\n165.235.4.124" as docknfoaappdb #LightGreen  {
         database "MySql Server\n165.235.4.124:8306" as dbnfoaapp #Lime {
         }
    }
    dbnfoaapp ..> fnofa :mounts

'    "Names": "homekeyapache",
'    "Image": "homekeydfa/drupal:09222021",
'    "Ports": "165.235.4.59:80->80/tcp, 165.235.4.59:443->443/tcp",
'    "Mounts": "/opt/homekey/c…,/opt/homekey/d…,/opt/homekey/w…,/opt/homekey/a…",
'    "Networks": "bridge",
'    "Command": "\"/bin/bash /docker-s…\""


    component "TEST?\nhomekeyapache\n165.235.4.59:80\nApache" as dockhka #LightGreen  {
        
    }
    dockhka   ..> fopthk :mounts

}
@enduml

@startuml
hide stereotype

 
legend
|<back:AliceBlue><b>Linux Server   </b></back>|
|<back:LightGreen><b>Docker Container</b></back>|
|<back:SeaShell><b>Docker Network    </b></back>|
endlegend

   
node "pumpkin\nOracle Linux 8.5" <<i>> as pumpkin8 #AliceBlue{


folder "/opt" {
    folder "w3uat" as fw3uat #AliceBlue  
    folder "accelerator" as foptaccb #AliceBlue 
    folder "w3dev" as foptw3dev #AliceBlue  
    folder "homekey" as fopthk #AliceBlue 
}

folder "/nofaapp" as fnofa  #AliceBlue  


cloud "bridge\nDocker Network\n165.235.4.0" #SeaShell {

    component "UAT\nw3uatapache\n165.235.4.30:80\nApache" as dockw3uatap #LightGreen { 
    }
   dockw3uatap ..> fw3uat :mounts

 
    component "DEV\nacceleratordevapache\n165.235.4.56:80\nApache" as dockaccdevap #LightGreen { 
        }
    dockaccdevap ..> foptaccb :mounts
    


    component "DEV\nw3devapache\n165.235.4.58:80\nApache" as dockw3devap #LightGreen {

    }  

    dockw3devap ..> foptw3dev :mounts
 

    component "TEST?\nnofaappdb\n165.235.4.124" as docknfoaappdb #LightGreen  {
         database "MySql Server\n165.235.4.124:8306" as dbnfoaapp #Lime {
         }
    }
    dbnfoaapp ..> fnofa :mounts



    component "TEST?\nhomekeyapache\n165.235.4.59:80\nApache" as dockhka #LightGreen  {
        
    }
    dockhka   ..> fopthk :mounts

}
@enduml

PlantUML version 1.2021.16beta3(Unknown compile time)
(GPL source distribution)
Java Runtime: Java(TM) SE Runtime Environment
JVM: Java HotSpot(TM) 64-Bit Server VM
Default Encoding: UTF-8
Language: en
Country: US
--></g></svg>