<?xml version="1.0" encoding="UTF-8" standalone="no"?><svg xmlns="http://www.w3.org/2000/svg" xmlns:xlink="http://www.w3.org/1999/xlink" contentScriptType="application/ecmascript" contentStyleType="text/css" height="501px" preserveAspectRatio="none" style="width:275px;height:501px;background:#FFFFFF;" version="1.1" viewBox="0 0 275 501" width="275px" zoomAndPan="magnify"><defs><filter height="300%" id="f12gpqs39i8fuh" width="300%" x="-1" y="-1"><feGaussianBlur result="blurOut" stdDeviation="2.0"/><feColorMatrix in="blurOut" result="blurOut2" type="matrix" values="0 0 0 0 0 0 0 0 0 0 0 0 0 0 0 0 0 0 .4 0"/><feOffset dx="4.0" dy="4.0" in="blurOut2" result="blurOut3"/><feBlend in="SourceGraphic" in2="blurOut3" mode="normal"/></filter><filter height="1" id="b12gpqs39i8fuh0" width="1" x="0" y="0"><feFlood flood-color="#F0F8FF" result="flood"/><feComposite in="SourceGraphic" in2="flood" operator="over"/></filter><filter height="1" id="b12gpqs39i8fuh1" width="1" x="0" y="0"><feFlood flood-color="#90EE90" result="flood"/><feComposite in="SourceGraphic" in2="flood" operator="over"/></filter><filter height="1" id="b12gpqs39i8fuh2" width="1" x="0" y="0"><feFlood flood-color="#FFF5EE" result="flood"/><feComposite in="SourceGraphic" in2="flood" operator="over"/></filter></defs><g><!--MD5=[d3013eb309a248c62385093ffd2add38]
cluster pumpkin8--><polygon fill="#F0F8FF" filter="url(#f12gpqs39i8fuh)" points="16,16,26,6,258,6,258,399,248,409,16,409,16,16" style="stroke:#000000;stroke-width:1.5;"/><line style="stroke:#000000;stroke-width:1.5;" x1="248" x2="258" y1="16" y2="6"/><line style="stroke:#000000;stroke-width:1.5;" x1="16" x2="248" y1="16" y2="16"/><line style="stroke:#000000;stroke-width:1.5;" x1="248" x2="248" y1="16" y2="409"/><text fill="#000000" font-family="sans-serif" font-size="14" font-weight="bold" lengthAdjust="spacing" textLength="69" x="98.5" y="31.9951">pumpkin</text><text fill="#000000" font-family="sans-serif" font-size="14" font-weight="bold" lengthAdjust="spacing" textLength="130" x="68" y="48.292">Oracle Linux 8.5</text><!--MD5=[39a5872d865de61eba07178027678ce6]
cluster fopt--><polygon fill="#F0F8FF" filter="url(#f12gpqs39i8fuh)" points="81,280,184,280,191,302.2969,194,302.2969,194,385,81,385,81,280" style="stroke:#000000;stroke-width:1.5;"/><line style="stroke:#000000;stroke-width:1.5;" x1="81" x2="191" y1="302.2969" y2="302.2969"/><text fill="#000000" font-family="sans-serif" font-size="14" font-weight="bold" lengthAdjust="spacing" textLength="97" x="85" y="294.9951">/hcdwebsite</text><!--MD5=[f6eae1e2c99d671b7c21a0cc455719de]
cluster mysql-hcdwebsite\nDocker Network\n--><path d="M55.5024,79.3049 C59.9216,72.3897 64.7112,73.396 68.9456,79.4958 C71.8504,73.4273 78.5154,71.8076 82.7971,77.9316 C85.7876,71.3081 92.5594,69.7774 97.409,75.7802 C101.3281,69.505 106.6452,69.9038 110.1295,76.2195 C115.0079,69.8009 120.8288,70.1113 125.4477,76.5292 C128.077,69.5583 132.4243,69.7756 137.5303,73.8101 C142.5205,67.4075 147.6049,68.2176 151.7593,74.7308 C155.5291,68.8748 162.4567,67.894 165.8978,75.0869 C170.6831,69.7686 176.3453,71.4898 178.7248,77.7518 C182.2609,71.3837 187.7759,70.4685 192.3191,76.662 C197.026,70.4354 203.4491,72.73 205.6372,79.2864 C214.4136,72.5141 222.5366,72.8374 226,85 C227.3773,84.2166 228.1023,84.6407 228.3565,86.1529 C235.0138,89.6366 234.7517,94.8124 228.7412,98.685 C236.8142,103.1405 236.913,108.2045 229.6772,113.6194 C235.5061,116.423 237.6957,121.4135 231.674,126.1113 C237.6222,128.382 240.3061,134.45 233.9539,138.9115 C241.2296,142.9586 241.2784,147.0594 234.6121,151.8176 C239.9288,157.014 239.6196,161.3843 233.448,165.611 C239.1011,169.284 237.1551,174.5805 232.1461,177.0388 C237.987,181.9286 236.0739,188.4505 229.4685,190.9436 C235.2977,194.8784 235.0159,201.5909 228.8957,205.0401 C235.1727,215.3504 230.0783,222.2522 219,223 C219.9484,222.0096 220.647,222.1564 221.1783,223.4057 C217.9221,230.1105 211.6962,231.006 206.8303,225.2609 C204.2599,232.4653 197.3556,234.5926 192.112,228.1423 C188.6662,235.0915 183.6485,236.0692 178.6735,229.6833 C175.4659,235.826 168.729,235.4921 165.204,230.0524 C161.4782,237.3009 157.5304,237.3183 152.3615,231.4671 C148.951,239.1541 142.498,239.0991 138.1138,232.4337 C133.4588,238.2617 128.7067,238.5241 125.0832,231.3963 C119.881,237.1271 113.2223,238.4437 109.7941,229.5426 C106.1734,234.532 101.5956,234.2828 98.0187,229.49 C93.0146,235.2739 87.372,235.9789 83.9704,227.8695 C77.3164,233.6958 72.4969,232.9713 69.0697,224.5053 C59.0016,232.2469 49.304,229.9694 48,216 C48.9135,216.3082 49.0586,216.8998 48.5281,217.6658 C41.529,213.6824 43.0055,206.8128 49.0754,203.3282 C42.5156,201.3631 42.3892,195.6722 46.895,191.6423 C39.3815,187.3774 40.2799,180.8285 47.291,176.9552 C41.2027,173.3262 40.423,168.4067 46.3455,163.9074 C40.3842,161.1128 38.6028,154.8618 44.8781,150.707 C39.2827,146.0084 39.7783,141.5813 46.5831,138.6339 C40.0012,134.8072 40.3187,130.234 46.1493,125.9818 C39.5704,121.2569 41.6239,115.7033 48.0193,112.8221 C40.4533,108.2602 41.5975,103.2793 47.9693,98.6682 C39.6551,89.335 42.6202,80.2937 55,78 C55.7888,78.2045 55.9084,78.6404 55.5024,79.3049 " fill="#FFF5EE" filter="url(#f12gpqs39i8fuh)" style="stroke:#000000;stroke-width:1.5;"/><text fill="#000000" font-family="sans-serif" font-size="14" font-weight="bold" lengthAdjust="spacing" textLength="146" x="64" y="95.9951">mysql-hcdwebsite</text><text fill="#000000" font-family="sans-serif" font-size="14" font-weight="bold" lengthAdjust="spacing" textLength="127" x="73.5" y="112.292">Docker Network</text><text fill="#000000" font-family="sans-serif" font-size="14" font-weight="bold" lengthAdjust="spacing" textLength="0" x="139.5" y="128.5889"/><!--MD5=[45d52e731e918cbd12e7ecf82b2505f3]
entity fhcdsql--><polygon fill="#F0F8FF" filter="url(#f12gpqs39i8fuh)" points="101,315,147,315,154,336,173,336,173,369.2969,101,369.2969,101,315" style="stroke:#000000;stroke-width:1.5;"/><line style="stroke:#000000;stroke-width:1.5;" x1="101" x2="154" y1="336" y2="336"/><text fill="#000000" font-family="sans-serif" font-size="14" lengthAdjust="spacing" textLength="42" x="111" y="355.9951">mysql</text><!--MD5=[4b4822bdeaab43e665222ecdeb4fd7d2]
entity dbhcd--><path d="M56,147 C56,137 137,137 137,137 C137,137 218,137 218,147 L218,204.8906 C218,214.8906 137,214.8906 137,214.8906 C137,214.8906 56,214.8906 56,204.8906 L56,147 " fill="#90EE90" filter="url(#f12gpqs39i8fuh)" style="stroke:#000000;stroke-width:1.5;"/><path d="M56,147 C56,157 137,157 137,157 C137,157 218,157 218,147 " fill="none" style="stroke:#000000;stroke-width:1.5;"/><text fill="#000000" font-family="sans-serif" font-size="14" lengthAdjust="spacing" textLength="93" x="66" y="173.9951">MySql Server</text><text fill="#000000" font-family="sans-serif" font-size="14" lengthAdjust="spacing" textLength="142" x="66" y="190.292">165.235.4.124:6306</text><text fill="#000000" font-family="sans-serif" font-size="14" lengthAdjust="spacing" textLength="54" x="66" y="206.5889">Apache</text><!--MD5=[b98a80b677447effcdb8095dbeb6adda]
link dbhcd to fhcdsql--><path d="M137,215.037 C137,243.779 137,282.752 137,309.7 " fill="none" id="dbhcd-to-fhcdsql" style="stroke:#A80036;stroke-width:1.0;stroke-dasharray:7.0,7.0;"/><polygon fill="#A80036" points="137,314.923,141,305.923,137,309.923,133,305.923,137,314.923" style="stroke:#A80036;stroke-width:1.0;"/><text fill="#000000" font-family="sans-serif" font-size="13" lengthAdjust="spacing" textLength="49" x="138" y="260.0669">mounts</text><rect fill="#DDDDDD" height="62.8906" rx="5" ry="5" style="stroke:#000000;stroke-width:1.0;" width="159" x="51" y="423"/><text fill="#000000" filter="url(#b12gpqs39i8fuh0)" font-family="sans-serif" font-size="14" font-weight="bold" lengthAdjust="spacing" textLength="99" x="57" y="442.9951">Linux Server</text><text fill="#000000" filter="url(#b12gpqs39i8fuh1)" font-family="sans-serif" font-size="14" font-weight="bold" lengthAdjust="spacing" textLength="139" x="57" y="459.292">Docker Container</text><text fill="#000000" filter="url(#b12gpqs39i8fuh2)" font-family="sans-serif" font-size="14" font-weight="bold" lengthAdjust="spacing" textLength="127" x="57" y="475.5889">Docker Network</text><line style="stroke:#000000;stroke-width:1.0;" x1="57" x2="204" y1="430" y2="430"/><line style="stroke:#000000;stroke-width:1.0;" x1="57" x2="204" y1="446.2969" y2="446.2969"/><line style="stroke:#000000;stroke-width:1.0;" x1="57" x2="204" y1="462.5938" y2="462.5938"/><line style="stroke:#000000;stroke-width:1.0;" x1="57" x2="204" y1="478.8906" y2="478.8906"/><line style="stroke:#000000;stroke-width:1.0;" x1="57" x2="57" y1="430" y2="478.8906"/><line style="stroke:#000000;stroke-width:1.0;" x1="204" x2="204" y1="430" y2="478.8906"/><!--MD5=[dc3ffae9fd94db31d39210c085b9f694]
@startuml
'!theme sketchy-outline
hide stereotype

'skinparam linetype ortho

legend
|<back:AliceBlue><b>Linux Server   </b></back>|
|<back:LightGreen><b>Docker Container</b></back>|
|<back:SeaShell><b>Docker Network    </b></back>|
endlegend

'title "HCD DEV/TEST Web/Drupal Deployment" 
   
   node "pumpkin\nOracle Linux 8.5" <<i>> as pumpkin8 #AliceBlue {

    ''''folders'''''

    folder "/hcdwebsite" as fopt #AliceBlue { 
        folder "mysql" as fhcdsql  #AliceBlue 
    }
    
    '''''network'''''

'    "Names": "mysql-hcdwebsite",
'    "Image": "mysql/mysql-server",
'    "Ports": "33060-33061/tcp, 165.235.4.124:6306->3306/tcp",
'    "Mounts": "/hcdwebsite/my…,/hcdwebsite/my…,/hcdwebsite/my…",
'    "Networks": "hcdwebsite-network",
'    "Command": "\"/entrypoint.sh mysq…\""


    cloud "mysql-hcdwebsite\nDocker Network\n" #SeaShell {
   
        database "MySql Server\n165.235.4.124:6306\nApache" as dbhcd #LightGreen  

    dbhcd ..> fhcdsql :mounts
  }
@enduml

@startuml
hide stereotype


legend
|<back:AliceBlue><b>Linux Server   </b></back>|
|<back:LightGreen><b>Docker Container</b></back>|
|<back:SeaShell><b>Docker Network    </b></back>|
endlegend

   
   node "pumpkin\nOracle Linux 8.5" <<i>> as pumpkin8 #AliceBlue {


    folder "/hcdwebsite" as fopt #AliceBlue { 
        folder "mysql" as fhcdsql  #AliceBlue 
    }
    



    cloud "mysql-hcdwebsite\nDocker Network\n" #SeaShell {
   
        database "MySql Server\n165.235.4.124:6306\nApache" as dbhcd #LightGreen  

    dbhcd ..> fhcdsql :mounts
  }
@enduml

PlantUML version 1.2021.16beta3(Unknown compile time)
(GPL source distribution)
Java Runtime: Java(TM) SE Runtime Environment
JVM: Java HotSpot(TM) 64-Bit Server VM
Default Encoding: UTF-8
Language: en
Country: US
--></g></svg>