<?xml version="1.0" encoding="UTF-8" standalone="no"?><svg xmlns="http://www.w3.org/2000/svg" xmlns:xlink="http://www.w3.org/1999/xlink" contentScriptType="application/ecmascript" contentStyleType="text/css" height="1513px" preserveAspectRatio="none" style="width:629px;height:1513px;background:#FFFFFF;" version="1.1" viewBox="0 0 629 1513" width="629px" zoomAndPan="magnify"><defs><filter height="300%" id="fcvsvlji2suri" width="300%" x="-1" y="-1"><feGaussianBlur result="blurOut" stdDeviation="2.0"/><feColorMatrix in="blurOut" result="blurOut2" type="matrix" values="0 0 0 0 0 0 0 0 0 0 0 0 0 0 0 0 0 0 .4 0"/><feOffset dx="4.0" dy="4.0" in="blurOut2" result="blurOut3"/><feBlend in="SourceGraphic" in2="blurOut3" mode="normal"/></filter><filter height="1" id="bcvsvlji2suri0" width="1" x="0" y="0"><feFlood flood-color="#F0F8FF" result="flood"/><feComposite in="SourceGraphic" in2="flood" operator="over"/></filter><filter height="1" id="bcvsvlji2suri1" width="1" x="0" y="0"><feFlood flood-color="#90EE90" result="flood"/><feComposite in="SourceGraphic" in2="flood" operator="over"/></filter><filter height="1" id="bcvsvlji2suri2" width="1" x="0" y="0"><feFlood flood-color="#FFF5EE" result="flood"/><feComposite in="SourceGraphic" in2="flood" operator="over"/></filter><filter height="1" id="bcvsvlji2suri3" width="1" x="0" y="0"><feFlood flood-color="#FFFF00" result="flood"/><feComposite in="SourceGraphic" in2="flood" operator="over"/></filter></defs><g><!--MD5=[fa18502fc5f39f57ddb520ebfd5c8674]
cluster x142224448--><rect fill="#F0F8FF" filter="url(#fcvsvlji2suri)" height="1385" style="stroke:#000000;stroke-width:1.5;" width="608" x="7" y="7"/><rect fill="#F0F8FF" height="10" style="stroke:#000000;stroke-width:1.5;" width="15" x="595" y="12"/><rect fill="#F0F8FF" height="2" style="stroke:#000000;stroke-width:1.5;" width="4" x="593" y="14"/><rect fill="#F0F8FF" height="2" style="stroke:#000000;stroke-width:1.5;" width="4" x="593" y="18"/><text fill="#000000" font-family="sans-serif" font-size="14" font-weight="bold" lengthAdjust="spacing" textLength="0" x="313" y="34.5332"/><text fill="#000000" font-family="sans-serif" font-size="14" font-weight="bold" lengthAdjust="spacing" textLength="56" x="283" y="52.1426">starfruit</text><!--MD5=[96920df5bb310c56d3f7ad732a45f038]
cluster x75531560--><polygon fill="#90EE90" filter="url(#fcvsvlji2suri)" points="39,87,49,77,567,77,567,285,557,295,39,295,39,87" style="stroke:#000000;stroke-width:1.5;"/><line style="stroke:#000000;stroke-width:1.5;" x1="557" x2="567" y1="87" y2="77"/><line style="stroke:#000000;stroke-width:1.5;" x1="39" x2="557" y1="87" y2="87"/><line style="stroke:#000000;stroke-width:1.5;" x1="557" x2="557" y1="87" y2="295"/><text fill="#000000" font-family="sans-serif" font-size="14" font-weight="bold" lengthAdjust="spacing" textLength="0" x="301" y="104.5332"/><text fill="#000000" font-family="sans-serif" font-size="14" font-weight="bold" lengthAdjust="spacing" textLength="107" x="245.5" y="122.1426">/w3prodapache</text><!--MD5=[5df96bb6c2e3bc536f92978c6dbb5fd5]
cluster ports26--><path d="M443.5901,160.5972 C448.1262,152.48 453.9166,152.9063 458.6381,160.4187 C463.0491,154.8996 467.6258,153.854 471.7237,160.7488 C475.2351,152.8595 480.1591,153.0539 485.8524,158.4239 C490.8125,150.3309 496.4994,150.808 501.0048,158.8509 C505.7652,153.1009 509.742,153.1994 513.3794,159.9615 C517.8986,154.9246 524.3255,155.6422 527.2187,161.9458 C533.1419,164.5707 532.2597,168.0484 528.5695,171.969 C534.7883,175.3384 535.6484,181.0828 528.8037,184.6926 C534.882,188.1152 537.2954,192.2412 530.9768,197.7301 C535.4833,200.9764 536.5596,205.6981 530.7327,208.7147 C535.9935,212.5337 536.291,217.1785 530.0458,220.3162 C535.0811,224.4795 535.8571,228.2518 529.6678,232.0536 C534.9258,235.6874 534.0526,241.1012 528.3423,243.4604 C534.2187,246.3945 534.5501,252.4899 528.8292,255.8787 C525.7531,263.9464 518.124,263.2512 513.7779,257.2361 C510.6177,264.0853 504.7864,265.0248 500.1448,258.7784 C497.2349,266.138 490.1203,267.0413 485.31,260.8605 C480.3022,266.8076 475.6527,267.2034 471.9479,259.5777 C465.0513,266.4387 460.8492,264.4386 457.3546,256.2736 C453.903,262.7653 447.8316,261.7658 444.9393,255.7198 C438.961,253.3482 438.8528,248.9347 442.8709,244.6886 C437.4726,242.4234 435.9206,237.0795 440.9207,233.0691 C435.0219,229.6536 433.7464,224.0847 439.6302,219.5448 C433.5784,217.7559 433.6156,213.9536 436.7892,209.544 C432.0838,204.3927 432.0455,200.3216 438.8833,197.1153 C433.7972,192.7719 435.3582,186.8999 441.1185,184.4743 C435.454,180.7439 436.783,174.7843 442.1145,171.9267 C437.3809,168.1222 438.136,163.0747 443.5901,160.5972 " fill="#FFF5EE" filter="url(#fcvsvlji2suri)" style="stroke:#000000;stroke-width:1.5;"/><text fill="#000000" font-family="sans-serif" font-size="14" font-weight="bold" lengthAdjust="spacing" textLength="37" x="466.5" y="179.5332">Ports</text><!--MD5=[7f648b20e7df82215c5276f77d69f256]
cluster bind793--><rect fill="#FFFF00" filter="url(#fcvsvlji2suri)" height="111" style="stroke:#000000;stroke-width:1.5;" width="332" x="79" y="152"/><path d="M151,152 L151,162.6094 L141,172.6094 L79,172.6094 " fill="none" style="stroke:#000000;stroke-width:1.5;"/><text fill="#000000" font-family="sans-serif" font-size="14" font-weight="bold" lengthAdjust="spacing" textLength="62" x="82" y="167.5332">Bindings</text><!--MD5=[207ef864f2f4cf9e2a414e34f1fc747a]
cluster x111235695--><polygon fill="#90EE90" filter="url(#fcvsvlji2suri)" points="39,345,49,335,569,335,569,560,559,570,39,570,39,345" style="stroke:#000000;stroke-width:1.5;"/><line style="stroke:#000000;stroke-width:1.5;" x1="559" x2="569" y1="345" y2="335"/><line style="stroke:#000000;stroke-width:1.5;" x1="39" x2="559" y1="345" y2="345"/><line style="stroke:#000000;stroke-width:1.5;" x1="559" x2="559" y1="345" y2="570"/><text fill="#000000" font-family="sans-serif" font-size="14" font-weight="bold" lengthAdjust="spacing" textLength="0" x="302" y="362.5332"/><text fill="#000000" font-family="sans-serif" font-size="14" font-weight="bold" lengthAdjust="spacing" textLength="118" x="241" y="380.1426">/homekeyapache</text><!--MD5=[2335e03bb969799965abb02647a5a790]
cluster ports294--><path d="M445.5901,427.0972 C450.1262,418.98 455.9166,419.4063 460.6381,426.9187 C465.0491,421.3996 469.6258,420.354 473.7237,427.2488 C477.2351,419.3595 482.1591,419.5539 487.8524,424.9239 C492.8125,416.8309 498.4994,417.308 503.0048,425.3509 C507.7652,419.6009 511.742,419.6994 515.3794,426.4615 C519.8986,421.4246 526.3255,422.1422 529.2187,428.4458 C535.1419,431.0707 534.2597,434.5484 530.5695,438.469 C536.7883,441.8384 537.6484,447.5828 530.8037,451.1926 C536.882,454.6152 539.2954,458.7412 532.9768,464.2301 C537.4833,467.4764 538.5596,472.1981 532.7327,475.2147 C537.9935,479.0337 538.291,483.6785 532.0458,486.8162 C537.0811,490.9795 537.8571,494.7518 531.6678,498.5536 C536.9258,502.1874 536.0526,507.6012 530.3423,509.9604 C536.2187,512.8945 536.5501,518.9899 530.8292,522.3787 C527.7531,530.4464 520.124,529.7512 515.7779,523.7361 C512.6177,530.5853 506.7864,531.5248 502.1448,525.2784 C499.2349,532.638 492.1203,533.5413 487.31,527.3605 C482.3022,533.3076 477.6527,533.7034 473.9479,526.0777 C467.0513,532.9387 462.8492,530.9386 459.3546,522.7736 C455.903,529.2653 449.8316,528.2658 446.9393,522.2198 C440.961,519.8482 440.8528,515.4347 444.8709,511.1886 C439.4726,508.9234 437.9206,503.5795 442.9207,499.5691 C437.0219,496.1536 435.7464,490.5847 441.6302,486.0448 C435.5784,484.2559 435.6156,480.4536 438.7892,476.044 C434.0838,470.8927 434.0455,466.8216 440.8833,463.6153 C435.7972,459.2719 437.3582,453.3999 443.1185,450.9743 C437.454,447.2439 438.783,441.2843 444.1145,438.4267 C439.3809,434.6222 440.136,429.5747 445.5901,427.0972 " fill="#FFF5EE" filter="url(#fcvsvlji2suri)" style="stroke:#000000;stroke-width:1.5;"/><text fill="#000000" font-family="sans-serif" font-size="14" font-weight="bold" lengthAdjust="spacing" textLength="37" x="468.5" y="446.0332">Ports</text><!--MD5=[16bef3459141bf5301271b4a263f5a76]
cluster bind835--><rect fill="#FFFF00" filter="url(#fcvsvlji2suri)" height="128" style="stroke:#000000;stroke-width:1.5;" width="334" x="79" y="410"/><path d="M151,410 L151,420.6094 L141,430.6094 L79,430.6094 " fill="none" style="stroke:#000000;stroke-width:1.5;"/><text fill="#000000" font-family="sans-serif" font-size="14" font-weight="bold" lengthAdjust="spacing" textLength="62" x="82" y="425.5332">Bindings</text><!--MD5=[729c2882eb21ca666a6bab4556877a37]
cluster x51798953--><polygon fill="#90EE90" filter="url(#fcvsvlji2suri)" points="39,620,49,610,541,610,541,835,531,845,39,845,39,620" style="stroke:#000000;stroke-width:1.5;"/><line style="stroke:#000000;stroke-width:1.5;" x1="531" x2="541" y1="620" y2="610"/><line style="stroke:#000000;stroke-width:1.5;" x1="39" x2="531" y1="620" y2="620"/><line style="stroke:#000000;stroke-width:1.5;" x1="531" x2="531" y1="620" y2="845"/><text fill="#000000" font-family="sans-serif" font-size="14" font-weight="bold" lengthAdjust="spacing" textLength="0" x="288" y="637.5332"/><text fill="#000000" font-family="sans-serif" font-size="14" font-weight="bold" lengthAdjust="spacing" textLength="86" x="243" y="655.1426">/nofaapache</text><!--MD5=[2d497b1f1a5cc6c6a90f33f43ccc4d49]
cluster ports862--><path d="M417.5901,702.0972 C422.1262,693.98 427.9166,694.4063 432.6381,701.9187 C437.0491,696.3996 441.6258,695.354 445.7237,702.2488 C449.2351,694.3595 454.1591,694.5539 459.8524,699.9239 C464.8125,691.8309 470.4994,692.308 475.0048,700.3509 C479.7652,694.6009 483.742,694.6994 487.3794,701.4615 C491.8986,696.4246 498.3255,697.1422 501.2187,703.4458 C507.1419,706.0707 506.2597,709.5484 502.5695,713.469 C508.7883,716.8384 509.6484,722.5828 502.8037,726.1926 C508.882,729.6152 511.2954,733.7412 504.9768,739.2301 C509.4833,742.4764 510.5596,747.1981 504.7327,750.2147 C509.9935,754.0337 510.291,758.6785 504.0458,761.8162 C509.0811,765.9795 509.8571,769.7518 503.6678,773.5536 C508.9258,777.1874 508.0526,782.6012 502.3423,784.9604 C508.2187,787.8945 508.5501,793.9899 502.8292,797.3787 C499.7531,805.4464 492.124,804.7512 487.7779,798.7361 C484.6177,805.5853 478.7864,806.5248 474.1448,800.2784 C471.2349,807.638 464.1203,808.5413 459.31,802.3605 C454.3022,808.3076 449.6527,808.7034 445.9479,801.0777 C439.0513,807.9387 434.8492,805.9386 431.3546,797.7736 C427.903,804.2653 421.8316,803.2658 418.9393,797.2198 C412.961,794.8482 412.8528,790.4347 416.8709,786.1886 C411.4726,783.9234 409.9206,778.5795 414.9207,774.5691 C409.0219,771.1536 407.7464,765.5847 413.6302,761.0448 C407.5784,759.2559 407.6156,755.4536 410.7892,751.044 C406.0838,745.8927 406.0455,741.8216 412.8833,738.6153 C407.7972,734.2719 409.3582,728.3999 415.1185,725.9743 C409.454,722.2439 410.783,716.2843 416.1145,713.4267 C411.3809,709.6222 412.136,704.5747 417.5901,702.0972 " fill="#FFF5EE" filter="url(#fcvsvlji2suri)" style="stroke:#000000;stroke-width:1.5;"/><text fill="#000000" font-family="sans-serif" font-size="14" font-weight="bold" lengthAdjust="spacing" textLength="37" x="440.5" y="721.0332">Ports</text><!--MD5=[c1ddede4b8f381bbcb8c93ff28b8bb41]
cluster bind394--><rect fill="#FFFF00" filter="url(#fcvsvlji2suri)" height="128" style="stroke:#000000;stroke-width:1.5;" width="306" x="79" y="685"/><path d="M151,685 L151,695.6094 L141,705.6094 L79,705.6094 " fill="none" style="stroke:#000000;stroke-width:1.5;"/><text fill="#000000" font-family="sans-serif" font-size="14" font-weight="bold" lengthAdjust="spacing" textLength="62" x="82" y="700.5332">Bindings</text><!--MD5=[f6e2b81e122b910f3e677cad05532ba8]
cluster x3913926--><polygon fill="#90EE90" filter="url(#fcvsvlji2suri)" points="39,895,49,885,583,885,583,1110,573,1120,39,1120,39,895" style="stroke:#000000;stroke-width:1.5;"/><line style="stroke:#000000;stroke-width:1.5;" x1="573" x2="583" y1="895" y2="885"/><line style="stroke:#000000;stroke-width:1.5;" x1="39" x2="573" y1="895" y2="895"/><line style="stroke:#000000;stroke-width:1.5;" x1="573" x2="573" y1="895" y2="1120"/><text fill="#000000" font-family="sans-serif" font-size="14" font-weight="bold" lengthAdjust="spacing" textLength="0" x="309" y="912.5332"/><text fill="#000000" font-family="sans-serif" font-size="14" font-weight="bold" lengthAdjust="spacing" textLength="135" x="239.5" y="930.1426">/acceleratorapache</text><!--MD5=[a14e25b62fc693e18e23dcc4ed932913]
cluster ports117--><path d="M459.5901,977.0972 C464.1262,968.98 469.9166,969.4063 474.6381,976.9187 C479.0491,971.3996 483.6258,970.354 487.7237,977.2488 C491.2351,969.3595 496.1591,969.5539 501.8524,974.9239 C506.8125,966.8309 512.4994,967.308 517.0048,975.3509 C521.7652,969.6009 525.742,969.6994 529.3794,976.4615 C533.8986,971.4246 540.3255,972.1422 543.2187,978.4458 C549.1419,981.0707 548.2597,984.5484 544.5695,988.469 C550.7883,991.8384 551.6484,997.5828 544.8037,1001.1926 C550.882,1004.6152 553.2954,1008.7412 546.9768,1014.2301 C551.4833,1017.4764 552.5596,1022.1981 546.7327,1025.2147 C551.9935,1029.0337 552.291,1033.6785 546.0458,1036.8162 C551.0811,1040.9795 551.8571,1044.7518 545.6678,1048.5536 C550.9258,1052.1874 550.0526,1057.6012 544.3423,1059.9604 C550.2187,1062.8945 550.5501,1068.9899 544.8292,1072.3787 C541.7531,1080.4464 534.124,1079.7512 529.7779,1073.7361 C526.6177,1080.5853 520.7864,1081.5248 516.1448,1075.2784 C513.2349,1082.638 506.1203,1083.5413 501.31,1077.3605 C496.3022,1083.3076 491.6527,1083.7034 487.9479,1076.0777 C481.0513,1082.9387 476.8492,1080.9386 473.3546,1072.7736 C469.903,1079.2653 463.8316,1078.2658 460.9393,1072.2198 C454.961,1069.8482 454.8528,1065.4347 458.8709,1061.1886 C453.4726,1058.9234 451.9206,1053.5795 456.9207,1049.5691 C451.0219,1046.1536 449.7464,1040.5847 455.6302,1036.0448 C449.5784,1034.2559 449.6156,1030.4536 452.7892,1026.044 C448.0838,1020.8927 448.0455,1016.8216 454.8833,1013.6153 C449.7972,1009.2719 451.3582,1003.3999 457.1185,1000.9743 C451.454,997.2439 452.783,991.2843 458.1145,988.4267 C453.3809,984.6222 454.136,979.5747 459.5901,977.0972 " fill="#FFF5EE" filter="url(#fcvsvlji2suri)" style="stroke:#000000;stroke-width:1.5;"/><text fill="#000000" font-family="sans-serif" font-size="14" font-weight="bold" lengthAdjust="spacing" textLength="37" x="482.5" y="996.0332">Ports</text><!--MD5=[7efbfff9726fc2fa7c0a1ce9e63cc872]
cluster bind241--><rect fill="#FFFF00" filter="url(#fcvsvlji2suri)" height="128" style="stroke:#000000;stroke-width:1.5;" width="348" x="79" y="960"/><path d="M151,960 L151,970.6094 L141,980.6094 L79,980.6094 " fill="none" style="stroke:#000000;stroke-width:1.5;"/><text fill="#000000" font-family="sans-serif" font-size="14" font-weight="bold" lengthAdjust="spacing" textLength="62" x="82" y="975.5332">Bindings</text><!--MD5=[a0829a318bdece677a5719b8e513d31f]
cluster x185970893--><polygon fill="#90EE90" filter="url(#fcvsvlji2suri)" points="39,1170,49,1160,489,1160,489,1350,479,1360,39,1360,39,1170" style="stroke:#000000;stroke-width:1.5;"/><line style="stroke:#000000;stroke-width:1.5;" x1="479" x2="489" y1="1170" y2="1160"/><line style="stroke:#000000;stroke-width:1.5;" x1="39" x2="479" y1="1170" y2="1170"/><line style="stroke:#000000;stroke-width:1.5;" x1="479" x2="479" y1="1170" y2="1360"/><text fill="#000000" font-family="sans-serif" font-size="14" font-weight="bold" lengthAdjust="spacing" textLength="0" x="262" y="1187.5332"/><text fill="#000000" font-family="sans-serif" font-size="14" font-weight="bold" lengthAdjust="spacing" textLength="161" x="179.5" y="1205.1426">/orion-orionaggregator</text><!--MD5=[bfce5e2a4aa6b606f6f151c8e422236e]
cluster ports697--><path d="M358.2387,1243.1145 C361.3839,1238.621 366.3961,1239.4815 368.7103,1244.0724 C372.0292,1236.3913 376.7666,1237.2282 381.889,1242.1928 C384.8899,1237.2082 389.6721,1237.332 392.2367,1242.6318 C396.1898,1237.057 400.7368,1237.3363 404.407,1242.9398 C407.2511,1237.5585 412.1609,1237.6559 415.2949,1242.6351 C418.7521,1236.8076 424.1725,1236.0718 427.7014,1242.5628 C431.4764,1236.7607 435.7734,1236.7456 439.0562,1243.0254 C442.6194,1238.4453 447.0042,1239.3521 449.6373,1244.0825 C455.7422,1245.8261 457.829,1251.2505 453.1003,1256.1127 C461.2188,1258.6823 462.4005,1263.5274 456.1069,1269.3663 C461.8443,1272.0469 463.6555,1277.2377 457.9267,1281.621 C464.2759,1286.8478 463.8896,1293.2951 455.6702,1296.2792 C461.1385,1301.5921 460.686,1305.4689 453.6014,1308.6892 C457.6567,1314.4485 456.6949,1320.3161 449.0571,1322.1187 C446.5844,1328.5831 440.8516,1328.2531 437.5713,1322.9039 C435.7345,1328.2342 430.1601,1329.9135 426.1578,1325.4198 C423.1402,1331.2208 419.8996,1331.6857 415.7638,1326.4754 C412.5092,1332.2503 408.772,1333.7487 403.5756,1328.6524 C399.9365,1333.8625 394.5449,1332.4135 392.1407,1327.2865 C386.9276,1332.0933 382.9367,1330.5894 380.9914,1324.0698 C376.1659,1330.1259 371.9717,1328.6476 368.8069,1322.4222 C364.8968,1327.2319 360.7846,1327.6112 357.9283,1321.3835 C350.6978,1318.2783 350.266,1313.2155 355.9714,1308.1914 C350.142,1304.4102 348.4015,1300.6386 354.3933,1295.399 C347.5063,1292.7936 347.7602,1286.7667 352.7088,1282.6031 C347.4548,1277.1286 347.2384,1271.4475 355.6448,1268.8998 C350.8735,1264.4366 351.3093,1260.7677 357.0903,1257.6617 C351.3038,1252.8292 350.4852,1246.8781 358.2387,1243.1145 " fill="#FFF5EE" filter="url(#fcvsvlji2suri)" style="stroke:#000000;stroke-width:1.5;"/><text fill="#000000" font-family="sans-serif" font-size="14" font-weight="bold" lengthAdjust="spacing" textLength="37" x="384.5" y="1262.5332">Ports</text><!--MD5=[6342a8c320435c06ac4a38c30da641b2]
cluster bind35--><rect fill="#FFFF00" filter="url(#fcvsvlji2suri)" height="93" style="stroke:#000000;stroke-width:1.5;" width="246" x="79" y="1235"/><path d="M151,1235 L151,1245.6094 L141,1255.6094 L79,1255.6094 " fill="none" style="stroke:#000000;stroke-width:1.5;"/><text fill="#000000" font-family="sans-serif" font-size="14" font-weight="bold" lengthAdjust="spacing" textLength="62" x="82" y="1250.5332">Bindings</text><!--MD5=[9ff5a64d2fc6f592fd528fdf7784da3d]
entity pval25--><rect fill="#FEFECE" filter="url(#fcvsvlji2suri)" height="58.8281" style="stroke:#000000;stroke-width:1.5;" width="67" x="451.5" y="188"/><text fill="#000000" font-family="sans-serif" font-size="14" lengthAdjust="spacing" textLength="47" x="461.5" y="205.5332">443/tcp</text><text fill="#000000" font-family="sans-serif" font-size="14" lengthAdjust="spacing" textLength="39" x="461.5" y="223.1426">80/tcp</text><text fill="#000000" font-family="sans-serif" font-size="14" lengthAdjust="spacing" textLength="0" x="465.5" y="240.752"/><!--MD5=[13ccc0f8578815a3fa9e211c7b1b833a]
entity cval493--><rect fill="#FEFECE" filter="url(#fcvsvlji2suri)" height="58.8281" style="stroke:#000000;stroke-width:1.5;" width="299" x="95.5" y="188"/><text fill="#000000" font-family="sans-serif" font-size="14" lengthAdjust="spacing" textLength="279" x="105.5" y="205.5332">/opt/w3prod/drupalfiles/:/var/www/drupalfiles/</text><text fill="#000000" font-family="sans-serif" font-size="14" lengthAdjust="spacing" textLength="225" x="105.5" y="223.1426">/opt/w3prod/webroot/:/var/www/html/</text><text fill="#000000" font-family="sans-serif" font-size="14" lengthAdjust="spacing" textLength="0" x="109.5" y="240.752"/><!--MD5=[2664aad17f6e418d27a57c5c2c096177]
entity pval756--><rect fill="#FEFECE" filter="url(#fcvsvlji2suri)" height="58.8281" style="stroke:#000000;stroke-width:1.5;" width="67" x="453.5" y="454.5"/><text fill="#000000" font-family="sans-serif" font-size="14" lengthAdjust="spacing" textLength="47" x="463.5" y="472.0332">443/tcp</text><text fill="#000000" font-family="sans-serif" font-size="14" lengthAdjust="spacing" textLength="39" x="463.5" y="489.6426">80/tcp</text><text fill="#000000" font-family="sans-serif" font-size="14" lengthAdjust="spacing" textLength="0" x="467.5" y="507.252"/><!--MD5=[cdbda699232067e7f07a1332a7fe57b9]
entity cval403--><rect fill="#FEFECE" filter="url(#fcvsvlji2suri)" height="76.4375" style="stroke:#000000;stroke-width:1.5;" width="302" x="95" y="446"/><text fill="#000000" font-family="sans-serif" font-size="14" lengthAdjust="spacing" textLength="282" x="105" y="463.5332">/opt/homekey/drupalfiles:/var/www/drupalfiles</text><text fill="#000000" font-family="sans-serif" font-size="14" lengthAdjust="spacing" textLength="265" x="105" y="481.1426">/opt/homekey/sync:/var/www/content/sync/</text><text fill="#000000" font-family="sans-serif" font-size="14" lengthAdjust="spacing" textLength="236" x="105" y="498.752">/opt/homekey/webroot/:/var/www/html/</text><text fill="#000000" font-family="sans-serif" font-size="14" lengthAdjust="spacing" textLength="0" x="109" y="516.3613"/><!--MD5=[a234dd64a200bc54ae24cff26714d56a]
entity pval926--><rect fill="#FEFECE" filter="url(#fcvsvlji2suri)" height="58.8281" style="stroke:#000000;stroke-width:1.5;" width="67" x="425.5" y="729.5"/><text fill="#000000" font-family="sans-serif" font-size="14" lengthAdjust="spacing" textLength="47" x="435.5" y="747.0332">443/tcp</text><text fill="#000000" font-family="sans-serif" font-size="14" lengthAdjust="spacing" textLength="39" x="435.5" y="764.6426">80/tcp</text><text fill="#000000" font-family="sans-serif" font-size="14" lengthAdjust="spacing" textLength="0" x="439.5" y="782.252"/><!--MD5=[1d811203efad411ff35385784e412023]
entity cval249--><rect fill="#FEFECE" filter="url(#fcvsvlji2suri)" height="76.4375" style="stroke:#000000;stroke-width:1.5;" width="273" x="95.5" y="721"/><text fill="#000000" font-family="sans-serif" font-size="14" lengthAdjust="spacing" textLength="253" x="105.5" y="738.5332">/opt/nofa/drupalfiles:/var/www/drupalfiles</text><text fill="#000000" font-family="sans-serif" font-size="14" lengthAdjust="spacing" textLength="236" x="105.5" y="756.1426">/opt/nofa/sync:/var/www/content/sync/</text><text fill="#000000" font-family="sans-serif" font-size="14" lengthAdjust="spacing" textLength="207" x="105.5" y="773.752">/opt/nofa/webroot/:/var/www/html/</text><text fill="#000000" font-family="sans-serif" font-size="14" lengthAdjust="spacing" textLength="0" x="109.5" y="791.3613"/><!--MD5=[40ddc8ade480288245f4f304e17467a6]
entity pval146--><rect fill="#FEFECE" filter="url(#fcvsvlji2suri)" height="58.8281" style="stroke:#000000;stroke-width:1.5;" width="67" x="467.5" y="1004.5"/><text fill="#000000" font-family="sans-serif" font-size="14" lengthAdjust="spacing" textLength="47" x="477.5" y="1022.0332">443/tcp</text><text fill="#000000" font-family="sans-serif" font-size="14" lengthAdjust="spacing" textLength="39" x="477.5" y="1039.6426">80/tcp</text><text fill="#000000" font-family="sans-serif" font-size="14" lengthAdjust="spacing" textLength="0" x="481.5" y="1057.252"/><!--MD5=[011bd8e6e7b9ef2bfbec9a99bb531550]
entity cval73--><rect fill="#FEFECE" filter="url(#fcvsvlji2suri)" height="76.4375" style="stroke:#000000;stroke-width:1.5;" width="316" x="95" y="996"/><text fill="#000000" font-family="sans-serif" font-size="14" lengthAdjust="spacing" textLength="296" x="105" y="1013.5332">/opt/accelerator/drupalfiles:/var/www/drupalfiles</text><text fill="#000000" font-family="sans-serif" font-size="14" lengthAdjust="spacing" textLength="279" x="105" y="1031.1426">/opt/accelerator/sync:/var/www/content/sync/</text><text fill="#000000" font-family="sans-serif" font-size="14" lengthAdjust="spacing" textLength="250" x="105" y="1048.752">/opt/accelerator/webroot/:/var/www/html/</text><text fill="#000000" font-family="sans-serif" font-size="14" lengthAdjust="spacing" textLength="0" x="109" y="1066.3613"/><!--MD5=[936aa65830d892dd96326d4bb1c7de9b]
entity pval572--><rect fill="#FEFECE" filter="url(#fcvsvlji2suri)" height="41.2188" style="stroke:#000000;stroke-width:1.5;" width="75" x="365.5" y="1271"/><text fill="#000000" font-family="sans-serif" font-size="14" lengthAdjust="spacing" textLength="55" x="375.5" y="1288.5332">4043/tcp</text><text fill="#000000" font-family="sans-serif" font-size="14" lengthAdjust="spacing" textLength="0" x="379.5" y="1306.1426"/><!--MD5=[e4fcb43a7992da3aaa94ddfd00953da9]
entity cval99--><rect fill="#FEFECE" filter="url(#fcvsvlji2suri)" height="41.2188" style="stroke:#000000;stroke-width:1.5;" width="214" x="95" y="1271"/><text fill="#000000" font-family="sans-serif" font-size="14" lengthAdjust="spacing" textLength="194" x="105" y="1288.5332">orion_cman-volume:/swdata:rw</text><text fill="#000000" font-family="sans-serif" font-size="14" lengthAdjust="spacing" textLength="0" x="109" y="1306.1426"/><!--MD5=[dadb432f0fcdacfa4f64bf41f3a046bc]
link x75531560 to x111235695--><!--MD5=[253e1f8520a3ff08e0a737f2eab75517]
link x111235695 to x51798953--><!--MD5=[b1484f1584f0b5f8bcef3efbb18cd1b6]
link x51798953 to x3913926--><!--MD5=[fd9f3da4c0b4ef7456acc29ceb0cc1be]
link x3913926 to x185970893--><rect fill="#DDDDDD" height="84.4375" rx="5" ry="5" style="stroke:#000000;stroke-width:1.0;" width="146" x="234.5" y="1413"/><text fill="#000000" filter="url(#bcvsvlji2suri0)" font-family="sans-serif" font-size="14" font-weight="bold" lengthAdjust="spacing" textLength="90" x="240.5" y="1434.5332">Linux Server</text><text fill="#000000" filter="url(#bcvsvlji2suri1)" font-family="sans-serif" font-size="14" font-weight="bold" lengthAdjust="spacing" textLength="123" x="240.5" y="1452.1426">Docker Container</text><text fill="#000000" filter="url(#bcvsvlji2suri2)" font-family="sans-serif" font-size="14" font-weight="bold" lengthAdjust="spacing" textLength="112" x="240.5" y="1469.752">Docker Network</text><text fill="#000000" filter="url(#bcvsvlji2suri3)" font-family="sans-serif" font-size="14" font-weight="bold" lengthAdjust="spacing" textLength="130" x="240.5" y="1487.3613">File System Folder</text><line style="stroke:#000000;stroke-width:1.0;" x1="240.5" x2="374.5" y1="1420" y2="1420"/><line style="stroke:#000000;stroke-width:1.0;" x1="240.5" x2="374.5" y1="1437.6094" y2="1437.6094"/><line style="stroke:#000000;stroke-width:1.0;" x1="240.5" x2="374.5" y1="1455.2188" y2="1455.2188"/><line style="stroke:#000000;stroke-width:1.0;" x1="240.5" x2="374.5" y1="1472.8281" y2="1472.8281"/><line style="stroke:#000000;stroke-width:1.0;" x1="240.5" x2="374.5" y1="1490.4375" y2="1490.4375"/><line style="stroke:#000000;stroke-width:1.0;" x1="240.5" x2="240.5" y1="1420" y2="1490.4375"/><line style="stroke:#000000;stroke-width:1.0;" x1="374.5" x2="374.5" y1="1420" y2="1490.4375"/><!--MD5=[7646a6766b01c36f66b28ba07f9a2c14]
@startuml "Generated"
'on: 2021-12-28T13:41:26.664-08:00
' hide stereotype
legend
|<back:AliceBlue><b>Linux Server   </b></back>|
|<back:LightGreen><b>Docker Container</b></back>|
|<back:SeaShell><b>Docker Network    </b></back>|
|<back:Yellow><b>File System Folder </b></back>|
endlegend

	component "\nstarfruit" as x142224448 #AliceBlue {
	

		node "\n/w3prodapache" as x75531560 #LightGreen {
	

			cloud "Ports" as ports26 #SeaShell {
			card "443/tcp\n80/tcp\n" as pval25
}

			frame "Bindings"  as bind793 #Yellow {
			card "/opt/w3prod/drupalfiles/:/var/www/drupalfiles/\n/opt/w3prod/webroot/:/var/www/html/\n" as cval493
			}

	}

		node "\n/homekeyapache" as x111235695 #LightGreen {
	

			cloud "Ports" as ports294 #SeaShell {
			card "443/tcp\n80/tcp\n" as pval756
}

			frame "Bindings"  as bind835 #Yellow {
			card "/opt/homekey/drupalfiles:/var/www/drupalfiles\n/opt/homekey/sync:/var/www/content/sync/\n/opt/homekey/webroot/:/var/www/html/\n" as cval403
			}

	}

		node "\n/nofaapache" as x51798953 #LightGreen {
	

			cloud "Ports" as ports862 #SeaShell {
			card "443/tcp\n80/tcp\n" as pval926
}

			frame "Bindings"  as bind394 #Yellow {
			card "/opt/nofa/drupalfiles:/var/www/drupalfiles\n/opt/nofa/sync:/var/www/content/sync/\n/opt/nofa/webroot/:/var/www/html/\n" as cval249
			}

	}

		node "\n/acceleratorapache" as x3913926 #LightGreen {
	

			cloud "Ports" as ports117 #SeaShell {
			card "443/tcp\n80/tcp\n" as pval146
}

			frame "Bindings"  as bind241 #Yellow {
			card "/opt/accelerator/drupalfiles:/var/www/drupalfiles\n/opt/accelerator/sync:/var/www/content/sync/\n/opt/accelerator/webroot/:/var/www/html/\n" as cval73
			}

	}

	 

		node "\n/orion-orionaggregator" as x185970893 #LightGreen {
	

			cloud "Ports" as ports697 #SeaShell {
			card "4043/tcp\n" as pval572
}

			frame "Bindings"  as bind35 #Yellow {
			card "orion_cman-volume:/swdata:rw\n" as cval99
			}

	}
x75531560 -[hidden]- x111235695
x111235695 -[hidden]- x51798953
x51798953 -[hidden]- x3913926
x3913926 -[hidden]-   x185970893

}
@enduml

@startuml "Generated"
legend
|<back:AliceBlue><b>Linux Server   </b></back>|
|<back:LightGreen><b>Docker Container</b></back>|
|<back:SeaShell><b>Docker Network    </b></back>|
|<back:Yellow><b>File System Folder </b></back>|
endlegend

	component "\nstarfruit" as x142224448 #AliceBlue {
	

		node "\n/w3prodapache" as x75531560 #LightGreen {
	

			cloud "Ports" as ports26 #SeaShell {
			card "443/tcp\n80/tcp\n" as pval25
}

			frame "Bindings"  as bind793 #Yellow {
			card "/opt/w3prod/drupalfiles/:/var/www/drupalfiles/\n/opt/w3prod/webroot/:/var/www/html/\n" as cval493
			}

	}

		node "\n/homekeyapache" as x111235695 #LightGreen {
	

			cloud "Ports" as ports294 #SeaShell {
			card "443/tcp\n80/tcp\n" as pval756
}

			frame "Bindings"  as bind835 #Yellow {
			card "/opt/homekey/drupalfiles:/var/www/drupalfiles\n/opt/homekey/sync:/var/www/content/sync/\n/opt/homekey/webroot/:/var/www/html/\n" as cval403
			}

	}

		node "\n/nofaapache" as x51798953 #LightGreen {
	

			cloud "Ports" as ports862 #SeaShell {
			card "443/tcp\n80/tcp\n" as pval926
}

			frame "Bindings"  as bind394 #Yellow {
			card "/opt/nofa/drupalfiles:/var/www/drupalfiles\n/opt/nofa/sync:/var/www/content/sync/\n/opt/nofa/webroot/:/var/www/html/\n" as cval249
			}

	}

		node "\n/acceleratorapache" as x3913926 #LightGreen {
	

			cloud "Ports" as ports117 #SeaShell {
			card "443/tcp\n80/tcp\n" as pval146
}

			frame "Bindings"  as bind241 #Yellow {
			card "/opt/accelerator/drupalfiles:/var/www/drupalfiles\n/opt/accelerator/sync:/var/www/content/sync/\n/opt/accelerator/webroot/:/var/www/html/\n" as cval73
			}

	}

	 

		node "\n/orion-orionaggregator" as x185970893 #LightGreen {
	

			cloud "Ports" as ports697 #SeaShell {
			card "4043/tcp\n" as pval572
}

			frame "Bindings"  as bind35 #Yellow {
			card "orion_cman-volume:/swdata:rw\n" as cval99
			}

	}
x75531560 -[hidden]- x111235695
x111235695 -[hidden]- x51798953
x51798953 -[hidden]- x3913926
x3913926 -[hidden]-   x185970893

}
@enduml

PlantUML version 1.2021.16(Wed Dec 08 09:25:22 PST 2021)
(GPL source distribution)
Java Runtime: Java(TM) SE Runtime Environment
JVM: Java HotSpot(TM) 64-Bit Server VM
Default Encoding: Cp1252
Language: en
Country: US
--></g></svg>