<?xml version="1.0" encoding="UTF-8" standalone="no"?><svg xmlns="http://www.w3.org/2000/svg" xmlns:xlink="http://www.w3.org/1999/xlink" contentScriptType="application/ecmascript" contentStyleType="text/css" height="626px" preserveAspectRatio="none" style="width:515px;height:626px;background:#FFFFFF;" version="1.1" viewBox="0 0 515 626" width="515px" zoomAndPan="magnify"><defs><filter height="300%" id="f1e81ukzi9pnx8" width="300%" x="-1" y="-1"><feGaussianBlur result="blurOut" stdDeviation="2.0"/><feColorMatrix in="blurOut" result="blurOut2" type="matrix" values="0 0 0 0 0 0 0 0 0 0 0 0 0 0 0 0 0 0 .4 0"/><feOffset dx="4.0" dy="4.0" in="blurOut2" result="blurOut3"/><feBlend in="SourceGraphic" in2="blurOut3" mode="normal"/></filter></defs><g><!--MD5=[051fb5e7185f07719fe4c31777123c6d]
cluster Executor--><polygon fill="#FFFFFF" filter="url(#f1e81ukzi9pnx8)" points="352,445,421,445,428,468.6094,498,468.6094,498,619,352,619,352,445" style="stroke:#000000;stroke-width:1.5;"/><line style="stroke:#000000;stroke-width:1.5;" x1="352" x2="428" y1="468.6094" y2="468.6094"/><text fill="#000000" font-family="sans-serif" font-size="14" font-weight="bold" lengthAdjust="spacing" textLength="63" x="356" y="461.5332">Executor</text><!--MD5=[df5e556bad61b9c5ca40fa6c0b5e1d83]
cluster Approvals Workflow--><polygon fill="#FFFFFF" filter="url(#f1e81ukzi9pnx8)" points="16,323,162,323,169,346.6094,328,346.6094,328,532,16,532,16,323" style="stroke:#000000;stroke-width:1.5;"/><line style="stroke:#000000;stroke-width:1.5;" x1="16" x2="169" y1="346.6094" y2="346.6094"/><text fill="#000000" font-family="sans-serif" font-size="14" font-weight="bold" lengthAdjust="spacing" textLength="140" x="20" y="339.5332">Approvals Workflow</text><!--MD5=[247ca459a94251444ffc1f5047904212]
cluster Approver--><polygon fill="#FFFFFF" filter="url(#f1e81ukzi9pnx8)" points="58,189,130,189,137,212.6094,202,212.6094,202,276,58,276,58,189" style="stroke:#000000;stroke-width:1.5;"/><line style="stroke:#000000;stroke-width:1.5;" x1="58" x2="137" y1="212.6094" y2="212.6094"/><text fill="#000000" font-family="sans-serif" font-size="14" font-weight="bold" lengthAdjust="spacing" textLength="66" x="62" y="205.5332">Approver</text><!--MD5=[5db8d5eef243a94dab9f9d922a953e4b]
cluster Requestor--><polygon fill="#FFFFFF" filter="url(#f1e81ukzi9pnx8)" points="253,6,333,6,340,29.6094,393,29.6094,393,276,253,276,253,6" style="stroke:#000000;stroke-width:1.5;"/><line style="stroke:#000000;stroke-width:1.5;" x1="253" x2="340" y1="29.6094" y2="29.6094"/><text fill="#000000" font-family="sans-serif" font-size="14" font-weight="bold" lengthAdjust="spacing" textLength="74" x="257" y="22.5332">Requestor</text><rect fill="#FEFECE" filter="url(#f1e81ukzi9pnx8)" height="35.0938" rx="12.5" ry="12.5" style="stroke:#A80036;stroke-width:1.5;" width="113" x="368.5" y="481"/><text fill="#000000" font-family="sans-serif" font-size="12" lengthAdjust="spacing" textLength="93" x="378.5" y="503.457">Execute Request</text><ellipse cx="392" cy="593" filter="url(#f1e81ukzi9pnx8)" rx="10" ry="10" style="stroke:#000000;stroke-width:1.0;fill:none;"/><ellipse cx="392.5" cy="593.5" fill="#000000" rx="6" ry="6" style="stroke:none;stroke-width:1.0;"/><rect fill="#FEFECE" filter="url(#f1e81ukzi9pnx8)" height="35.0938" rx="12.5" ry="12.5" style="stroke:#A80036;stroke-width:1.5;" width="133" x="177.5" y="359"/><text fill="#000000" font-family="sans-serif" font-size="12" lengthAdjust="spacing" textLength="113" x="187.5" y="381.457">Determine Next Step</text><rect fill="#FEFECE" filter="url(#f1e81ukzi9pnx8)" height="35.0938" rx="12.5" ry="12.5" style="stroke:#A80036;stroke-width:1.5;" width="156" x="32" y="481"/><text fill="#000000" font-family="sans-serif" font-size="12" lengthAdjust="spacing" textLength="136" x="42" y="503.457">Determine Next Approver</text><rect fill="#FEFECE" filter="url(#f1e81ukzi9pnx8)" height="35.0938" rx="12.5" ry="12.5" style="stroke:#A80036;stroke-width:1.5;" width="103" x="208.5" y="481"/><text fill="#000000" font-family="sans-serif" font-size="12" lengthAdjust="spacing" textLength="83" x="218.5" y="503.457">Close Request</text><rect fill="#FEFECE" filter="url(#f1e81ukzi9pnx8)" height="35.0938" rx="12.5" ry="12.5" style="stroke:#A80036;stroke-width:1.5;" width="111" x="74.5" y="225"/><text fill="#000000" font-family="sans-serif" font-size="12" lengthAdjust="spacing" textLength="91" x="84.5" y="247.457">Make a Decision</text><ellipse cx="323" cy="52" fill="#000000" filter="url(#f1e81ukzi9pnx8)" rx="10" ry="10" style="stroke:none;stroke-width:1.0;"/><rect fill="#FEFECE" filter="url(#f1e81ukzi9pnx8)" height="35.0938" rx="12.5" ry="12.5" style="stroke:#A80036;stroke-width:1.5;" width="107" x="269.5" y="103"/><text fill="#000000" font-family="sans-serif" font-size="12" lengthAdjust="spacing" textLength="87" x="279.5" y="125.457">Create Request</text><rect fill="#FEFECE" filter="url(#f1e81ukzi9pnx8)" height="35.0938" rx="12.5" ry="12.5" style="stroke:#A80036;stroke-width:1.5;" width="91" x="277.5" y="225"/><text fill="#000000" font-family="sans-serif" font-size="12" lengthAdjust="spacing" textLength="71" x="287.5" y="247.457">Edit Request</text><!--MD5=[53ee19482235e22919c21f86f8882685]
link Execute Request to end--><path d="M419.1,516.04 C412.72,533.93 402.66,562.12 396.76,578.66 " fill="none" id="Execute Request-to-end" style="stroke:#A80036;stroke-width:1.0;"/><polygon fill="#A80036" points="395.07,583.39,401.8475,576.244,396.7408,578.6774,394.3074,573.5707,395.07,583.39" style="stroke:#A80036;stroke-width:1.0;"/><text fill="#000000" font-family="sans-serif" font-size="11" lengthAdjust="spacing" textLength="45" x="408" y="560.4189">executed</text><!--MD5=[62fb6ef8b53a212105964470fdc2fcef]
link Determine Next Step to Determine Next Approver--><path d="M221.09,394.04 C213,400.11 203.94,407.17 196,414 C172.24,434.44 146.67,459.73 129.64,477.09 " fill="none" id="Determine Next Step-to-Determine Next Approver" style="stroke:#A80036;stroke-width:1.0;"/><polygon fill="#A80036" points="125.93,480.89,135.0788,477.2431,129.4223,477.3118,129.3536,471.6554,125.93,480.89" style="stroke:#A80036;stroke-width:1.0;"/><text fill="#000000" font-family="sans-serif" font-size="11" lengthAdjust="spacing" textLength="46" x="197" y="426.4189">approved</text><!--MD5=[bd9c9faa294c91fee4bb788e633d3e3d]
link Determine Next Step to Close Request--><path d="M246.22,394.19 C249.07,415.5 253.99,452.43 257.12,475.88 " fill="none" id="Determine Next Step-to-Close Request" style="stroke:#A80036;stroke-width:1.0;"/><polygon fill="#A80036" points="257.79,480.96,260.5726,471.5124,257.1329,476.0034,252.642,472.5637,257.79,480.96" style="stroke:#A80036;stroke-width:1.0;"/><text fill="#000000" font-family="sans-serif" font-size="11" lengthAdjust="spacing" textLength="39" x="251" y="426.4189">rejected</text><!--MD5=[8c5a56132872c58ccdb4a4f9959ad214]
link Close Request to end--><path d="M283.6,516.04 C311.85,535.83 358.06,568.22 379.87,583.5 " fill="none" id="Close Request-to-end" style="stroke:#A80036;stroke-width:1.0;"/><polygon fill="#A80036" points="384.14,586.49,379.043,578.0626,380.0378,583.6313,374.4691,584.6261,384.14,586.49" style="stroke:#A80036;stroke-width:1.0;"/><!--MD5=[7d61c7f28ba530f9a2ef726e56517ff9]
link Determine Next Step to Execute Request--><path d="M269.17,394.19 C302.26,416.13 360.32,454.62 395.46,477.91 " fill="none" id="Determine Next Step-to-Execute Request" style="stroke:#A80036;stroke-width:1.0;stroke-dasharray:1.0,3.0;"/><polygon fill="#A80036" points="400.05,480.96,394.7672,472.6478,395.8854,478.1931,390.3401,479.3113,400.05,480.96" style="stroke:#A80036;stroke-width:1.0;"/><text fill="#000000" font-family="sans-serif" font-size="11" lengthAdjust="spacing" textLength="59" x="319" y="426.4189">all approved</text><!--MD5=[e3c12631658bab51465baf6c5a880c49]
link Determine Next Approver to Make a Decision--><path d="M111.32,480.77 C114.82,436.3 124.36,315.12 128.28,265.32 " fill="none" id="Determine Next Approver-to-Make a Decision" style="stroke:#A80036;stroke-width:1.0;"/><polygon fill="#A80036" points="128.69,260.17,123.9831,268.8213,128.2901,265.154,131.9574,269.4611,128.69,260.17" style="stroke:#A80036;stroke-width:1.0;"/><text fill="#000000" font-family="sans-serif" font-size="11" lengthAdjust="spacing" textLength="27" x="126" y="381.4189">notify</text><!--MD5=[1c40727d9bc4112838e8207c57a64a6e]
link Make a Decision to Determine Next Step--><path d="M134.84,260.06 C139.35,273.6 147.04,292.78 158,307 C172.93,326.37 194.46,343.51 212.25,355.8 " fill="none" id="Make a Decision-to-Determine Next Step" style="stroke:#A80036;stroke-width:1.0;stroke-dasharray:1.0,3.0;"/><polygon fill="#A80036" points="216.68,358.82,211.4964,350.4456,212.5486,356.0038,206.9904,357.0559,216.68,358.82" style="stroke:#A80036;stroke-width:1.0;"/><text fill="#000000" font-family="sans-serif" font-size="11" lengthAdjust="spacing" textLength="69" x="159" y="304.4189">decision made</text><!--MD5=[8b0be74731468b8943ed4df01655bdd6]
link start to Create Request--><path d="M323,62.25 C323,71.43 323,85.84 323,97.9 " fill="none" id="start-to-Create Request" style="stroke:#A80036;stroke-width:1.0;"/><polygon fill="#A80036" points="323,102.91,327,93.91,323,97.91,319,93.91,323,102.91" style="stroke:#A80036;stroke-width:1.0;"/><!--MD5=[e3216ccd6474f19437fa4bc3a9746956]
link Create Request to Edit Request--><path d="M323,138.19 C323,159.5 323,196.43 323,219.88 " fill="none" id="Create Request-to-Edit Request" style="stroke:#A80036;stroke-width:1.0;"/><polygon fill="#A80036" points="323,224.96,327,215.96,323,219.96,319,215.96,323,224.96" style="stroke:#A80036;stroke-width:1.0;"/><text fill="#000000" font-family="sans-serif" font-size="11" lengthAdjust="spacing" textLength="39" x="324" y="170.4189">add info</text><!--MD5=[f9d51a6d91aba5493d5dc6b0abd20fcf]
link Edit Request to Determine Next Step--><path d="M335.51,260.02 C343.85,273.2 351.96,291.9 344,307 C332.37,329.07 310.07,345.38 289.47,356.55 " fill="none" id="Edit Request-to-Determine Next Step" style="stroke:#A80036;stroke-width:1.0;"/><polygon fill="#A80036" points="284.84,358.99,294.6658,358.3171,289.2596,356.6519,290.9248,351.2457,284.84,358.99" style="stroke:#A80036;stroke-width:1.0;"/><text fill="#000000" font-family="sans-serif" font-size="11" lengthAdjust="spacing" textLength="31" x="348" y="304.4189">submit</text><!--MD5=[9da4c824cfb467b5245f130210cb19f1]
link Determine Next Step to Edit Request--><path d="M238.23,358.9 C233.13,341.11 228.15,312.64 240,292 C247.46,278.99 259.91,269.14 272.93,261.84 " fill="none" id="Determine Next Step-to-Edit Request" style="stroke:#A80036;stroke-width:1.0;"/><polygon fill="#A80036" points="277.35,259.45,267.5296,260.1988,272.9486,261.8222,271.3252,267.2411,277.35,259.45" style="stroke:#A80036;stroke-width:1.0;"/><text fill="#000000" font-family="sans-serif" font-size="11" lengthAdjust="spacing" textLength="97" x="241" y="304.4189">more info requested</text><!--MD5=[b62d7e87c244bc35ea539f0266d82653]
@startuml


partition Executor {
    "Execute Request" -down-> [executed] (*)
}

partition "Approvals Workflow" {
    "Determine Next Step" - -> [approved] "Determine Next Approver"
    "Determine Next Step" - -> [rejected] "Close Request"
    "Close Request" -down-> (*)
    "Determine Next Step" ..> [all approved] "Execute Request"
}


partition Approver {
    "Determine Next Approver" -right-> [notify] "Make a Decision"
    "Make a Decision" ..> [decision made] "Determine Next Step"
}

partition Requestor {
    (*) - -> "Create Request"
    "Create Request" - -> [add info] "Edit Request"
    "Edit Request" - -> [submit] "Determine Next Step"
    "Determine Next Step" - -> [more info requested] "Edit Request"
    
}

@enduml

PlantUML version 1.2021.16(Wed Dec 08 09:25:22 PST 2021)
(GPL source distribution)
Java Runtime: OpenJDK Runtime Environment
JVM: OpenJDK 64-Bit Server VM
Default Encoding: Cp1252
Language: en
Country: US
--></g></svg>