<?xml version="1.0" encoding="UTF-8" standalone="no"?><svg xmlns="http://www.w3.org/2000/svg" xmlns:xlink="http://www.w3.org/1999/xlink" contentScriptType="application/ecmascript" contentStyleType="text/css" height="513px" preserveAspectRatio="none" style="width:1824px;height:513px;background:#FFFFFF;" version="1.1" viewBox="0 0 1824 513" width="1824px" zoomAndPan="magnify"><defs/><g><rect fill="#FFFFFF" height="108.0469" rx="5" ry="5" style="stroke:#FFFFFF;stroke-width:1.5;" width="369" x="10" y="81"/><text fill="#000000" font-family="sans-serif" font-size="14" font-weight="bold" lengthAdjust="spacing" textLength="113" x="15" y="97.5332">normalizedInput</text><text fill="#000000" font-family="sans-serif" font-size="14" lengthAdjust="spacing" textLength="0" x="150" y="97.5332"/><line style="stroke:#000000;stroke-width:1.0;" x1="133" x2="133" y1="81" y2="102.6094"/><line style="stroke:#000000;stroke-width:1.0;" x1="10" x2="379" y1="102.6094" y2="102.6094"/><text fill="#000000" font-family="sans-serif" font-size="14" font-weight="bold" lengthAdjust="spacing" textLength="30" x="15" y="119.1426">kind</text><text fill="#000000" font-family="sans-serif" font-size="14" lengthAdjust="spacing" textLength="236" x="138" y="119.1426">civicinfo#representativeInfoResponse</text><line style="stroke:#000000;stroke-width:1.0;" x1="133" x2="133" y1="102.6094" y2="124.2188"/><line style="stroke:#000000;stroke-width:1.0;" x1="10" x2="379" y1="124.2188" y2="124.2188"/><text fill="#000000" font-family="sans-serif" font-size="14" font-weight="bold" lengthAdjust="spacing" textLength="64" x="15" y="140.752">divisions</text><text fill="#000000" font-family="sans-serif" font-size="14" lengthAdjust="spacing" textLength="0" x="150" y="140.752"/><line style="stroke:#000000;stroke-width:1.0;" x1="133" x2="133" y1="124.2188" y2="145.8281"/><line style="stroke:#000000;stroke-width:1.0;" x1="10" x2="379" y1="145.8281" y2="145.8281"/><text fill="#000000" font-family="sans-serif" font-size="14" font-weight="bold" lengthAdjust="spacing" textLength="48" x="15" y="162.3613">offices</text><text fill="#000000" font-family="sans-serif" font-size="14" lengthAdjust="spacing" textLength="0" x="150" y="162.3613"/><line style="stroke:#000000;stroke-width:1.0;" x1="133" x2="133" y1="145.8281" y2="167.4375"/><line style="stroke:#000000;stroke-width:1.0;" x1="10" x2="379" y1="167.4375" y2="167.4375"/><text fill="#000000" font-family="sans-serif" font-size="14" font-weight="bold" lengthAdjust="spacing" textLength="55" x="15" y="183.9707">officials</text><text fill="#000000" font-family="sans-serif" font-size="14" lengthAdjust="spacing" textLength="0" x="150" y="183.9707"/><line style="stroke:#000000;stroke-width:1.0;" x1="133" x2="133" y1="167.4375" y2="189.0469"/><rect fill="none" height="108.0469" rx="5" ry="5" style="stroke:#000000;stroke-width:1.5;" width="369" x="10" y="81"/><rect fill="#FFFFFF" height="86.4375" rx="5" ry="5" style="stroke:#FFFFFF;stroke-width:1.5;" width="147" x="493.5" y="10"/><text fill="#000000" font-family="sans-serif" font-size="14" font-weight="bold" lengthAdjust="spacing" textLength="34" x="498.5" y="26.5332">line1</text><text fill="#000000" font-family="sans-serif" font-size="14" lengthAdjust="spacing" textLength="92" x="543.5" y="26.5332">73 Dean Road</text><line style="stroke:#000000;stroke-width:1.0;" x1="538.5" x2="538.5" y1="10" y2="31.6094"/><line style="stroke:#000000;stroke-width:1.0;" x1="493.5" x2="640.5" y1="31.6094" y2="31.6094"/><text fill="#000000" font-family="sans-serif" font-size="14" font-weight="bold" lengthAdjust="spacing" textLength="24" x="498.5" y="48.1426">city</text><text fill="#000000" font-family="sans-serif" font-size="14" lengthAdjust="spacing" textLength="76" x="543.5" y="48.1426">Sacramento</text><line style="stroke:#000000;stroke-width:1.0;" x1="538.5" x2="538.5" y1="31.6094" y2="53.2188"/><line style="stroke:#000000;stroke-width:1.0;" x1="493.5" x2="640.5" y1="53.2188" y2="53.2188"/><text fill="#000000" font-family="sans-serif" font-size="14" font-weight="bold" lengthAdjust="spacing" textLength="35" x="498.5" y="69.752">state</text><text fill="#000000" font-family="sans-serif" font-size="14" lengthAdjust="spacing" textLength="19" x="543.5" y="69.752">CA</text><line style="stroke:#000000;stroke-width:1.0;" x1="538.5" x2="538.5" y1="53.2188" y2="74.8281"/><line style="stroke:#000000;stroke-width:1.0;" x1="493.5" x2="640.5" y1="74.8281" y2="74.8281"/><text fill="#000000" font-family="sans-serif" font-size="14" font-weight="bold" lengthAdjust="spacing" textLength="20" x="498.5" y="91.3613">zip</text><text fill="#000000" font-family="sans-serif" font-size="14" lengthAdjust="spacing" textLength="40" x="543.5" y="91.3613">95815</text><line style="stroke:#000000;stroke-width:1.0;" x1="538.5" x2="538.5" y1="74.8281" y2="96.4375"/><rect fill="none" height="86.4375" rx="5" ry="5" style="stroke:#000000;stroke-width:1.5;" width="147" x="493.5" y="10"/><rect fill="#FFFFFF" height="21.6094" rx="5" ry="5" style="stroke:#FFFFFF;stroke-width:1.5;" width="302" x="416" y="114"/><text fill="#000000" font-family="sans-serif" font-size="14" font-weight="bold" lengthAdjust="spacing" textLength="270" x="421" y="130.5332">ocd-division/country:us/state:ca/sldu:6</text><text fill="#000000" font-family="sans-serif" font-size="14" lengthAdjust="spacing" textLength="0" x="713" y="130.5332"/><line style="stroke:#000000;stroke-width:1.0;" x1="696" x2="696" y1="114" y2="135.6094"/><rect fill="none" height="21.6094" rx="5" ry="5" style="stroke:#000000;stroke-width:1.5;" width="302" x="416" y="114"/><rect fill="#FFFFFF" height="43.2188" rx="5" ry="5" style="stroke:#FFFFFF;stroke-width:1.5;" width="314" x="881.5" y="49.5"/><text fill="#000000" font-family="sans-serif" font-size="14" font-weight="bold" lengthAdjust="spacing" textLength="38" x="886.5" y="66.0332">name</text><text fill="#000000" font-family="sans-serif" font-size="14" lengthAdjust="spacing" textLength="203" x="987.5" y="66.0332">California State Senate district 6</text><line style="stroke:#000000;stroke-width:1.0;" x1="982.5" x2="982.5" y1="49.5" y2="71.1094"/><line style="stroke:#000000;stroke-width:1.0;" x1="881.5" x2="1195.5" y1="71.1094" y2="71.1094"/><text fill="#000000" font-family="sans-serif" font-size="14" font-weight="bold" lengthAdjust="spacing" textLength="91" x="886.5" y="87.6426">officeIndices</text><text fill="#000000" font-family="sans-serif" font-size="14" lengthAdjust="spacing" textLength="0" x="999.5" y="87.6426"/><line style="stroke:#000000;stroke-width:1.0;" x1="982.5" x2="982.5" y1="71.1094" y2="92.7188"/><rect fill="none" height="43.2188" rx="5" ry="5" style="stroke:#000000;stroke-width:1.5;" width="314" x="881.5" y="49.5"/><rect fill="#FFFFFF" height="21.6094" rx="5" ry="5" style="stroke:#FFFFFF;stroke-width:1.5;" width="18" x="1480.5" y="71"/><text fill="#000000" font-family="sans-serif" font-size="14" lengthAdjust="spacing" textLength="8" x="1485.5" y="87.5332">0</text><rect fill="none" height="21.6094" rx="5" ry="5" style="stroke:#000000;stroke-width:1.5;" width="18" x="1480.5" y="71"/><rect fill="#FFFFFF" height="21.6094" rx="5" ry="5" style="stroke:#FFFFFF;stroke-width:1.5;" width="22" x="555" y="154"/><text fill="#000000" font-family="sans-serif" font-size="14" lengthAdjust="spacing" textLength="0" x="572" y="170.5332"/><rect fill="none" height="21.6094" rx="5" ry="5" style="stroke:#000000;stroke-width:1.5;" width="22" x="555" y="154"/><rect fill="#FFFFFF" height="108.0469" rx="5" ry="5" style="stroke:#FFFFFF;stroke-width:1.5;" width="359" x="859" y="111"/><text fill="#000000" font-family="sans-serif" font-size="14" font-weight="bold" lengthAdjust="spacing" textLength="38" x="864" y="127.5332">name</text><text fill="#000000" font-family="sans-serif" font-size="14" lengthAdjust="spacing" textLength="110" x="972" y="127.5332">CA State Senator</text><line style="stroke:#000000;stroke-width:1.0;" x1="967" x2="967" y1="111" y2="132.6094"/><line style="stroke:#000000;stroke-width:1.0;" x1="859" x2="1218" y1="132.6094" y2="132.6094"/><text fill="#000000" font-family="sans-serif" font-size="14" font-weight="bold" lengthAdjust="spacing" textLength="69" x="864" y="149.1426">divisionId</text><text fill="#000000" font-family="sans-serif" font-size="14" lengthAdjust="spacing" textLength="241" x="972" y="149.1426">ocd-division/country:us/state:ca/sldu:6</text><line style="stroke:#000000;stroke-width:1.0;" x1="967" x2="967" y1="132.6094" y2="154.2188"/><line style="stroke:#000000;stroke-width:1.0;" x1="859" x2="1218" y1="154.2188" y2="154.2188"/><text fill="#000000" font-family="sans-serif" font-size="14" font-weight="bold" lengthAdjust="spacing" textLength="43" x="864" y="170.752">levels</text><text fill="#000000" font-family="sans-serif" font-size="14" lengthAdjust="spacing" textLength="0" x="984" y="170.752"/><line style="stroke:#000000;stroke-width:1.0;" x1="967" x2="967" y1="154.2188" y2="175.8281"/><line style="stroke:#000000;stroke-width:1.0;" x1="859" x2="1218" y1="175.8281" y2="175.8281"/><text fill="#000000" font-family="sans-serif" font-size="14" font-weight="bold" lengthAdjust="spacing" textLength="36" x="864" y="192.3613">roles</text><text fill="#000000" font-family="sans-serif" font-size="14" lengthAdjust="spacing" textLength="0" x="984" y="192.3613"/><line style="stroke:#000000;stroke-width:1.0;" x1="967" x2="967" y1="175.8281" y2="197.4375"/><line style="stroke:#000000;stroke-width:1.0;" x1="859" x2="1218" y1="197.4375" y2="197.4375"/><text fill="#000000" font-family="sans-serif" font-size="14" font-weight="bold" lengthAdjust="spacing" textLength="98" x="864" y="213.9707">officialIndices</text><text fill="#000000" font-family="sans-serif" font-size="14" lengthAdjust="spacing" textLength="0" x="984" y="213.9707"/><line style="stroke:#000000;stroke-width:1.0;" x1="967" x2="967" y1="197.4375" y2="219.0469"/><rect fill="none" height="108.0469" rx="5" ry="5" style="stroke:#000000;stroke-width:1.5;" width="359" x="859" y="111"/><rect fill="#FFFFFF" height="21.6094" rx="5" ry="5" style="stroke:#FFFFFF;stroke-width:1.5;" width="135" x="1425" y="126"/><text fill="#000000" font-family="sans-serif" font-size="14" lengthAdjust="spacing" textLength="125" x="1430" y="142.5332">administrativeArea1</text><rect fill="none" height="21.6094" rx="5" ry="5" style="stroke:#000000;stroke-width:1.5;" width="135" x="1425" y="126"/><rect fill="#FFFFFF" height="21.6094" rx="5" ry="5" style="stroke:#FFFFFF;stroke-width:1.5;" width="137" x="1424" y="166"/><text fill="#000000" font-family="sans-serif" font-size="14" lengthAdjust="spacing" textLength="127" x="1429" y="182.5332">legislatorUpperBody</text><rect fill="none" height="21.6094" rx="5" ry="5" style="stroke:#000000;stroke-width:1.5;" width="137" x="1424" y="166"/><rect fill="#FFFFFF" height="21.6094" rx="5" ry="5" style="stroke:#FFFFFF;stroke-width:1.5;" width="18" x="1480.5" y="206"/><text fill="#000000" font-family="sans-serif" font-size="14" lengthAdjust="spacing" textLength="8" x="1485.5" y="222.5332">0</text><rect fill="none" height="21.6094" rx="5" ry="5" style="stroke:#000000;stroke-width:1.5;" width="18" x="1480.5" y="206"/><rect fill="#FFFFFF" height="21.6094" rx="5" ry="5" style="stroke:#FFFFFF;stroke-width:1.5;" width="22" x="555" y="254"/><text fill="#000000" font-family="sans-serif" font-size="14" lengthAdjust="spacing" textLength="0" x="572" y="270.5332"/><rect fill="none" height="21.6094" rx="5" ry="5" style="stroke:#000000;stroke-width:1.5;" width="22" x="555" y="254"/><rect fill="#FFFFFF" height="172.875" rx="5" ry="5" style="stroke:#FFFFFF;stroke-width:1.5;" width="567" x="755" y="239.5"/><text fill="#000000" font-family="sans-serif" font-size="14" font-weight="bold" lengthAdjust="spacing" textLength="38" x="760" y="256.0332">name</text><text fill="#000000" font-family="sans-serif" font-size="14" lengthAdjust="spacing" textLength="78" x="834" y="256.0332">Richard Pan</text><line style="stroke:#000000;stroke-width:1.0;" x1="829" x2="829" y1="239.5" y2="261.1094"/><line style="stroke:#000000;stroke-width:1.0;" x1="755" x2="1322" y1="261.1094" y2="261.1094"/><text fill="#000000" font-family="sans-serif" font-size="14" font-weight="bold" lengthAdjust="spacing" textLength="57" x="760" y="277.6426">address</text><text fill="#000000" font-family="sans-serif" font-size="14" lengthAdjust="spacing" textLength="0" x="846" y="277.6426"/><line style="stroke:#000000;stroke-width:1.0;" x1="829" x2="829" y1="261.1094" y2="282.7188"/><line style="stroke:#000000;stroke-width:1.0;" x1="755" x2="1322" y1="282.7188" y2="282.7188"/><text fill="#000000" font-family="sans-serif" font-size="14" font-weight="bold" lengthAdjust="spacing" textLength="35" x="760" y="299.252">party</text><text fill="#000000" font-family="sans-serif" font-size="14" lengthAdjust="spacing" textLength="108" x="834" y="299.252">Democratic Party</text><line style="stroke:#000000;stroke-width:1.0;" x1="829" x2="829" y1="282.7188" y2="304.3281"/><line style="stroke:#000000;stroke-width:1.0;" x1="755" x2="1322" y1="304.3281" y2="304.3281"/><text fill="#000000" font-family="sans-serif" font-size="14" font-weight="bold" lengthAdjust="spacing" textLength="53" x="760" y="320.8613">phones</text><text fill="#000000" font-family="sans-serif" font-size="14" lengthAdjust="spacing" textLength="0" x="846" y="320.8613"/><line style="stroke:#000000;stroke-width:1.0;" x1="829" x2="829" y1="304.3281" y2="325.9375"/><line style="stroke:#000000;stroke-width:1.0;" x1="755" x2="1322" y1="325.9375" y2="325.9375"/><text fill="#000000" font-family="sans-serif" font-size="14" font-weight="bold" lengthAdjust="spacing" textLength="27" x="760" y="342.4707">urls</text><text fill="#000000" font-family="sans-serif" font-size="14" lengthAdjust="spacing" textLength="0" x="846" y="342.4707"/><line style="stroke:#000000;stroke-width:1.0;" x1="829" x2="829" y1="325.9375" y2="347.5469"/><line style="stroke:#000000;stroke-width:1.0;" x1="755" x2="1322" y1="347.5469" y2="347.5469"/><text fill="#000000" font-family="sans-serif" font-size="14" font-weight="bold" lengthAdjust="spacing" textLength="61" x="760" y="364.0801">photoUrl</text><text fill="#000000" font-family="sans-serif" font-size="14" lengthAdjust="spacing" textLength="483" x="834" y="364.0801">http://senate.ca.gov/sites/senate.ca.gov/files/senator_photos/pan-richard.jpg</text><line style="stroke:#000000;stroke-width:1.0;" x1="829" x2="829" y1="347.5469" y2="369.1563"/><line style="stroke:#000000;stroke-width:1.0;" x1="755" x2="1322" y1="369.1563" y2="369.1563"/><text fill="#000000" font-family="sans-serif" font-size="14" font-weight="bold" lengthAdjust="spacing" textLength="45" x="760" y="385.6895">emails</text><text fill="#000000" font-family="sans-serif" font-size="14" lengthAdjust="spacing" textLength="0" x="846" y="385.6895"/><line style="stroke:#000000;stroke-width:1.0;" x1="829" x2="829" y1="369.1563" y2="390.7656"/><line style="stroke:#000000;stroke-width:1.0;" x1="755" x2="1322" y1="390.7656" y2="390.7656"/><text fill="#000000" font-family="sans-serif" font-size="14" font-weight="bold" lengthAdjust="spacing" textLength="64" x="760" y="407.2988">channels</text><text fill="#000000" font-family="sans-serif" font-size="14" lengthAdjust="spacing" textLength="0" x="846" y="407.2988"/><line style="stroke:#000000;stroke-width:1.0;" x1="829" x2="829" y1="390.7656" y2="412.375"/><rect fill="none" height="172.875" rx="5" ry="5" style="stroke:#000000;stroke-width:1.5;" width="567" x="755" y="239.5"/><rect fill="#FFFFFF" height="21.6094" rx="5" ry="5" style="stroke:#FFFFFF;stroke-width:1.5;" width="22" x="1480.5" y="246"/><text fill="#000000" font-family="sans-serif" font-size="14" lengthAdjust="spacing" textLength="0" x="1497.5" y="262.5332"/><rect fill="none" height="21.6094" rx="5" ry="5" style="stroke:#000000;stroke-width:1.5;" width="22" x="1480.5" y="246"/><rect fill="#FFFFFF" height="108.0469" rx="5" ry="5" style="stroke:#FFFFFF;stroke-width:1.5;" width="136" x="1669.5" y="203"/><text fill="#000000" font-family="sans-serif" font-size="14" font-weight="bold" lengthAdjust="spacing" textLength="34" x="1674.5" y="219.5332">line1</text><text fill="#000000" font-family="sans-serif" font-size="14" lengthAdjust="spacing" textLength="81" x="1719.5" y="219.5332">State Capitol</text><line style="stroke:#000000;stroke-width:1.0;" x1="1714.5" x2="1714.5" y1="203" y2="224.6094"/><line style="stroke:#000000;stroke-width:1.0;" x1="1669.5" x2="1805.5" y1="224.6094" y2="224.6094"/><text fill="#000000" font-family="sans-serif" font-size="14" font-weight="bold" lengthAdjust="spacing" textLength="34" x="1674.5" y="241.1426">line2</text><text fill="#000000" font-family="sans-serif" font-size="14" lengthAdjust="spacing" textLength="32" x="1719.5" y="241.1426">1315</text><line style="stroke:#000000;stroke-width:1.0;" x1="1714.5" x2="1714.5" y1="224.6094" y2="246.2188"/><line style="stroke:#000000;stroke-width:1.0;" x1="1669.5" x2="1805.5" y1="246.2188" y2="246.2188"/><text fill="#000000" font-family="sans-serif" font-size="14" font-weight="bold" lengthAdjust="spacing" textLength="24" x="1674.5" y="262.752">city</text><text fill="#000000" font-family="sans-serif" font-size="14" lengthAdjust="spacing" textLength="76" x="1719.5" y="262.752">Sacramento</text><line style="stroke:#000000;stroke-width:1.0;" x1="1714.5" x2="1714.5" y1="246.2188" y2="267.8281"/><line style="stroke:#000000;stroke-width:1.0;" x1="1669.5" x2="1805.5" y1="267.8281" y2="267.8281"/><text fill="#000000" font-family="sans-serif" font-size="14" font-weight="bold" lengthAdjust="spacing" textLength="35" x="1674.5" y="284.3613">state</text><text fill="#000000" font-family="sans-serif" font-size="14" lengthAdjust="spacing" textLength="19" x="1719.5" y="284.3613">CA</text><line style="stroke:#000000;stroke-width:1.0;" x1="1714.5" x2="1714.5" y1="267.8281" y2="289.4375"/><line style="stroke:#000000;stroke-width:1.0;" x1="1669.5" x2="1805.5" y1="289.4375" y2="289.4375"/><text fill="#000000" font-family="sans-serif" font-size="14" font-weight="bold" lengthAdjust="spacing" textLength="20" x="1674.5" y="305.9707">zip</text><text fill="#000000" font-family="sans-serif" font-size="14" lengthAdjust="spacing" textLength="40" x="1719.5" y="305.9707">95814</text><line style="stroke:#000000;stroke-width:1.0;" x1="1714.5" x2="1714.5" y1="289.4375" y2="311.0469"/><rect fill="none" height="108.0469" rx="5" ry="5" style="stroke:#000000;stroke-width:1.5;" width="136" x="1669.5" y="203"/><rect fill="#FFFFFF" height="21.6094" rx="5" ry="5" style="stroke:#FFFFFF;stroke-width:1.5;" width="109" x="1438" y="286"/><text fill="#000000" font-family="sans-serif" font-size="14" lengthAdjust="spacing" textLength="99" x="1443" y="302.5332">(916) 651-4006</text><rect fill="none" height="21.6094" rx="5" ry="5" style="stroke:#000000;stroke-width:1.5;" width="109" x="1438" y="286"/><rect fill="#FFFFFF" height="43.2188" rx="5" ry="5" style="stroke:#FFFFFF;stroke-width:1.5;" width="267" x="1359" y="326.5"/><text fill="#000000" font-family="sans-serif" font-size="14" lengthAdjust="spacing" textLength="171" x="1364" y="343.0332">https://sd06.senate.ca.gov/</text><line style="stroke:#000000;stroke-width:1.0;" x1="1359" x2="1626" y1="348.1094" y2="348.1094"/><text fill="#000000" font-family="sans-serif" font-size="14" lengthAdjust="spacing" textLength="257" x="1364" y="364.6426">https://en.wikipedia.org/wiki/Richard_Pan</text><rect fill="none" height="43.2188" rx="5" ry="5" style="stroke:#000000;stroke-width:1.5;" width="267" x="1359" y="326.5"/><rect fill="#FFFFFF" height="21.6094" rx="5" ry="5" style="stroke:#FFFFFF;stroke-width:1.5;" width="169" x="1408" y="388"/><text fill="#000000" font-family="sans-serif" font-size="14" lengthAdjust="spacing" textLength="159" x="1413" y="404.5332">senator.pan@sen.ca.gov</text><rect fill="none" height="21.6094" rx="5" ry="5" style="stroke:#000000;stroke-width:1.5;" width="169" x="1408" y="388"/><rect fill="#FFFFFF" height="43.2188" rx="5" ry="5" style="stroke:#FFFFFF;stroke-width:1.5;" width="22" x="1480.5" y="428.5"/><text fill="#000000" font-family="sans-serif" font-size="14" lengthAdjust="spacing" textLength="0" x="1497.5" y="445.0332"/><line style="stroke:#000000;stroke-width:1.0;" x1="1480.5" x2="1502.5" y1="450.1094" y2="450.1094"/><text fill="#000000" font-family="sans-serif" font-size="14" lengthAdjust="spacing" textLength="0" x="1497.5" y="466.6426"/><rect fill="none" height="43.2188" rx="5" ry="5" style="stroke:#000000;stroke-width:1.5;" width="22" x="1480.5" y="428.5"/><rect fill="#FFFFFF" height="43.2188" rx="5" ry="5" style="stroke:#FFFFFF;stroke-width:1.5;" width="149" x="1663" y="397.5"/><text fill="#000000" font-family="sans-serif" font-size="14" font-weight="bold" lengthAdjust="spacing" textLength="30" x="1668" y="414.0332">type</text><text fill="#000000" font-family="sans-serif" font-size="14" lengthAdjust="spacing" textLength="63" x="1708" y="414.0332">Facebook</text><line style="stroke:#000000;stroke-width:1.0;" x1="1703" x2="1703" y1="397.5" y2="419.1094"/><line style="stroke:#000000;stroke-width:1.0;" x1="1663" x2="1812" y1="419.1094" y2="419.1094"/><text fill="#000000" font-family="sans-serif" font-size="14" font-weight="bold" lengthAdjust="spacing" textLength="13" x="1668" y="435.6426">id</text><text fill="#000000" font-family="sans-serif" font-size="14" lengthAdjust="spacing" textLength="99" x="1708" y="435.6426">SenRichardPan</text><line style="stroke:#000000;stroke-width:1.0;" x1="1703" x2="1703" y1="419.1094" y2="440.7188"/><rect fill="none" height="43.2188" rx="5" ry="5" style="stroke:#000000;stroke-width:1.5;" width="149" x="1663" y="397.5"/><rect fill="#FFFFFF" height="43.2188" rx="5" ry="5" style="stroke:#FFFFFF;stroke-width:1.5;" width="111" x="1682" y="458.5"/><text fill="#000000" font-family="sans-serif" font-size="14" font-weight="bold" lengthAdjust="spacing" textLength="30" x="1687" y="475.0332">type</text><text fill="#000000" font-family="sans-serif" font-size="14" lengthAdjust="spacing" textLength="42" x="1727" y="475.0332">Twitter</text><line style="stroke:#000000;stroke-width:1.0;" x1="1722" x2="1722" y1="458.5" y2="480.1094"/><line style="stroke:#000000;stroke-width:1.0;" x1="1682" x2="1793" y1="480.1094" y2="480.1094"/><text fill="#000000" font-family="sans-serif" font-size="14" font-weight="bold" lengthAdjust="spacing" textLength="13" x="1687" y="496.6426">id</text><text fill="#000000" font-family="sans-serif" font-size="14" lengthAdjust="spacing" textLength="61" x="1727" y="496.6426">DrPanMD</text><line style="stroke:#000000;stroke-width:1.0;" x1="1722" x2="1722" y1="480.1094" y2="501.7188"/><rect fill="none" height="43.2188" rx="5" ry="5" style="stroke:#000000;stroke-width:1.5;" width="111" x="1682" y="458.5"/><path d="M367,91 L380,91 C415.3284,91 453.677,84.3721 486.3613,76.6524 " fill="none" style="stroke:#000000;stroke-width:1.0;stroke-dasharray:3.0,3.0;"/><path d="M487.0684,79.5784 L488.5557,76.1221 L485.6542,73.7265 L493.6761,74.8846 L487.0684,79.5784 " fill="#000000" style="stroke:#000000;stroke-width:1.0;"/><ellipse cx="367" cy="91" fill="#000000" rx="3" ry="3" style="stroke:#000000;stroke-width:1.0;"/><path d="M1184,82 L1197,82 C1301.3591,82 1426.4847,82 1473.2013,82 " fill="none" style="stroke:#000000;stroke-width:1.0;stroke-dasharray:3.0,3.0;"/><path d="M1473.2013,85.0181 L1475.4649,82 L1473.2013,78.9819 L1480.7466,82 L1473.2013,85.0181 " fill="#000000" style="stroke:#000000;stroke-width:1.0;"/><ellipse cx="1184" cy="82" fill="#000000" rx="3" ry="3" style="stroke:#000000;stroke-width:1.0;"/><path d="M706,125 L719,125 C737.9867,125 737.0927,108.3106 755,102 C792.3656,88.8322 834.0768,80.8712 873.7492,76.1473 " fill="none" style="stroke:#000000;stroke-width:1.0;stroke-dasharray:3.0,3.0;"/><path d="M874.1101,79.3094 L876.1208,75.8766 L873.3883,72.9851 L881.6546,75.2451 L874.1101,79.3094 " fill="#000000" style="stroke:#000000;stroke-width:1.0;"/><ellipse cx="706" cy="125" fill="#000000" rx="3" ry="3" style="stroke:#000000;stroke-width:1.0;"/><path d="M367,134 L380,134 C389.3361,134 398.932,133.8861 408.6112,133.6839 " fill="none" style="stroke:#000000;stroke-width:1.0;stroke-dasharray:3.0,3.0;"/><path d="M408.6834,136.7947 L410.9443,133.6297 L408.539,130.5731 L416.3881,133.5033 L408.6834,136.7947 " fill="#000000" style="stroke:#000000;stroke-width:1.0;"/><ellipse cx="367" cy="134" fill="#000000" rx="3" ry="3" style="stroke:#000000;stroke-width:1.0;"/><path d="M1207,164 L1220,164 C1287.1907,164 1363.2631,155.7406 1417.8384,148.358 " fill="none" style="stroke:#000000;stroke-width:1.0;stroke-dasharray:3.0,3.0;"/><path d="M1418.2524,151.38 L1420.1049,148.0476 L1417.4244,145.3361 L1425.3934,147.3231 L1418.2524,151.38 " fill="#000000" style="stroke:#000000;stroke-width:1.0;"/><ellipse cx="1207" cy="164" fill="#000000" rx="3" ry="3" style="stroke:#000000;stroke-width:1.0;"/><path d="M1207,186 L1220,186 C1286.5603,186 1362.2323,183.2746 1416.8322,180.8234 " fill="none" style="stroke:#000000;stroke-width:1.0;stroke-dasharray:3.0,3.0;"/><path d="M1416.9697,183.8479 L1419.1006,180.7203 L1416.6947,177.7989 L1424.3935,180.4796 L1416.9697,183.8479 " fill="#000000" style="stroke:#000000;stroke-width:1.0;"/><ellipse cx="1207" cy="186" fill="#000000" rx="3" ry="3" style="stroke:#000000;stroke-width:1.0;"/><path d="M1207,208 L1220,208 C1315.2108,208 1429.066,213.5766 1473.2189,215.9504 " fill="none" style="stroke:#000000;stroke-width:1.0;stroke-dasharray:3.0,3.0;"/><path d="M1473.0522,219.0083 L1475.5123,216.0754 L1473.3856,212.8926 L1480.8635,216.3671 L1473.0522,219.0083 " fill="#000000" style="stroke:#000000;stroke-width:1.0;"/><ellipse cx="1207" cy="208" fill="#000000" rx="3" ry="3" style="stroke:#000000;stroke-width:1.0;"/><path d="M566.6032,165 L579.6032,165 C618.2345,165 742.4742,165 851.8771,165 " fill="none" style="stroke:#000000;stroke-width:1.0;stroke-dasharray:3.0,3.0;"/><path d="M851.8771,168.0066 L854.132,165 L851.8771,161.9934 L859.3936,165 L851.8771,168.0066 " fill="#000000" style="stroke:#000000;stroke-width:1.0;"/><ellipse cx="566.6032" cy="165" fill="#000000" rx="3" ry="3" style="stroke:#000000;stroke-width:1.0;"/><path d="M367,156 L380,156 C441.2615,156 513.7108,160.9047 547.4441,163.4726 " fill="none" style="stroke:#000000;stroke-width:1.0;stroke-dasharray:3.0,3.0;"/><path d="M547.2049,166.5573 L549.7576,163.6521 L547.6834,160.3879 L555.1559,164.0707 L547.2049,166.5573 " fill="#000000" style="stroke:#000000;stroke-width:1.0;"/><ellipse cx="367" cy="156" fill="#000000" rx="3" ry="3" style="stroke:#000000;stroke-width:1.0;"/><path d="M1492.1,257 L1505.1,257 C1533.4448,257 1606.0151,257 1662.4936,257 " fill="none" style="stroke:#000000;stroke-width:1.0;stroke-dasharray:3.0,3.0;"/><path d="M1662.4936,260.0018 L1664.745,257 L1662.4936,253.9982 L1669.9981,257 L1662.4936,260.0018 " fill="#000000" style="stroke:#000000;stroke-width:1.0;"/><ellipse cx="1492.1" cy="257" fill="#000000" rx="3" ry="3" style="stroke:#000000;stroke-width:1.0;"/><path d="M1310,271 L1323,271 C1377.8622,271 1442.4015,263.5818 1473.4598,259.5452 " fill="none" style="stroke:#000000;stroke-width:1.0;stroke-dasharray:3.0,3.0;"/><path d="M1473.8572,262.5425 L1475.7079,259.2472 L1473.0625,256.5478 L1480.9532,258.5517 L1473.8572,262.5425 " fill="#000000" style="stroke:#000000;stroke-width:1.0;"/><ellipse cx="1310" cy="271" fill="#000000" rx="3" ry="3" style="stroke:#000000;stroke-width:1.0;"/><path d="M1310,314 L1323,314 C1358.8992,314 1398.8734,310.1555 1430.9285,306.123 " fill="none" style="stroke:#000000;stroke-width:1.0;stroke-dasharray:3.0,3.0;"/><path d="M1431.3172,309.1433 L1433.1937,305.8316 L1430.5399,303.1028 L1438.4791,305.1515 L1431.3172,309.1433 " fill="#000000" style="stroke:#000000;stroke-width:1.0;"/><ellipse cx="1310" cy="314" fill="#000000" rx="3" ry="3" style="stroke:#000000;stroke-width:1.0;"/><path d="M1310,337 L1323,337 C1332.2801,337 1341.8408,337.1672 1351.4719,337.4604 " fill="none" style="stroke:#000000;stroke-width:1.0;stroke-dasharray:3.0,3.0;"/><path d="M1351.3674,340.5544 L1353.7924,337.5388 L1351.5765,334.3664 L1359.2069,337.7217 L1351.3674,340.5544 " fill="#000000" style="stroke:#000000;stroke-width:1.0;"/><ellipse cx="1310" cy="337" fill="#000000" rx="3" ry="3" style="stroke:#000000;stroke-width:1.0;"/><path d="M1310,380 L1323,380 C1353.8976,380 1387.7748,383.175 1417.0326,386.9292 " fill="none" style="stroke:#000000;stroke-width:1.0;stroke-dasharray:3.0,3.0;"/><path d="M1416.6252,390.0201 L1419.3509,387.2347 L1417.44,383.8382 L1424.7601,387.9476 L1416.6252,390.0201 " fill="#000000" style="stroke:#000000;stroke-width:1.0;"/><ellipse cx="1310" cy="380" fill="#000000" rx="3" ry="3" style="stroke:#000000;stroke-width:1.0;"/><path d="M1493,439 L1506,439 C1555.8492,439 1611.5245,434.32 1655.7248,429.4878 " fill="none" style="stroke:#000000;stroke-width:1.0;stroke-dasharray:3.0,3.0;"/><path d="M1656.0605,432.5088 L1657.9906,429.236 L1655.3891,426.4668 L1663.2774,428.6485 L1656.0605,432.5088 " fill="#000000" style="stroke:#000000;stroke-width:1.0;"/><ellipse cx="1493" cy="439" fill="#000000" rx="3" ry="3" style="stroke:#000000;stroke-width:1.0;"/><path d="M1493,461 L1506,461 C1563.367,461 1628.4788,466.8924 1674.9185,472.1143 " fill="none" style="stroke:#000000;stroke-width:1.0;stroke-dasharray:3.0,3.0;"/><path d="M1674.5726,475.1454 L1677.1918,472.3738 L1675.2644,469.0832 L1682.4962,472.9791 L1674.5726,475.1454 " fill="#000000" style="stroke:#000000;stroke-width:1.0;"/><ellipse cx="1493" cy="461" fill="#000000" rx="3" ry="3" style="stroke:#000000;stroke-width:1.0;"/><path d="M1310,402 L1323,402 C1340.6942,402 1342.2899,413.1812 1359,419 C1398.5998,432.7894 1446.9627,442.3216 1473.0802,446.8973 " fill="none" style="stroke:#000000;stroke-width:1.0;stroke-dasharray:3.0,3.0;"/><path d="M1472.556,449.9608 L1475.3779,447.2905 L1473.6045,443.8338 L1480.739,448.2079 L1472.556,449.9608 " fill="#000000" style="stroke:#000000;stroke-width:1.0;"/><ellipse cx="1310" cy="402" fill="#000000" rx="3" ry="3" style="stroke:#000000;stroke-width:1.0;"/><path d="M566.7111,264.8977 L579.6032,266.5692 C606.129,270.0082 673.0166,278.6802 747.7491,288.3692 " fill="none" style="stroke:#000000;stroke-width:1.0;stroke-dasharray:3.0,3.0;"/><path d="M747.3484,291.4596 L750.0669,288.6697 L748.1497,285.2787 L755.4752,289.3709 L747.3484,291.4596 " fill="#000000" style="stroke:#000000;stroke-width:1.0;"/><ellipse cx="566.7111" cy="264.8977" fill="#000000" rx="3" ry="3" style="stroke:#000000;stroke-width:1.0;"/><path d="M367,178 L380,178 C415.6528,178 509.0665,230.8768 548.511,254.1847 " fill="none" style="stroke:#000000;stroke-width:1.0;stroke-dasharray:3.0,3.0;"/><path d="M546.9155,256.8691 L550.5243,255.3813 L550.1064,251.5003 L555.222,258.1733 L546.9155,256.8691 " fill="#000000" style="stroke:#000000;stroke-width:1.0;"/><ellipse cx="367" cy="178" fill="#000000" rx="3" ry="3" style="stroke:#000000;stroke-width:1.0;"/><!--MD5=[b6ec73565c0b4074fd30bda32c4d6ea7]
@startjson
{
  "normalizedInput": {
    "line1": "73 Dean Road",
    "city": "Sacramento",
    "state": "CA",
    "zip": "95815"
  },
  "kind": "civicinfo#representativeInfoResponse",
  "divisions": {
    "ocd-division/country:us/state:ca/sldu:6": {
      "name": "California State Senate district 6",
      "officeIndices": [
        0
      ]
    }
  },
  "offices": [
    {
      "name": "CA State Senator",
      "divisionId": "ocd-division/country:us/state:ca/sldu:6",
      "levels": [
        "administrativeArea1"
      ],
      "roles": [
        "legislatorUpperBody"
      ],
      "officialIndices": [
        0
      ]
    }
  ],
  "officials": [
    {
      "name": "Richard Pan",
      "address": [
        {
          "line1": "State Capitol",
          "line2": "1315",
          "city": "Sacramento",
          "state": "CA",
          "zip": "95814"
        }
      ],
      "party": "Democratic Party",
      "phones": [
        "(916) 651-4006"
      ],
      "urls": [
        "https://sd06.senate.ca.gov/",
        "https://en.wikipedia.org/wiki/Richard_Pan"
      ],
      "photoUrl": "http://senate.ca.gov/sites/senate.ca.gov/files/senator_photos/pan-richard.jpg",
      "emails": [
        "senator.pan@sen.ca.gov"
      ],
      "channels": [
        {
          "type": "Facebook",
          "id": "SenRichardPan"
        },
        {
          "type": "Twitter",
          "id": "DrPanMD"
        }
      ]
    }
  ]
}
@endjson

PlantUML version 1.2021.16(Wed Dec 08 09:25:22 PST 2021)
(GPL source distribution)
Java Runtime: OpenJDK Runtime Environment
JVM: OpenJDK 64-Bit Server VM
Default Encoding: Cp1252
Language: en
Country: US
--></g></svg>