<?xml version="1.0" encoding="UTF-8" standalone="no"?><svg xmlns="http://www.w3.org/2000/svg" xmlns:xlink="http://www.w3.org/1999/xlink" contentScriptType="application/ecmascript" contentStyleType="text/css" height="614px" preserveAspectRatio="none" style="width:546px;height:614px;" version="1.1" viewBox="0 0 546 614" width="546px" zoomAndPan="magnify"><defs><filter height="300%" id="fyu25vgb8e2uf" width="300%" x="-1" y="-1"><feGaussianBlur result="blurOut" stdDeviation="2.0"/><feColorMatrix in="blurOut" result="blurOut2" type="matrix" values="0 0 0 0 0 0 0 0 0 0 0 0 0 0 0 0 0 0 .4 0"/><feOffset dx="4.0" dy="4.0" in="blurOut2" result="blurOut3"/><feBlend in="SourceGraphic" in2="blurOut3" mode="normal"/></filter></defs><g><!--MD5=[051fb5e7185f07719fe4c31777123c6d]
cluster Executor--><polygon fill="#FFFFFF" filter="url(#fyu25vgb8e2uf)" points="375,436,452,436,459,458.2969,529,458.2969,529,607,375,607,375,436" style="stroke: #000000; stroke-width: 1.5;"/><line style="stroke: #000000; stroke-width: 1.5;" x1="375" x2="459" y1="458.2969" y2="458.2969"/><text fill="#000000" font-family="sans-serif" font-size="14" font-weight="bold" lengthAdjust="spacingAndGlyphs" textLength="71" x="379" y="450.9951">Executor</text><!--MD5=[df5e556bad61b9c5ca40fa6c0b5e1d83]
cluster Approvals Workflow--><polygon fill="#FFFFFF" filter="url(#fyu25vgb8e2uf)" points="16,317,184,317,191,339.2969,351,339.2969,351,521,16,521,16,317" style="stroke: #000000; stroke-width: 1.5;"/><line style="stroke: #000000; stroke-width: 1.5;" x1="16" x2="191" y1="339.2969" y2="339.2969"/><text fill="#000000" font-family="sans-serif" font-size="14" font-weight="bold" lengthAdjust="spacingAndGlyphs" textLength="162" x="20" y="331.9951">Approvals Workflow</text><!--MD5=[247ca459a94251444ffc1f5047904212]
cluster Approver--><polygon fill="#FFFFFF" filter="url(#fyu25vgb8e2uf)" points="59,186,138,186,145,208.2969,211,208.2969,211,271,59,271,59,186" style="stroke: #000000; stroke-width: 1.5;"/><line style="stroke: #000000; stroke-width: 1.5;" x1="59" x2="145" y1="208.2969" y2="208.2969"/><text fill="#000000" font-family="sans-serif" font-size="14" font-weight="bold" lengthAdjust="spacingAndGlyphs" textLength="73" x="63" y="200.9951">Approver</text><!--MD5=[5db8d5eef243a94dab9f9d922a953e4b]
cluster Requestor--><polygon fill="#FFFFFF" filter="url(#fyu25vgb8e2uf)" points="285,6,374,6,381,28.2969,431,28.2969,431,271,285,271,285,6" style="stroke: #000000; stroke-width: 1.5;"/><line style="stroke: #000000; stroke-width: 1.5;" x1="285" x2="381" y1="28.2969" y2="28.2969"/><text fill="#000000" font-family="sans-serif" font-size="14" font-weight="bold" lengthAdjust="spacingAndGlyphs" textLength="83" x="289" y="20.9951">Requestor</text><rect fill="#FEFECE" filter="url(#fyu25vgb8e2uf)" height="33.9688" rx="12.5" ry="12.5" style="stroke: #A80036; stroke-width: 1.5;" width="121" x="391.5" y="471"/><text fill="#000000" font-family="sans-serif" font-size="12" lengthAdjust="spacingAndGlyphs" textLength="101" x="401.5" y="492.1387">Execute Request</text><ellipse cx="416" cy="581" fill="none" filter="url(#fyu25vgb8e2uf)" rx="10" ry="10" style="stroke: #000000; stroke-width: 1.0;"/><ellipse cx="416.5" cy="581.5" fill="#000000" rx="6" ry="6" style="stroke: none; stroke-width: 1.0;"/><rect fill="#FEFECE" filter="url(#fyu25vgb8e2uf)" height="33.9688" rx="12.5" ry="12.5" style="stroke: #A80036; stroke-width: 1.5;" width="146" x="189" y="352"/><text fill="#000000" font-family="sans-serif" font-size="12" lengthAdjust="spacingAndGlyphs" textLength="126" x="199" y="373.1387">Determine Next Step</text><rect fill="#FEFECE" filter="url(#fyu25vgb8e2uf)" height="33.9688" rx="12.5" ry="12.5" style="stroke: #A80036; stroke-width: 1.5;" width="175" x="32.5" y="471"/><text fill="#000000" font-family="sans-serif" font-size="12" lengthAdjust="spacingAndGlyphs" textLength="155" x="42.5" y="492.1387">Determine Next Approver</text><rect fill="#FEFECE" filter="url(#fyu25vgb8e2uf)" height="33.9688" rx="12.5" ry="12.5" style="stroke: #A80036; stroke-width: 1.5;" width="107" x="227.5" y="471"/><text fill="#000000" font-family="sans-serif" font-size="12" lengthAdjust="spacingAndGlyphs" textLength="87" x="237.5" y="492.1387">Close Request</text><rect fill="#FEFECE" filter="url(#fyu25vgb8e2uf)" height="33.9688" rx="12.5" ry="12.5" style="stroke: #A80036; stroke-width: 1.5;" width="119" x="75.5" y="221"/><text fill="#000000" font-family="sans-serif" font-size="12" lengthAdjust="spacingAndGlyphs" textLength="99" x="85.5" y="242.1387">Make a Decision</text><ellipse cx="358" cy="51" fill="#000000" filter="url(#fyu25vgb8e2uf)" rx="10" ry="10" style="stroke: none; stroke-width: 1.0;"/><rect fill="#FEFECE" filter="url(#fyu25vgb8e2uf)" height="33.9688" rx="12.5" ry="12.5" style="stroke: #A80036; stroke-width: 1.5;" width="113" x="301.5" y="102"/><text fill="#000000" font-family="sans-serif" font-size="12" lengthAdjust="spacingAndGlyphs" textLength="93" x="311.5" y="123.1387">Create Request</text><rect fill="#FEFECE" filter="url(#fyu25vgb8e2uf)" height="33.9688" rx="12.5" ry="12.5" style="stroke: #A80036; stroke-width: 1.5;" width="95" x="310.5" y="221"/><text fill="#000000" font-family="sans-serif" font-size="12" lengthAdjust="spacingAndGlyphs" textLength="75" x="320.5" y="242.1387">Edit Request</text><!--MD5=[53ee19482235e22919c21f86f8882685]
link Execute Request to end--><path d="M445.564,505.269 C438.599,522.874 427.629,550.6051 421.192,566.8757 " fill="none" id="Execute Request-to-end" style="stroke: #A80036; stroke-width: 1.0;"/><polygon fill="#A80036" points="419.349,571.5334,426.3799,564.6365,421.1887,566.8842,418.9411,561.693,419.349,571.5334" style="stroke: #A80036; stroke-width: 1.0;"/><text fill="#000000" font-family="sans-serif" font-size="11" lengthAdjust="spacingAndGlyphs" textLength="55" x="433" y="548.2104">executed</text><!--MD5=[62fb6ef8b53a212105964470fdc2fcef]
link Determine Next Step to Determine Next Approver--><path d="M236.152,386.057 C227.037,392.023 216.859,399.038 208,406 C183.258,425.441 156.973,450.249 139.641,467.257 " fill="none" id="Determine Next Step-to-Determine Next Approver" style="stroke: #A80036; stroke-width: 1.0;"/><polygon fill="#A80036" points="135.866,470.977,145.0839,467.5084,139.4272,467.4673,139.4683,461.8106,135.866,470.977" style="stroke: #A80036; stroke-width: 1.0;"/><text fill="#000000" font-family="sans-serif" font-size="11" lengthAdjust="spacingAndGlyphs" textLength="54" x="209" y="417.2104">approved</text><!--MD5=[bd9c9faa294c91fee4bb788e633d3e3d]
link Determine Next Step to Close Request--><path d="M264.642,386.268 C268.017,407.05 273.864,443.056 277.577,465.92 " fill="none" id="Determine Next Step-to-Close Request" style="stroke: #A80036; stroke-width: 1.0;"/><polygon fill="#A80036" points="278.381,470.87,280.8864,461.3451,277.5794,465.9347,272.9899,462.6277,278.381,470.87" style="stroke: #A80036; stroke-width: 1.0;"/><text fill="#000000" font-family="sans-serif" font-size="11" lengthAdjust="spacingAndGlyphs" textLength="48" x="271" y="417.2104">rejected</text><!--MD5=[8c5a56132872c58ccdb4a4f9959ad214]
link Close Request to end--><path d="M304.825,505.059 C333.657,524.4949 381.122,556.4896 403.538,571.5995 " fill="none" id="Close Request-to-end" style="stroke: #A80036; stroke-width: 1.0;"/><polygon fill="#A80036" points="407.925,574.5569,402.6974,566.2099,403.7788,571.7625,398.2263,572.8439,407.925,574.5569" style="stroke: #A80036; stroke-width: 1.0;"/><!--MD5=[7d61c7f28ba530f9a2ef726e56517ff9]
link Determine Next Step to Execute Request--><path d="M290.71,386.017 C301.527,392.153 313.894,399.291 325,406 C359.067,426.581 397.515,451.32 423.094,467.998 " fill="none" id="Determine Next Step-to-Execute Request" style="stroke: #A80036; stroke-width: 1.0; stroke-dasharray: 1.0,3.0;"/><polygon fill="#A80036" points="427.401,470.81,422.0525,462.54,423.2146,468.0762,417.6784,469.2383,427.401,470.81" style="stroke: #A80036; stroke-width: 1.0;"/><text fill="#000000" font-family="sans-serif" font-size="11" lengthAdjust="spacingAndGlyphs" textLength="71" x="348" y="417.2104">all approved</text><!--MD5=[e3c12631658bab51465baf6c5a880c49]
link Determine Next Approver to Make a Decision--><path d="M120.968,470.991 C123.579,427.835 130.762,309.071 133.711,260.316 " fill="none" id="Determine Next Approver-to-Make a Decision" style="stroke: #A80036; stroke-width: 1.0;"/><polygon fill="#A80036" points="134.016,255.272,129.4783,264.0132,133.7132,260.2628,137.4636,264.4977,134.016,255.272" style="stroke: #A80036; stroke-width: 1.0;"/><text fill="#000000" font-family="sans-serif" font-size="11" lengthAdjust="spacingAndGlyphs" textLength="32" x="132" y="373.2104">notify</text><!--MD5=[1c40727d9bc4112838e8207c57a64a6e]
link Make a Decision to Determine Next Step--><path d="M139.862,255.1 C144.486,268.465 152.458,287.417 164,301 C180.997,321.004 205.34,337.688 225.511,349.404 " fill="none" id="Make a Decision-to-Determine Next Step" style="stroke: #A80036; stroke-width: 1.0; stroke-dasharray: 1.0,3.0;"/><polygon fill="#A80036" points="230.011,351.976,224.1822,344.0372,225.67,349.4948,220.2124,350.9827,230.011,351.976" style="stroke: #A80036; stroke-width: 1.0;"/><text fill="#000000" font-family="sans-serif" font-size="11" lengthAdjust="spacingAndGlyphs" textLength="84" x="165" y="298.2104">decision made</text><!--MD5=[8b0be74731468b8943ed4df01655bdd6]
link start to Create Request--><path d="M358,61.177 C358,70.269 358,84.527 358,96.485 " fill="none" id="start-to-Create Request" style="stroke: #A80036; stroke-width: 1.0;"/><polygon fill="#A80036" points="358,101.791,362,92.791,358,96.791,354,92.791,358,101.791" style="stroke: #A80036; stroke-width: 1.0;"/><!--MD5=[e3216ccd6474f19437fa4bc3a9746956]
link Create Request to Edit Request--><path d="M358,136.268 C358,156.963 358,192.754 358,215.631 " fill="none" id="Create Request-to-Edit Request" style="stroke: #A80036; stroke-width: 1.0;"/><polygon fill="#A80036" points="358,220.87,362,211.87,358,215.87,354,211.87,358,220.87" style="stroke: #A80036; stroke-width: 1.0;"/><text fill="#000000" font-family="sans-serif" font-size="11" lengthAdjust="spacingAndGlyphs" textLength="46" x="359" y="167.2104">add info</text><!--MD5=[f9d51a6d91aba5493d5dc6b0abd20fcf]
link Edit Request to Determine Next Step--><path d="M373.31,255.079 C383.603,267.922 393.814,286.162 385,301 C371.32,324.03 346.639,339.646 322.957,349.964 " fill="none" id="Edit Request-to-Determine Next Step" style="stroke: #A80036; stroke-width: 1.0;"/><polygon fill="#A80036" points="318.237,351.958,328.0842,352.1403,322.8429,350.0122,324.9709,344.7709,318.237,351.958" style="stroke: #A80036; stroke-width: 1.0;"/><text fill="#000000" font-family="sans-serif" font-size="11" lengthAdjust="spacingAndGlyphs" textLength="38" x="390" y="298.2104">submit</text><!--MD5=[9da4c824cfb467b5245f130210cb19f1]
link Determine Next Step to Edit Request--><path d="M256.68,351.719 C252.046,334.311 247.791,306.574 260,287 C270.218,270.617 287.833,259.671 305.336,252.429 " fill="none" id="Determine Next Step-to-Edit Request" style="stroke: #A80036; stroke-width: 1.0;"/><polygon fill="#A80036" points="310.263,250.483,300.423,250.0662,305.6121,252.3185,303.3598,257.5076,310.263,250.483" style="stroke: #A80036; stroke-width: 1.0;"/><text fill="#000000" font-family="sans-serif" font-size="11" lengthAdjust="spacingAndGlyphs" textLength="118" x="261" y="298.2104">more info requested</text><!--MD5=[b03c3597f1b8115b935b3e9509d04ad7]
@startuml
partition Executor {
    "Execute Request" -down-> [executed] (*)
}

partition "Approvals Workflow" {
    "Determine Next Step" - -> [approved] "Determine Next Approver"
    "Determine Next Step" - -> [rejected] "Close Request"
    "Close Request" -down-> (*)
    "Determine Next Step" ..> [all approved] "Execute Request"
}


partition Approver {
    "Determine Next Approver" -right-> [notify] "Make a Decision"
    "Make a Decision" ..> [decision made] "Determine Next Step"
}

partition Requestor {
    (*) - -> "Create Request"
    "Create Request" - -> [add info] "Edit Request"
    "Edit Request" - -> [submit] "Determine Next Step"
    "Determine Next Step" - -> [more info requested] "Edit Request"
    
}
@enduml

PlantUML version 1.2020.20beta2(Unknown compile time)
(GPL source distribution)
Java Runtime: Java(TM) SE Runtime Environment
JVM: Java HotSpot(TM) 64-Bit Server VM
Default Encoding: UTF-8
Language: en
Country: US
--></g></svg>